<svg width="24" height="24" viewBox="0 0 24 24" fill="none" xmlns="http://www.w3.org/2000/svg">
<g clip-path="url(#clip0_1521_2991)">
<path d="M5.38083 23.5066H0.820312C0.561422 23.5066 0.351562 23.2968 0.351562 23.0379V22.3001C0.351562 22.0412 0.561422 21.8314 0.820312 21.8314H23.1797C23.4386 21.8314 23.6484 22.0412 23.6484 22.3001V23.0379C23.6484 23.2968 23.4386 23.5066 23.1797 23.5066H6.97458M22.2653 13.4224V21.8257H18.1861M18.1861 21.8257V7.93701C18.1861 7.41923 18.6059 6.99951 19.1236 6.99951H21.3278C21.8456 6.99951 22.2653 7.41923 22.2653 7.93701V11.7818M18.1861 21.8257H14.107M18.1861 21.8257V9.95695H15.0445C14.5267 9.95695 14.107 10.3767 14.107 10.8944V21.8257M14.107 21.8257H10.0278V12.8661C10.0278 12.3483 10.4475 11.9286 10.9653 11.9286H14.107V21.8257ZM5.94872 21.8257H1.86956V16.8093C1.86956 16.2915 2.28928 15.8718 2.80706 15.8718H5.94872V21.8257Z" stroke="#262626" stroke-width="0.703125" stroke-miterlimit="10" stroke-linecap="round" stroke-linejoin="round"/>
<path d="M15.5633 0.800674C15.5633 9.23011 9.60516 11.5455 1.75781 11.5455M10.0278 21.8258H5.94867V14.8377C5.94867 14.3199 6.36839 13.9002 6.88617 13.9002H10.0278V21.8258ZM21.8137 3.35114V1.19653C21.8137 0.808221 21.4989 0.493408 21.1106 0.493408H19.3409C18.9525 0.493408 18.6377 0.808221 18.6377 1.19653V3.35114C18.6377 3.39832 18.619 3.44357 18.5856 3.47693C18.5523 3.51029 18.507 3.52903 18.4598 3.52903C18.3014 3.52903 18.222 3.72066 18.3341 3.83269L19.7475 5.24611C20.0116 5.51025 20.4398 5.51025 20.704 5.24611L22.1174 3.83269C22.2295 3.72061 22.1501 3.52903 21.9916 3.52903C21.9683 3.52904 21.9451 3.52444 21.9236 3.51551C21.902 3.50657 21.8823 3.49347 21.8658 3.47695C21.8493 3.46043 21.8362 3.44081 21.8272 3.41923C21.8183 3.39764 21.8137 3.37451 21.8137 3.35114Z" stroke="#262626" stroke-width="0.703125" stroke-miterlimit="10" stroke-linecap="round" stroke-linejoin="round"/>
<path d="M14.7109 1.34438L15.5619 0.493408L16.4129 1.34438" stroke="#262626" stroke-width="0.703125" stroke-miterlimit="10" stroke-linecap="round" stroke-linejoin="round"/>
</g>
<defs>
<clipPath id="clip0_1521_2991">
<rect width="24" height="24" fill="white"/>
</clipPath>
</defs>
</svg>
