<svg width="38" height="38" viewBox="0 0 38 38" fill="none" xmlns="http://www.w3.org/2000/svg">
<path d="M33.819 4.00277H30.2536V2.41062C30.2536 1.59993 29.4001 0.964844 28.3113 0.964844C27.221 0.964844 26.3668 1.59993 26.3668 2.41062V4.00277H20.9445V2.41062C20.9445 1.59993 20.0903 0.964844 19 0.964844C17.9097 0.964844 17.0555 1.59993 17.0555 2.41062V4.00277H11.6351V2.41062C11.6351 1.59993 10.7811 0.964844 9.69059 0.964844C8.60009 0.964844 7.74606 1.59993 7.74606 2.41062V4.00277H4.18304C3.55766 4.00345 2.9581 4.25218 2.51589 4.69438C2.07367 5.13658 1.82493 5.73614 1.82422 6.36151V34.6763C1.82495 35.3017 2.0737 35.9013 2.5159 36.3435C2.95811 36.7857 3.55766 37.0344 4.18304 37.0352H33.819C34.4442 37.0343 35.0434 36.7854 35.4852 36.3432C35.9271 35.9009 36.1754 35.3015 36.1758 34.6763V6.36151C36.1754 5.73639 35.927 5.13696 35.4852 4.69475C35.0434 4.25253 34.4441 4.00367 33.819 4.00277ZM27.5544 2.41953C27.5908 2.3416 27.8639 2.15234 28.3115 2.15234C28.7577 2.15234 29.0301 2.3419 29.0663 2.41953V4.00277H27.5544V2.41953ZM18.243 2.4202C18.2801 2.34205 18.5535 2.15234 19 2.15234C19.4465 2.15234 19.7199 2.34205 19.757 2.4202V4.00277H18.243V2.4202ZM8.93371 2.4202C8.97082 2.34205 9.24416 2.15234 9.69074 2.15234C10.1373 2.15234 10.4107 2.34205 10.4478 2.4202V4.00277H8.93371V2.4202Z" fill="#EAE8E8"/>
<path d="M17.6731 15.2266V17.8921C17.6731 18.0495 17.6106 18.2005 17.4992 18.3119C17.3879 18.4232 17.2368 18.4858 17.0794 18.4858H14.0587C13.9012 18.4858 13.7502 18.4232 13.6388 18.3119C13.5275 18.2005 13.4649 18.0495 13.4649 17.8921V15.2266C13.4649 15.0691 13.5275 14.9181 13.6388 14.8067C13.7502 14.6954 13.9012 14.6328 14.0587 14.6328H17.0794C17.2368 14.6328 17.3879 14.6954 17.4992 14.8067C17.6106 14.9181 17.6731 15.0691 17.6731 15.2266ZM23.9419 14.6328H20.9212C20.7638 14.6328 20.6127 14.6954 20.5014 14.8067C20.39 14.9181 20.3275 15.0691 20.3275 15.2266V17.8921C20.3275 18.0495 20.39 18.2005 20.5014 18.3119C20.6127 18.4232 20.7638 18.4858 20.9212 18.4858H23.9419C24.0994 18.4858 24.2504 18.4232 24.3618 18.3119C24.4731 18.2005 24.5357 18.0495 24.5357 17.8921V15.2266C24.5357 15.0691 24.4731 14.9181 24.3618 14.8067C24.2504 14.6954 24.0994 14.6328 23.9419 14.6328ZM10.2189 21.1545H7.1958C7.03833 21.1545 6.88731 21.217 6.77596 21.3284C6.66461 21.4397 6.60205 21.5908 6.60205 21.7482V24.4137C6.60205 24.5712 6.66461 24.7222 6.77596 24.8336C6.88731 24.9449 7.03833 25.0075 7.1958 25.0075H10.219C10.3764 25.0075 10.5274 24.9449 10.6388 24.8336C10.7501 24.7222 10.8127 24.5712 10.8127 24.4137V21.7482C10.8127 21.5908 10.7501 21.4397 10.6388 21.3284C10.5274 21.217 10.3764 21.1545 10.2189 21.1545ZM17.0793 21.1545H14.0586C13.9011 21.1545 13.7501 21.217 13.6387 21.3284C13.5274 21.4397 13.4648 21.5908 13.4648 21.7482V24.4137C13.4648 24.5712 13.5274 24.7222 13.6387 24.8336C13.7501 24.9449 13.9011 25.0075 14.0586 25.0075H17.0793C17.2368 25.0075 17.3878 24.9449 17.4991 24.8336C17.6105 24.7222 17.673 24.5712 17.673 24.4137V21.7482C17.673 21.5908 17.6105 21.4398 17.4992 21.3284C17.3878 21.2171 17.2368 21.1545 17.0794 21.1545H17.0793ZM23.9419 21.1545H20.9211C20.7637 21.1545 20.6127 21.217 20.5013 21.3284C20.39 21.4397 20.3274 21.5908 20.3274 21.7482V24.4137C20.3274 24.5712 20.39 24.7222 20.5013 24.8336C20.6127 24.9449 20.7637 25.0075 20.9211 25.0075H23.9419C24.0993 25.0075 24.2503 24.9449 24.3617 24.8336C24.473 24.7222 24.5356 24.5712 24.5356 24.4137V21.7482C24.5356 21.5908 24.4731 21.4398 24.3617 21.3284C24.2504 21.2171 24.0994 21.1545 23.9419 21.1545H23.9419ZM10.2188 27.6783H7.1958C7.03833 27.6783 6.88731 27.7409 6.77596 27.8522C6.66461 27.9636 6.60205 28.1146 6.60205 28.2721V30.9354C6.60205 31.0929 6.66461 31.2439 6.77596 31.3553C6.88731 31.4666 7.03833 31.5292 7.1958 31.5292H10.219C10.3764 31.5292 10.5274 31.4666 10.6388 31.3553C10.7501 31.2439 10.8127 31.0929 10.8127 30.9354V28.2721C10.8127 28.1147 10.7501 27.9636 10.6388 27.8523C10.5274 27.7409 10.3764 27.6784 10.219 27.6784L10.2188 27.6783ZM17.0792 27.6783H14.0585C13.901 27.6783 13.75 27.7409 13.6387 27.8522C13.5273 27.9636 13.4648 28.1146 13.4648 28.2721V30.9354C13.4648 31.0929 13.5273 31.2439 13.6387 31.3553C13.75 31.4666 13.901 31.5292 14.0585 31.5292H17.0792C17.2367 31.5292 17.3877 31.4666 17.4991 31.3553C17.6104 31.2439 17.673 31.0929 17.673 30.9354V28.2721C17.673 28.1147 17.6104 27.9637 17.4991 27.8523C17.3878 27.741 17.2368 27.6784 17.0794 27.6784L17.0792 27.6783ZM10.219 14.6328H7.1958C7.03833 14.6328 6.88731 14.6954 6.77596 14.8067C6.66461 14.9181 6.60205 15.0691 6.60205 15.2266V17.8921C6.60205 18.0495 6.66461 18.2005 6.77596 18.3119C6.88731 18.4232 7.03833 18.4858 7.1958 18.4858H10.219C10.3764 18.4858 10.5274 18.4232 10.6388 18.3119C10.7501 18.2005 10.8127 18.0495 10.8127 17.8921V15.2266C10.8127 15.0691 10.7501 14.9181 10.6388 14.8067C10.5274 14.6954 10.3764 14.6328 10.219 14.6328ZM30.8045 21.1545H27.7838C27.6263 21.1545 27.4753 21.217 27.3639 21.3284C27.2526 21.4397 27.19 21.5908 27.19 21.7482V24.4137C27.19 24.5712 27.2526 24.7222 27.3639 24.8336C27.4753 24.9449 27.6263 25.0075 27.7838 25.0075H30.8045C30.962 25.0075 31.113 24.9449 31.2243 24.8336C31.3357 24.7222 31.3982 24.5712 31.3982 24.4137V21.7482C31.3982 21.5908 31.3357 21.4397 31.2243 21.3284C31.113 21.217 30.962 21.1545 30.8045 21.1545ZM23.9419 27.6783H20.9212C20.7638 27.6783 20.6127 27.7409 20.5014 27.8522C20.39 27.9636 20.3275 28.1146 20.3275 28.2721V30.9354C20.3275 31.0929 20.39 31.2439 20.5014 31.3553C20.6127 31.4666 20.7638 31.5292 20.9212 31.5292H23.9419C24.0994 31.5292 24.2504 31.4666 24.3618 31.3553C24.4731 31.2439 24.5357 31.0929 24.5357 30.9354V28.2721C24.5357 28.1147 24.4731 27.9636 24.3618 27.8523C24.2504 27.7409 24.0994 27.6783 23.9419 27.6783Z" fill="#484868"/>
<path d="M10.2188 14.6328H9.47656C9.63403 14.6328 9.78506 14.6954 9.89641 14.8067C10.0078 14.9181 10.0703 15.0691 10.0703 15.2266V17.8921C10.0703 18.0495 10.0078 18.2005 9.89641 18.3119C9.78506 18.4232 9.63403 18.4858 9.47656 18.4858H10.2188C10.3762 18.4858 10.5272 18.4232 10.6386 18.3119C10.7499 18.2005 10.8125 18.0495 10.8125 17.8921V15.2266C10.8125 15.0691 10.7499 14.9181 10.6386 14.8067C10.5272 14.6954 10.3762 14.6328 10.2188 14.6328ZM17.0792 27.6784H16.337C16.4944 27.6784 16.6455 27.7409 16.7568 27.8523C16.8682 27.9636 16.9307 28.1147 16.9307 28.2721V30.9355C16.9307 31.093 16.8682 31.244 16.7568 31.3553C16.6455 31.4667 16.4944 31.5292 16.337 31.5292H17.0792C17.2366 31.5292 17.3877 31.4667 17.499 31.3553C17.6104 31.244 17.6729 31.093 17.6729 30.9355V28.2721C17.6729 28.1147 17.6104 27.9636 17.499 27.8523C17.3877 27.7409 17.2366 27.6784 17.0792 27.6784ZM17.0792 21.1545H16.337C16.4944 21.1545 16.6455 21.217 16.7568 21.3284C16.8682 21.4397 16.9307 21.5908 16.9307 21.7482V24.4137C16.9307 24.5712 16.8682 24.7222 16.7568 24.8336C16.6455 24.9449 16.4944 25.0075 16.337 25.0075H17.0792C17.2366 25.0075 17.3877 24.9449 17.499 24.8336C17.6104 24.7222 17.6729 24.5712 17.6729 24.4137V21.7482C17.6729 21.5908 17.6104 21.4397 17.499 21.3284C17.3877 21.217 17.2366 21.1545 17.0792 21.1545ZM10.2188 27.6784H9.47656C9.63403 27.6784 9.78506 27.7409 9.89641 27.8523C10.0078 27.9636 10.0703 28.1147 10.0703 28.2721V30.9355C10.0703 31.093 10.0078 31.244 9.89641 31.3553C9.78506 31.4667 9.63403 31.5292 9.47656 31.5292H10.2188C10.3762 31.5292 10.5272 31.4667 10.6386 31.3553C10.7499 31.244 10.8125 31.093 10.8125 30.9355V28.2721C10.8125 28.1147 10.7499 27.9636 10.6386 27.8523C10.5272 27.7409 10.3762 27.6784 10.2188 27.6784ZM10.2188 21.1545H9.47656C9.63403 21.1545 9.78506 21.217 9.89641 21.3284C10.0078 21.4397 10.0703 21.5908 10.0703 21.7482V24.4137C10.0703 24.5712 10.0078 24.7222 9.89641 24.8336C9.78506 24.9449 9.63403 25.0075 9.47656 25.0075H10.2188C10.3762 25.0075 10.5272 24.9449 10.6386 24.8336C10.7499 24.7222 10.8125 24.5712 10.8125 24.4137V21.7482C10.8125 21.5908 10.7499 21.4397 10.6386 21.3284C10.5272 21.217 10.3762 21.1545 10.2188 21.1545ZM23.9417 27.6784H23.1995C23.357 27.6784 23.508 27.7409 23.6194 27.8523C23.7307 27.9636 23.7933 28.1147 23.7933 28.2721V30.9355C23.7933 31.093 23.7307 31.244 23.6194 31.3553C23.508 31.4667 23.357 31.5292 23.1995 31.5292H23.9417C24.0992 31.5292 24.2502 31.4667 24.3616 31.3553C24.4729 31.244 24.5355 31.093 24.5355 30.9355V28.2721C24.5355 28.1147 24.4729 27.9636 24.3616 27.8523C24.2502 27.7409 24.0992 27.6784 23.9417 27.6784ZM23.9417 14.6328H23.1995C23.357 14.6328 23.508 14.6954 23.6194 14.8067C23.7307 14.9181 23.7933 15.0691 23.7933 15.2266V17.8921C23.7933 18.0495 23.7307 18.2005 23.6194 18.3119C23.508 18.4232 23.357 18.4858 23.1995 18.4858H23.9417C24.0992 18.4858 24.2502 18.4232 24.3616 18.3119C24.4729 18.2005 24.5355 18.0495 24.5355 17.8921V15.2266C24.5355 15.0691 24.4729 14.9181 24.3616 14.8067C24.2502 14.6954 24.0992 14.6328 23.9417 14.6328ZM17.0792 14.6328H16.337C16.4944 14.6328 16.6455 14.6954 16.7568 14.8067C16.8682 14.9181 16.9307 15.0691 16.9307 15.2266V17.8921C16.9307 18.0495 16.8682 18.2005 16.7568 18.3119C16.6455 18.4232 16.4944 18.4858 16.337 18.4858H17.0792C17.2366 18.4858 17.3877 18.4232 17.499 18.3119C17.6104 18.2005 17.6729 18.0495 17.6729 17.8921V15.2266C17.6729 15.0691 17.6104 14.9181 17.499 14.8067C17.3877 14.6954 17.2366 14.6328 17.0792 14.6328ZM30.8043 21.1545H30.0621C30.2196 21.1545 30.3706 21.217 30.4819 21.3284C30.5933 21.4397 30.6558 21.5908 30.6558 21.7482V24.4137C30.6558 24.5712 30.5933 24.7222 30.4819 24.8336C30.3706 24.9449 30.2196 25.0075 30.0621 25.0075H30.8043C30.9618 25.0075 31.1128 24.9449 31.2241 24.8336C31.3355 24.7222 31.398 24.5712 31.398 24.4137V21.7482C31.398 21.5908 31.3355 21.4397 31.2241 21.3284C31.1128 21.217 30.9618 21.1545 30.8043 21.1545ZM23.9417 21.1545H23.1995C23.357 21.1545 23.508 21.217 23.6194 21.3284C23.7307 21.4397 23.7933 21.5908 23.7933 21.7482V24.4137C23.7933 24.5712 23.7307 24.7222 23.6194 24.8336C23.508 24.9449 23.357 25.0075 23.1995 25.0075H23.9417C24.0992 25.0075 24.2502 24.9449 24.3616 24.8336C24.4729 24.7222 24.5355 24.5712 24.5355 24.4137V21.7482C24.5355 21.5908 24.4729 21.4397 24.3616 21.3284C24.2502 21.217 24.0992 21.1545 23.9417 21.1545Z" fill="#3D3D54"/>
<path d="M28.9192 18.3159C28.7627 18.3159 28.6124 18.2541 28.5012 18.1439L27.2811 16.9341C27.17 16.8231 27.1075 16.6726 27.1072 16.5155C27.1068 16.3585 27.1687 16.2077 27.2793 16.0962C27.3898 15.9847 27.5401 15.9215 27.6971 15.9205C27.8541 15.9195 28.0052 15.9808 28.1172 16.0908L28.8816 16.8485L30.4357 15.0137C30.5375 14.8935 30.6828 14.8187 30.8397 14.8057C30.9967 14.7927 31.1524 14.8426 31.2725 14.9444C31.3927 15.0462 31.4675 15.1916 31.4805 15.3485C31.4935 15.5054 31.4436 15.6611 31.3418 15.7813L29.3726 18.1059C29.3197 18.1684 29.2544 18.2193 29.1809 18.2553C29.1073 18.2914 29.0271 18.3118 28.9453 18.3153C28.9366 18.3157 28.9279 18.3159 28.9192 18.3159Z" fill="#D22E2E"/>
<path d="M30.9823 35.1231C30.9272 35.1783 30.8617 35.2221 30.7897 35.2519C30.7176 35.2818 30.6404 35.2972 30.5624 35.2972H4.18304C3.55766 35.2965 2.95811 35.0477 2.5159 34.6055C2.0737 34.1633 1.82495 33.5637 1.82422 32.9384V34.676C1.82495 35.3014 2.0737 35.901 2.5159 36.3432C2.95811 36.7854 3.55766 37.0341 4.18304 37.0349H33.819C34.4442 37.034 35.0434 36.7851 35.4852 36.3429C35.9271 35.9006 36.1754 35.3012 36.1758 34.676V29.6816C36.1758 29.8391 36.1132 29.99 36.002 30.1013L30.9823 35.1231Z" fill="#D1C9C9"/>
<path d="M36.1758 29.6823V29.6045H31.687C31.3721 29.6045 31.07 29.7296 30.8473 29.9523C30.6246 30.175 30.4995 30.477 30.4995 30.792V35.2979H30.5624C30.6404 35.2979 30.7176 35.2825 30.7897 35.2526C30.8617 35.2228 30.9272 35.179 30.9823 35.1238L36.0019 30.1021C36.1132 29.9907 36.1757 29.8398 36.1758 29.6823Z" fill="#BCB3B3"/>
<path d="M33.819 4.00293H27.5544V6.25042C27.5893 6.32835 27.8616 6.51902 28.3115 6.51902C28.469 6.51902 28.62 6.58158 28.7313 6.69292C28.8427 6.80427 28.9052 6.9553 28.9052 7.11277C28.9052 7.27024 28.8427 7.42126 28.7313 7.53261C28.62 7.64396 28.469 7.70652 28.3115 7.70652C27.2211 7.70652 26.3669 7.07054 26.3669 6.25859V4.00293H18.243V6.24998C18.2784 6.3282 18.551 6.51902 19 6.51902C19.1575 6.51902 19.3085 6.58158 19.4198 6.69292C19.5312 6.80427 19.5937 6.9553 19.5937 7.11277C19.5937 7.27024 19.5312 7.42126 19.4198 7.53261C19.3085 7.64396 19.1575 7.70652 19 7.70652C17.9096 7.70652 17.0555 7.07054 17.0555 6.25859V4.00293H8.93386V6.24998C8.96933 6.3282 9.24194 6.51902 9.69089 6.51902C9.84836 6.51902 9.99938 6.58158 10.1107 6.69292C10.2221 6.80427 10.2846 6.9553 10.2846 7.11277C10.2846 7.27024 10.2221 7.42126 10.1107 7.53261C9.99938 7.64396 9.84836 7.70652 9.69089 7.70652C8.60061 7.70652 7.74636 7.07054 7.74636 6.25859V4.00293H4.18304C3.55766 4.00362 2.9581 4.25235 2.51589 4.69455C2.07367 5.13674 1.82493 5.7363 1.82422 6.36168V11.4239H36.1758V6.36168C36.1754 5.73656 35.927 5.13712 35.4852 4.69491C35.0434 4.2527 34.4441 4.00383 33.819 4.00293Z" fill="#D22E2E"/>
<path d="M1.82422 11.4238H36.1758V12.351H1.82422V11.4238Z" fill="#D1C9C9"/>
<path d="M19.5936 7.11261C19.5936 7.27008 19.5311 7.4211 19.4197 7.53245C19.3084 7.6438 19.1574 7.70636 18.9999 7.70636C17.9095 7.70636 17.0554 7.07037 17.0554 6.25842V2.41062C17.0554 1.59993 17.9095 0.964844 18.9999 0.964844C20.0902 0.964844 20.9444 1.59993 20.9444 2.41062V4.00277H19.7569V2.4202C19.7198 2.34205 19.4463 2.15234 18.9999 2.15234C18.5535 2.15234 18.28 2.34205 18.2429 2.4202V6.24989C18.2783 6.32811 18.5509 6.51893 18.9999 6.51893C19.1573 6.51893 19.3084 6.58148 19.4197 6.69281C19.531 6.80414 19.5936 6.95515 19.5936 7.11261ZM9.69063 6.51886C9.24182 6.51886 8.96922 6.32804 8.93359 6.24981V2.42013C8.9707 2.34197 9.24405 2.15227 9.69063 2.15227C10.1372 2.15227 10.4105 2.34197 10.4477 2.42013V4.00277H11.6352V2.41062C11.6352 1.59993 10.7811 0.964844 9.69063 0.964844C8.60013 0.964844 7.74609 1.59993 7.74609 2.41062V6.25842C7.74609 7.07037 8.6002 7.70636 9.69063 7.70636C9.8481 7.70636 9.99912 7.6438 10.1105 7.53245C10.2218 7.4211 10.2844 7.27008 10.2844 7.11261C10.2844 6.95513 10.2218 6.80411 10.1105 6.69276C9.99912 6.58141 9.8481 6.51886 9.69063 6.51886ZM28.3112 6.51886C27.8615 6.51886 27.5892 6.32819 27.5542 6.25026V2.41953C27.5906 2.3416 27.8637 2.15234 28.3112 2.15234C28.7574 2.15234 29.0298 2.3419 29.066 2.41953V4.00277H30.2535V2.41062C30.2535 1.59993 29.4 0.964844 28.3112 0.964844C27.2209 0.964844 26.3667 1.59993 26.3667 2.41062V6.25842C26.3667 7.07037 27.2207 7.70636 28.3112 7.70636C28.4687 7.70636 28.6197 7.6438 28.7311 7.53245C28.8424 7.4211 28.905 7.27008 28.905 7.11261C28.905 6.95513 28.8424 6.80411 28.7311 6.69276C28.6197 6.58141 28.4687 6.51886 28.3112 6.51886Z" fill="#484868"/>
<path d="M9.69427 5.9991C9.42183 5.99911 9.15895 6.09952 8.95587 6.28113C9.03514 6.36975 9.29379 6.51863 9.69064 6.51863C9.84811 6.51863 9.99913 6.58118 10.1105 6.69253C10.2218 6.80388 10.2844 6.95491 10.2844 7.11238C10.2844 7.26985 10.2218 7.42087 10.1105 7.53222C9.99913 7.64357 9.84811 7.70613 9.69064 7.70613C9.33089 7.70941 8.97475 7.63429 8.64697 7.486C8.71554 7.67799 8.83553 7.84745 8.99385 7.97589C9.15217 8.10433 9.34273 8.1868 9.54474 8.2143C9.74674 8.2418 9.95241 8.21328 10.1393 8.13185C10.3262 8.05041 10.4871 7.9192 10.6045 7.75252C10.7219 7.58585 10.7913 7.39013 10.805 7.18673C10.8187 6.98332 10.7763 6.78006 10.6824 6.59912C10.5885 6.41818 10.4466 6.26653 10.2724 6.16071C10.0981 6.0549 9.89814 5.99899 9.69427 5.9991ZM18.9998 5.9991C18.7284 5.99902 18.4664 6.09862 18.2635 6.27898C18.3406 6.36737 18.6001 6.51855 18.9998 6.51855C19.1573 6.51855 19.3083 6.58111 19.4197 6.69246C19.531 6.80381 19.5936 6.95483 19.5936 7.1123C19.5936 7.26978 19.531 7.4208 19.4197 7.53215C19.3083 7.6435 19.1573 7.70605 18.9998 7.70605C18.6384 7.70938 18.2806 7.63353 17.9516 7.48384C18.0198 7.67611 18.1394 7.84594 18.2976 7.97478C18.4557 8.10362 18.6462 8.18652 18.8483 8.2144C19.0504 8.24228 19.2562 8.21408 19.4433 8.13288C19.6305 8.05169 19.7917 7.92061 19.9093 7.75399C20.027 7.58736 20.0966 7.3916 20.1105 7.1881C20.1244 6.98459 20.0821 6.78117 19.9883 6.60008C19.8944 6.41898 19.7525 6.26718 19.5782 6.16125C19.4039 6.05533 19.2038 5.99936 18.9998 5.99947V5.9991ZM28.3101 5.9991C28.0388 5.999 27.777 6.09849 27.5742 6.27868C27.6501 6.3667 27.9096 6.51855 28.3112 6.51855C28.4686 6.51855 28.6197 6.58111 28.731 6.69246C28.8424 6.80381 28.9049 6.95483 28.9049 7.1123C28.9049 7.26978 28.8424 7.4208 28.731 7.53215C28.6197 7.6435 28.4686 7.70605 28.3112 7.70605C27.9493 7.70943 27.591 7.63343 27.2617 7.4834C27.3298 7.67565 27.4495 7.84548 27.6076 7.97432C27.7658 8.10316 27.9563 8.18605 28.1583 8.21395C28.3604 8.24184 28.5662 8.21365 28.7533 8.13247C28.9404 8.05129 29.1017 7.92024 29.2193 7.75363C29.337 7.58703 29.4066 7.39128 29.4206 7.18779C29.4345 6.9843 29.3922 6.78088 29.2984 6.59978C29.2046 6.41868 29.0627 6.26686 28.8884 6.16091C28.7142 6.05496 28.5141 5.99903 28.3101 5.9991Z" fill="#AD1E1E"/>
</svg>
