<svg width="24" height="24" viewBox="0 0 24 24" fill="none" xmlns="http://www.w3.org/2000/svg">
<path d="M21.3839 21.6242L18.6734 14.4969C18.9412 14.3368 19.174 14.1243 19.3578 13.8722C19.5553 13.6007 19.6905 13.2891 19.7538 12.9594C19.817 12.6297 19.8068 12.2902 19.7238 11.9649C19.6536 11.6806 19.6654 11.3821 19.7577 11.1042C19.8501 10.8263 20.0193 10.5802 20.2458 10.3944C20.508 10.1795 20.7192 9.90906 20.8641 9.60255C21.009 9.29604 21.0839 8.96116 21.0835 8.62213C21.0832 8.2831 21.0074 7.9484 20.8618 7.64223C20.7162 7.33605 20.5044 7.06607 20.2417 6.8518C20.016 6.66537 19.8477 6.41888 19.7563 6.14082C19.6648 5.86277 19.654 5.56452 19.7249 5.28055C19.8073 4.95578 19.8172 4.61684 19.7537 4.28783C19.6903 3.95883 19.5551 3.64786 19.3578 3.37704C19.1556 3.09892 18.8946 2.86879 18.5933 2.70306C18.292 2.53732 17.9579 2.44005 17.6148 2.41817C17.3195 2.39831 17.0356 2.29671 16.7948 2.12472C16.554 1.95273 16.3658 1.71714 16.2513 1.4443C16.1231 1.13199 15.9283 0.851411 15.6805 0.622134C15.4327 0.392857 15.1378 0.220401 14.8165 0.116795C14.4906 0.0102092 14.1453 -0.0240045 13.8047 0.016539C13.4642 0.0570825 13.1366 0.171408 12.8448 0.351545C12.5903 0.507025 12.2979 0.589291 11.9997 0.589291C11.7015 0.589291 11.4091 0.507025 11.1547 0.351545C10.8628 0.171408 10.5352 0.0570825 10.1947 0.016539C9.85415 -0.0240045 9.50886 0.0102092 9.1829 0.116795C8.86168 0.220471 8.56692 0.392956 8.31919 0.622228C8.07146 0.851499 7.87672 1.13204 7.74853 1.4443C7.63367 1.71762 7.44494 1.95355 7.20351 2.12563C6.96208 2.29771 6.6775 2.39914 6.38165 2.41855C6.03898 2.44068 5.70539 2.53808 5.40465 2.70381C5.1039 2.86954 4.84339 3.09954 4.64165 3.37742C4.4442 3.64888 4.30906 3.96055 4.24586 4.29022C4.18266 4.61989 4.19296 4.95944 4.27603 5.28467C4.34625 5.56908 4.33449 5.86756 4.24211 6.14557C4.14973 6.42357 3.98051 6.66973 3.75403 6.85555C3.49188 7.07046 3.28077 7.34094 3.13596 7.64743C2.99114 7.95392 2.91624 8.28876 2.91667 8.62774C2.9171 8.96672 2.99285 9.30136 3.13845 9.60748C3.28404 9.91361 3.49584 10.1835 3.75853 10.3978C3.98411 10.5843 4.15231 10.8308 4.24369 11.1088C4.33507 11.3869 4.34589 11.6851 4.2749 11.969C4.19247 12.2938 4.18263 12.6328 4.24608 12.9618C4.30954 13.2908 4.44473 13.6017 4.64203 13.8725C4.82588 14.1245 5.05864 14.3369 5.3264 14.4969L2.6159 21.6242C2.59051 21.6912 2.58483 21.764 2.59955 21.8341C2.61426 21.9042 2.64874 21.9686 2.69892 22.0198C2.7491 22.0709 2.81287 22.1066 2.88269 22.1226C2.95251 22.1386 3.02546 22.1343 3.0929 22.1102L6.04528 21.0489L7.54565 23.804C7.57787 23.8633 7.62546 23.9127 7.6834 23.9471C7.74134 23.9816 7.8075 23.9998 7.8749 23.9998L7.90003 23.999C7.97163 23.9943 8.04036 23.969 8.09806 23.9264C8.15576 23.8837 8.2 23.8254 8.22553 23.7583L10.7632 17.0889C10.8994 17.0374 11.0306 16.9734 11.155 16.8977C11.4095 16.7423 11.7018 16.6601 11.9999 16.6601C12.298 16.6601 12.5904 16.7423 12.8448 16.8977C12.969 16.9724 13.0998 17.0359 13.2355 17.0867L15.7743 23.7579C15.7998 23.825 15.8441 23.8833 15.9017 23.926C15.9594 23.9687 16.0282 23.9939 16.0998 23.9987L16.1249 23.9994C16.1923 23.9994 16.2585 23.9812 16.3164 23.9468C16.3743 23.9123 16.4219 23.8629 16.4542 23.8037L17.9542 21.0485L20.9069 22.1098C20.9743 22.1339 21.0473 22.1382 21.1171 22.1222C21.1869 22.1062 21.2507 22.0705 21.3009 22.0194C21.3511 21.9683 21.3855 21.9038 21.4003 21.8337C21.415 21.7636 21.4093 21.6912 21.3839 21.6242ZM7.8149 22.7293L6.55078 20.408C6.50799 20.3295 6.4385 20.2688 6.35488 20.2369C6.27125 20.2051 6.179 20.2042 6.09478 20.2344L3.60665 21.1288L6.02315 14.7755C6.1423 14.8034 6.2634 14.8221 6.3854 14.8314C6.68065 14.8513 6.96455 14.9529 7.20535 15.1249C7.44615 15.2969 7.63435 15.5325 7.7489 15.8053C7.87711 16.1176 8.07191 16.3982 8.31971 16.6275C8.56751 16.8567 8.86235 17.0292 9.18365 17.1328C9.41546 17.2077 9.65743 17.2464 9.90103 17.2475L7.8149 22.7293ZM10.7609 16.2598C10.5618 16.3827 10.3383 16.4607 10.106 16.4883C9.87366 16.5159 9.6381 16.4924 9.41578 16.4195C9.19815 16.3495 8.99841 16.2329 8.83048 16.0778C8.66254 15.9227 8.53045 15.7328 8.4434 15.5214C8.27492 15.1186 7.99755 14.7706 7.6424 14.5165C7.28724 14.2624 6.86834 14.1123 6.43265 14.0829C6.19974 14.068 5.97297 14.0019 5.76849 13.8894C5.564 13.7769 5.38682 13.6207 5.24953 13.4319C5.11674 13.2494 5.02587 13.0398 4.98341 12.8181C4.94095 12.5964 4.94795 12.3681 5.0039 12.1494C5.10845 11.7273 5.09143 11.2842 4.9548 10.8713C4.81817 10.4584 4.56751 10.0926 4.23178 9.81617C4.05482 9.67159 3.91229 9.4894 3.81455 9.28285C3.71682 9.07629 3.66633 8.85055 3.66676 8.62204C3.66719 8.39353 3.71853 8.16798 3.81704 7.96179C3.91556 7.7556 4.05877 7.57395 4.23628 7.43005C4.57114 7.15288 4.82079 6.78667 4.95642 6.37368C5.09205 5.9607 5.10812 5.51777 5.00278 5.09605C4.9474 4.87786 4.94081 4.65016 4.98346 4.42913C5.02611 4.20811 5.11695 3.99921 5.24953 3.8173C5.38738 3.62816 5.56525 3.47176 5.77047 3.35924C5.97568 3.24671 6.20319 3.18083 6.43678 3.1663C6.87169 3.13632 7.28968 2.98593 7.644 2.73195C7.99831 2.47797 8.27497 2.13042 8.44303 1.72817C8.53006 1.51665 8.66224 1.32668 8.83033 1.17156C8.99841 1.01643 9.19834 0.899874 9.41615 0.830045C9.63855 0.757234 9.87416 0.733806 10.1065 0.761397C10.3389 0.788987 10.5625 0.866932 10.7617 0.989795C11.1348 1.21762 11.5635 1.33816 12.0007 1.33816C12.4378 1.33816 12.8665 1.21762 13.2397 0.989795C13.4388 0.866963 13.6623 0.789035 13.8946 0.761445C14.1269 0.733855 14.3624 0.757265 14.5848 0.830045C14.8025 0.900053 15.0023 1.01672 15.1704 1.1719C15.3384 1.32708 15.4705 1.51705 15.5575 1.72855C15.726 2.1313 16.0032 2.47921 16.3582 2.73328C16.7132 2.98735 17.132 3.13754 17.5675 3.16705C17.8005 3.18193 18.0273 3.24794 18.2318 3.36039C18.4364 3.47284 18.6136 3.62896 18.751 3.81767C18.8838 4.0002 18.9747 4.20978 19.0171 4.43147C19.0596 4.65317 19.0526 4.88149 18.9967 5.10017C18.8921 5.52231 18.9091 5.96542 19.0458 6.3783C19.1824 6.79118 19.4331 7.15697 19.7688 7.43342C19.9457 7.578 20.0883 7.76019 20.186 7.96674C20.2837 8.1733 20.3342 8.39904 20.3338 8.62755C20.3334 8.85607 20.282 9.08161 20.1835 9.2878C20.085 9.49399 19.9418 9.67564 19.7643 9.81955C19.4294 10.0967 19.1798 10.4629 19.0441 10.8759C18.9085 11.2889 18.8924 11.7318 18.9978 12.1535C19.0532 12.3717 19.0597 12.5994 19.0171 12.8205C18.9744 13.0415 18.8836 13.2504 18.751 13.4323C18.6131 13.6214 18.4352 13.7777 18.23 13.8901C18.0248 14.0026 17.7973 14.0684 17.5638 14.0829C17.1288 14.1129 16.7108 14.2634 16.3565 14.5174C16.0022 14.7715 15.7255 15.1191 15.5575 15.5214C15.4705 15.7329 15.3383 15.9229 15.1702 16.078C15.0021 16.2332 14.8022 16.3497 14.5844 16.4195C14.362 16.4926 14.1264 16.5161 13.894 16.4885C13.6616 16.4609 13.438 16.3829 13.2389 16.2598C12.8658 16.032 12.4371 15.9114 11.9999 15.9114C11.5627 15.9114 11.134 16.032 10.7609 16.2598ZM17.9058 20.2344C17.8216 20.2042 17.7293 20.2051 17.6457 20.2369C17.5621 20.2688 17.4926 20.3295 17.4498 20.408L16.186 22.7293L14.0999 17.2483C14.3434 17.247 14.5852 17.2081 14.8169 17.1332C15.1383 17.0295 15.4332 16.857 15.681 16.6276C15.9289 16.3983 16.1237 16.1177 16.252 15.8053C16.3668 15.5319 16.5554 15.296 16.7968 15.1239C17.0381 14.9518 17.3227 14.8504 17.6185 14.831C17.7394 14.8217 17.8594 14.8032 17.9774 14.7755L20.3939 21.1284L17.9058 20.2344Z" fill="#7086FD"/>
<path d="M17.625 8.625C17.625 7.51248 17.2951 6.42495 16.677 5.49992C16.0589 4.57489 15.1804 3.85392 14.1526 3.42818C13.1248 3.00244 11.9938 2.89104 10.9026 3.10809C9.81148 3.32513 8.8092 3.86086 8.02253 4.64753C7.23586 5.4342 6.70013 6.43648 6.48309 7.52762C6.26604 8.61876 6.37744 9.74976 6.80318 10.7776C7.22892 11.8054 7.94989 12.6839 8.87492 13.302C9.79995 13.9201 10.8875 14.25 12 14.25C13.4913 14.2483 14.9211 13.6551 15.9756 12.6006C17.0301 11.5461 17.6233 10.1163 17.625 8.625ZM12 13.5C11.0358 13.5 10.0933 13.2141 9.2916 12.6784C8.48991 12.1427 7.86507 11.3814 7.49609 10.4906C7.12711 9.59979 7.03057 8.61959 7.21867 7.67394C7.40678 6.72828 7.87108 5.85964 8.55286 5.17786C9.23464 4.49608 10.1033 4.03178 11.0489 3.84367C11.9946 3.65557 12.9748 3.75211 13.8656 4.12109C14.7564 4.49007 15.5177 5.11491 16.0534 5.9166C16.5891 6.71829 16.875 7.66082 16.875 8.625C16.8735 9.91748 16.3594 11.1566 15.4455 12.0705C14.5316 12.9844 13.2925 13.4985 12 13.5Z" fill="#7086FD"/>
<path d="M14.9822 7.38117L13.1537 7.11567L12.3362 5.45892C12.3018 5.40036 12.2527 5.35181 12.1937 5.31808C12.1347 5.28435 12.068 5.2666 12 5.2666C11.9321 5.2666 11.8654 5.28435 11.8064 5.31808C11.7474 5.35181 11.6983 5.40036 11.6639 5.45892L10.846 7.11567L9.01748 7.38117C8.94819 7.39117 8.88308 7.42037 8.82952 7.46546C8.77596 7.51055 8.7361 7.56974 8.71444 7.63631C8.69278 7.70289 8.69019 7.7742 8.70697 7.84217C8.72374 7.91014 8.75921 7.97206 8.80936 8.02092L10.1331 9.31092L9.82073 11.1315C9.80896 11.2005 9.8167 11.2713 9.84305 11.336C9.86941 11.4008 9.91334 11.4569 9.96989 11.498C10.0264 11.5391 10.0934 11.5636 10.1631 11.5687C10.2328 11.5738 10.3026 11.5593 10.3645 11.5268L11.9999 10.6673L13.6352 11.5268C13.6971 11.5593 13.7669 11.5738 13.8366 11.5687C13.9064 11.5636 13.9733 11.5391 14.0298 11.498C14.0864 11.4569 14.1303 11.4008 14.1567 11.336C14.183 11.2713 14.1907 11.2005 14.179 11.1315L13.8666 9.31054L15.1904 8.02092C15.2405 7.97206 15.276 7.91014 15.2927 7.84217C15.3095 7.7742 15.3069 7.70289 15.2853 7.63631C15.2636 7.56974 15.2237 7.51055 15.1702 7.46546C15.1166 7.42037 15.0515 7.39117 14.9822 7.38117ZM13.2021 8.91117C13.1586 8.95364 13.1261 9.00604 13.1074 9.06384C13.0886 9.12165 13.0842 9.18315 13.0945 9.24305L13.3116 10.5094L12.1742 9.91167C12.1204 9.88342 12.0606 9.86866 11.9999 9.86866C11.9391 9.86866 11.8793 9.88342 11.8255 9.91167L10.6881 10.5094L10.9056 9.24305C10.9158 9.18312 10.9113 9.1216 10.8925 9.06379C10.8737 9.00598 10.8411 8.95361 10.7976 8.91117L9.87736 8.01417L11.1486 7.82929C11.2089 7.82065 11.2661 7.79745 11.3154 7.76171C11.3646 7.72596 11.4044 7.67876 11.4314 7.62417L11.9999 6.47217L12.5687 7.62417C12.5955 7.67873 12.6352 7.72595 12.6843 7.76176C12.7335 7.79756 12.7906 7.82087 12.8507 7.82967L14.1224 8.01417L13.2021 8.91117Z" fill="#7086FD"/>
</svg>
