<svg width="25" height="26" viewBox="0 0 25 26" fill="none" xmlns="http://www.w3.org/2000/svg">
<g clip-path="url(#clip0_1742_12934)">
<path d="M12.5 5.52344C12.2305 5.52344 12.0117 5.74219 12.0117 6.01172C12.0117 6.28125 12.2305 6.5 12.5 6.5C12.7695 6.5 12.9883 6.28125 12.9883 6.01172C12.9883 5.74219 12.7695 5.52344 12.5 5.52344ZM4.39453 14.3125C4.66406 14.3125 4.88281 14.0938 4.88281 13.8242C4.88281 13.5547 4.66406 13.3359 4.39453 13.3359C4.125 13.3359 3.90625 13.5547 3.90625 13.8242C3.90625 14.0938 4.125 14.3125 4.39453 14.3125Z" fill="#262626"/>
<path d="M16.4062 0.640625C12.0104 0.640625 8.40244 3.67139 8.12339 7.48896C3.93701 7.69893 0 10.7177 0 14.8008C0 16.5071 0.675195 18.1604 1.9043 19.4704C2.14746 20.4729 1.85225 21.5354 1.11963 22.2681C1.05131 22.3363 1.00478 22.4233 0.985926 22.5181C0.967067 22.6128 0.976727 22.711 1.01368 22.8002C1.05064 22.8894 1.11323 22.9657 1.19354 23.0193C1.27385 23.073 1.36827 23.1016 1.46484 23.1016C2.85742 23.1016 4.19941 22.5555 5.19658 21.5933C6.16797 21.9243 7.4354 22.125 8.59375 22.125C12.9891 22.125 16.5966 19.095 16.8764 15.2782C17.8987 15.2328 18.9621 15.0439 19.8034 14.7573C20.8006 15.7195 22.1426 16.2656 23.5352 16.2656C23.6317 16.2657 23.7262 16.237 23.8065 16.1834C23.8868 16.1297 23.9494 16.0535 23.9863 15.9642C24.0233 15.875 24.0329 15.7768 24.0141 15.6821C23.9952 15.5874 23.9487 15.5004 23.8804 15.4321C23.1478 14.6995 22.8525 13.6369 23.0957 12.6344C24.3248 11.3245 25 9.67114 25 7.96484C25 3.72231 20.7598 0.640625 16.4062 0.640625ZM8.59375 21.1484C7.44131 21.1484 6.12813 20.9222 5.24844 20.5723C5.15635 20.5356 5.05528 20.5278 4.95866 20.5499C4.86204 20.5721 4.77445 20.6231 4.70752 20.6962C4.11797 21.3407 3.35142 21.7901 2.51616 21.9966C2.9833 21.1016 3.08985 20.0616 2.81392 19.0904C2.79182 19.0128 2.7508 18.9419 2.69453 18.884C1.58672 17.7431 0.976562 16.2929 0.976562 14.8008C0.976562 11.3599 4.46475 8.45312 8.59375 8.45312C12.4928 8.45312 15.918 11.1644 15.918 14.8008C15.918 18.301 12.6323 21.1484 8.59375 21.1484ZM22.3055 12.0481C22.2493 12.106 22.2083 12.1769 22.1861 12.2545C21.9102 13.2257 22.0167 14.2657 22.4838 15.1607C21.6486 14.9543 20.882 14.5047 20.2924 13.8603C20.2255 13.7872 20.1379 13.7362 20.0413 13.714C19.9447 13.6919 19.8437 13.6997 19.7516 13.7363C18.9892 14.0396 17.9016 14.2496 16.8749 14.3003C16.7322 12.4538 15.8111 10.7183 14.2364 9.42969H20.6055C20.8751 9.42969 21.0938 9.21108 21.0938 8.94141C21.0938 8.67173 20.8751 8.45312 20.6055 8.45312H12.7363C11.6279 7.88892 10.3834 7.55991 9.10244 7.49087C9.38301 4.21138 12.5517 1.61719 16.4062 1.61719C20.5353 1.61719 24.0234 4.52397 24.0234 7.96484C24.0234 9.45698 23.4133 10.9071 22.3055 12.0481Z" fill="#262626"/>
<path d="M12.5 13.3359H6.34766C6.07798 13.3359 5.85938 13.5545 5.85938 13.8242C5.85938 14.0939 6.07798 14.3125 6.34766 14.3125H12.5C12.7697 14.3125 12.9883 14.0939 12.9883 13.8242C12.9883 13.5545 12.7697 13.3359 12.5 13.3359ZM12.5 16.2656H4.39453C4.12485 16.2656 3.90625 16.4842 3.90625 16.7539C3.90625 17.0236 4.12485 17.2422 4.39453 17.2422H12.5C12.7697 17.2422 12.9883 17.0236 12.9883 16.7539C12.9883 16.4842 12.7697 16.2656 12.5 16.2656ZM20.6055 5.52344H14.4531C14.1834 5.52344 13.9648 5.74204 13.9648 6.01172C13.9648 6.2814 14.1834 6.5 14.4531 6.5H20.6055C20.8751 6.5 21.0938 6.2814 21.0938 6.01172C21.0938 5.74204 20.8751 5.52344 20.6055 5.52344Z" fill="#262626"/>
</g>
<defs>
<clipPath id="clip0_1742_12934">
<rect width="25" height="25" fill="white" transform="translate(0 0.640625)"/>
</clipPath>
</defs>
</svg>
