<svg width="24" height="25" viewBox="0 0 24 25" fill="none" xmlns="http://www.w3.org/2000/svg">
<g clip-path="url(#clip0_1741_62349)">
<path fill-rule="evenodd" clip-rule="evenodd" d="M8.44869 11.6307C8.41196 11.353 8.27922 11.0968 8.07347 10.9067C7.86773 10.7166 7.60195 10.6044 7.32219 10.5897H7.31219C7.10923 10.5825 6.90607 10.5835 6.70319 10.5927H6.69969C6.4218 10.6074 6.15772 10.7185 5.95286 10.9068C5.748 11.0952 5.61516 11.349 5.57719 11.6247C5.55719 11.7562 5.53819 11.8947 5.52169 12.0217C5.51668 12.059 5.50119 12.0941 5.47703 12.123C5.45287 12.1518 5.42103 12.1732 5.38519 12.1847C5.15019 12.2602 4.92019 12.3557 4.69719 12.4672L4.69419 12.4687C4.66098 12.4857 4.62361 12.493 4.58643 12.4897C4.54926 12.4863 4.5138 12.4724 4.48419 12.4497L4.16969 12.2122C3.946 12.0407 3.66909 11.9535 3.38751 11.9657C3.10593 11.978 2.83765 12.089 2.62969 12.2792C2.48119 12.4182 2.33769 12.5617 2.20169 12.7117C2.01448 12.9184 1.90541 13.1841 1.89336 13.4628C1.88131 13.7414 1.96703 14.0156 2.13569 14.2377C2.21419 14.3452 2.29919 14.4562 2.37669 14.5577C2.42369 14.6187 2.43169 14.7012 2.39569 14.7702C2.28254 14.991 2.18659 15.2202 2.10869 15.4557C2.10869 15.4567 2.10869 15.4577 2.10769 15.4592C2.09624 15.4946 2.075 15.5261 2.04642 15.55C2.01785 15.5739 1.9831 15.5892 1.94619 15.5942L1.55569 15.6482C1.27797 15.6849 1.02184 15.8177 0.831714 16.0234C0.641585 16.2292 0.529431 16.4949 0.514691 16.7747V16.7847C0.507691 16.9882 0.507691 17.1912 0.517691 17.3937V17.3967C0.532408 17.6746 0.643489 17.9387 0.831832 18.1435C1.02018 18.3484 1.27401 18.4812 1.54969 18.5192C1.68119 18.5392 1.81969 18.5582 1.94669 18.5747C2.02269 18.5847 2.08669 18.6382 2.10969 18.7112C2.18519 18.9462 2.28069 19.1762 2.39219 19.3992L2.39369 19.4022C2.41075 19.4354 2.41802 19.4728 2.41465 19.5099C2.41129 19.5471 2.39743 19.5826 2.37469 19.6122L2.13719 19.9267C1.96573 20.1504 1.87848 20.4273 1.89073 20.7089C1.90298 20.9905 2.01395 21.2587 2.20419 21.4667C2.34319 21.6152 2.48669 21.7587 2.63669 21.8947C2.84344 22.0819 3.10913 22.191 3.38778 22.203C3.66644 22.2151 3.94055 22.1294 4.16269 21.9607C4.27019 21.8822 4.38119 21.7972 4.48269 21.7197C4.51263 21.6966 4.54853 21.6826 4.58617 21.6792C4.62382 21.6759 4.66164 21.6833 4.69519 21.7007C4.91419 21.8137 5.14469 21.9092 5.38069 21.9877C5.41683 21.9987 5.44904 22.0199 5.4735 22.0487C5.49796 22.0775 5.51365 22.1127 5.51869 22.1502L5.57369 22.5407C5.6104 22.8183 5.74307 23.0744 5.94872 23.2645C6.15436 23.4546 6.42002 23.5668 6.69969 23.5817H6.70969C6.91319 23.5887 7.11619 23.5887 7.31869 23.5787H7.32169C7.59958 23.564 7.86366 23.4529 8.06852 23.2646C8.27338 23.0762 8.40622 22.8224 8.44419 22.5467C8.46419 22.4152 8.48319 22.2767 8.49969 22.1497C8.5047 22.1124 8.52019 22.0773 8.54435 22.0484C8.56851 22.0196 8.60036 21.9982 8.63619 21.9867C8.87119 21.9112 9.10119 21.8157 9.32419 21.7042L9.32719 21.7027C9.3604 21.6856 9.39777 21.6784 9.43495 21.6817C9.47213 21.6851 9.50758 21.699 9.53719 21.7217L9.85169 21.9592C10.0754 22.1307 10.3523 22.2179 10.6339 22.2057C10.9155 22.1934 11.1837 22.0824 11.3917 21.8922C11.5402 21.7532 11.6837 21.6097 11.8197 21.4597C12.0069 21.2529 12.116 20.9873 12.128 20.7086C12.1401 20.4299 12.0544 20.1558 11.8857 19.9337C11.8072 19.8262 11.7222 19.7152 11.6447 19.6137C11.6216 19.5838 11.6076 19.5479 11.6042 19.5102C11.6008 19.4726 11.6083 19.4347 11.6257 19.4012C11.7387 19.1822 11.8342 18.9517 11.9127 18.7157C11.9127 18.7147 11.9127 18.7137 11.9137 18.7122C11.9251 18.6768 11.9464 18.6453 11.975 18.6214C12.0035 18.5975 12.0383 18.5822 12.0752 18.5772L12.4657 18.5232C12.7434 18.4865 12.9995 18.3537 13.1897 18.148C13.3798 17.9422 13.492 17.6765 13.5067 17.3967V17.3867C13.5137 17.1832 13.5137 16.9802 13.5037 16.7777V16.7747C13.489 16.4968 13.3779 16.2327 13.1896 16.0279C13.0012 15.823 12.7474 15.6902 12.4717 15.6522C12.3395 15.6324 12.2072 15.6139 12.0747 15.5967C12.0374 15.5917 12.0023 15.5762 11.9734 15.552C11.9446 15.5279 11.9232 15.496 11.9117 15.4602C11.8362 15.2252 11.7407 14.9952 11.6292 14.7722L11.6277 14.7692C11.6106 14.736 11.6034 14.6986 11.6067 14.6614C11.6101 14.6243 11.624 14.5888 11.6467 14.5592L11.8842 14.2447C12.0557 14.021 12.1429 13.7441 12.1307 13.4625C12.1184 13.1809 12.0074 12.9127 11.8172 12.7047C11.6786 12.5565 11.5344 12.4137 11.3847 12.2767C11.1779 12.0895 10.9123 11.9804 10.6336 11.9684C10.3549 11.9563 10.0808 12.042 9.85869 12.2107C9.75119 12.2892 9.64019 12.3742 9.53869 12.4517C9.50875 12.4748 9.47285 12.4888 9.43521 12.4922C9.39757 12.4955 9.35975 12.4881 9.32619 12.4707C9.10541 12.3575 8.87623 12.2616 8.64069 12.1837C8.63969 12.1837 8.63869 12.1837 8.63719 12.1827C8.60175 12.1712 8.57027 12.15 8.54638 12.1214C8.5225 12.0929 8.50718 12.0581 8.50219 12.0212L8.44869 11.6307ZM7.45669 11.7617L7.51269 12.1592C7.57519 12.6137 7.89219 12.9922 8.32919 13.1342C8.51319 13.1952 8.69519 13.2707 8.87069 13.3612H8.87219C9.0739 13.4643 9.30068 13.5083 9.52631 13.4879C9.75194 13.4676 9.9672 13.3838 10.1472 13.2462L10.4622 13.0082C10.4987 12.9804 10.5438 12.9661 10.5897 12.9679C10.6356 12.9698 10.6795 12.9875 10.7137 13.0182C10.8412 13.1342 10.9637 13.2557 11.0817 13.3817C11.1125 13.4165 11.1304 13.461 11.1321 13.5075C11.1338 13.554 11.1194 13.5997 11.0912 13.6367L10.8492 13.9567C10.7135 14.136 10.6311 14.3499 10.6114 14.5739C10.5917 14.7979 10.6354 15.0229 10.7377 15.2232C10.8258 15.3989 10.9003 15.5811 10.9607 15.7682C11.0304 15.9837 11.1597 16.175 11.3335 16.3201C11.5074 16.4652 11.7187 16.5581 11.9432 16.5882L12.3347 16.6432C12.4287 16.6552 12.4997 16.7322 12.5057 16.8272C12.5137 16.9997 12.5137 17.1722 12.5082 17.3447C12.5055 17.391 12.4867 17.435 12.4552 17.469C12.4236 17.503 12.3812 17.525 12.3352 17.5312L11.9377 17.5872C11.7149 17.6179 11.5052 17.7108 11.3328 17.8553C11.1603 17.9997 11.0321 18.1897 10.9627 18.4037C10.9011 18.5898 10.8252 18.7708 10.7357 18.9452V18.9467C10.6326 19.1484 10.5886 19.3752 10.609 19.6008C10.6293 19.8264 10.7131 20.0417 10.8507 20.2217L11.0887 20.5367C11.1165 20.5732 11.1308 20.6183 11.1289 20.6642C11.1271 20.7101 11.1093 20.754 11.0787 20.7882C10.9627 20.9157 10.8412 21.0382 10.7152 21.1562C10.6804 21.1871 10.6359 21.2049 10.5894 21.2066C10.5429 21.2083 10.4972 21.1939 10.4602 21.1657L10.1402 20.9237C9.96087 20.788 9.74696 20.7056 9.52297 20.6859C9.29898 20.6662 9.07396 20.7099 8.87369 20.8122C8.69844 20.9001 8.51675 20.9744 8.33019 21.0347H8.32869C8.11316 21.1044 7.92178 21.2338 7.77667 21.4077C7.63156 21.5817 7.53865 21.7932 7.50869 22.0177L7.45369 22.4092C7.44772 22.4547 7.42607 22.4966 7.39248 22.5278C7.35889 22.559 7.31547 22.5776 7.26969 22.5802C7.09719 22.5882 6.92469 22.5882 6.75219 22.5827C6.70586 22.58 6.66192 22.5612 6.62789 22.5297C6.59387 22.4981 6.57188 22.4557 6.56569 22.4097L6.50969 22.0122C6.47895 21.7894 6.38604 21.5797 6.24163 21.4073C6.09722 21.2348 5.90715 21.1066 5.69319 21.0372C5.5071 20.9756 5.32606 20.8997 5.15169 20.8102H5.14969C4.94799 20.7071 4.7212 20.6631 4.49557 20.6835C4.26995 20.7038 4.05469 20.7876 3.87469 20.9252L3.55969 21.1632C3.52315 21.191 3.47805 21.2053 3.43214 21.2034C3.38624 21.2016 3.34241 21.1839 3.30819 21.1532C3.18069 21.0372 3.05819 20.9157 2.94019 20.7897C2.90933 20.7549 2.89152 20.7104 2.88979 20.6639C2.88805 20.6174 2.90251 20.5717 2.93069 20.5347L3.17269 20.2147C3.30836 20.0354 3.39077 19.8215 3.41049 19.5975C3.43021 19.3735 3.38644 19.1485 3.28419 18.9482C3.19633 18.7729 3.12195 18.5912 3.06169 18.4047V18.4032C2.99195 18.1877 2.86262 17.9963 2.68866 17.8512C2.51471 17.7061 2.30323 17.6132 2.07869 17.5832L1.68719 17.5282C1.64173 17.5222 1.59978 17.5006 1.56856 17.467C1.53735 17.4334 1.51883 17.39 1.51619 17.3442C1.50819 17.1717 1.50819 16.9992 1.51369 16.8267C1.51641 16.7804 1.53516 16.7364 1.56672 16.7024C1.59828 16.6684 1.64069 16.6464 1.68669 16.6402L2.08419 16.5842C2.30701 16.5534 2.51665 16.4605 2.68909 16.3161C2.86154 16.1717 2.9898 15.9816 3.05919 15.7677C3.12019 15.5837 3.19569 15.4017 3.28619 15.2262V15.2247C3.38933 15.023 3.43326 14.7962 3.41291 14.5706C3.39256 14.3449 3.30876 14.1297 3.17119 13.9497L2.93319 13.6347C2.90535 13.5982 2.89111 13.553 2.89294 13.5071C2.89476 13.4612 2.91253 13.4174 2.94319 13.3832C3.05919 13.2557 3.18069 13.1332 3.30669 13.0152C3.34152 12.9843 3.38599 12.9665 3.43249 12.9648C3.47899 12.9631 3.52466 12.9775 3.56169 13.0057L3.88169 13.2477C4.06101 13.3834 4.27492 13.4658 4.49891 13.4855C4.72291 13.5052 4.94792 13.4614 5.14819 13.3592C5.32344 13.2713 5.50514 13.197 5.69169 13.1367H5.69319C5.90872 13.0669 6.1001 12.9376 6.24521 12.7637C6.39032 12.5897 6.48323 12.3782 6.51319 12.1537L6.56819 11.7622C6.57417 11.7167 6.59581 11.6748 6.6294 11.6436C6.66299 11.6123 6.70641 11.5938 6.75219 11.5912C6.92469 11.5832 7.09719 11.5832 7.26969 11.5887C7.31602 11.5914 7.35996 11.6102 7.39399 11.6417C7.42802 11.6733 7.45051 11.7157 7.45669 11.7617Z" fill="#404040"/>
<path fill-rule="evenodd" clip-rule="evenodd" d="M14.482 19.5441C14.7816 19.4767 15.0532 19.3189 15.26 19.092C15.4669 18.8651 15.599 18.5801 15.6385 18.2756C15.66 18.1256 15.68 17.9701 15.698 17.8236C15.723 17.6251 15.864 17.4611 16.0555 17.4056C16.255 17.3526 16.4465 17.2906 16.6355 17.2206L16.6375 17.2201C16.7293 17.1856 16.8293 17.1791 16.9248 17.2015C17.0203 17.2238 17.107 17.2739 17.174 17.3456L17.4845 17.6716C17.7307 17.934 18.063 18.0993 18.4208 18.1373C18.7786 18.1753 19.1382 18.0835 19.434 17.8786L19.7335 17.6566C20.0186 17.4399 20.2166 17.1282 20.2915 16.778C20.3665 16.4279 20.3134 16.0624 20.142 15.7481C20.0707 15.6137 19.998 15.48 19.924 15.3471C19.8769 15.2613 19.8559 15.1637 19.8638 15.0662C19.8716 14.9687 19.9078 14.8757 19.968 14.7986C20.098 14.6391 20.2165 14.4756 20.328 14.3081L20.3295 14.3066C20.3835 14.2248 20.4605 14.1608 20.5509 14.1227C20.6412 14.0847 20.7407 14.0742 20.837 14.0926L21.28 14.1741C21.6334 14.2418 21.9994 14.1803 22.3112 14.0006C22.623 13.821 22.8598 13.5353 22.9785 13.1956L23.091 12.8401C23.1941 12.4972 23.171 12.1287 23.0258 11.8014C22.8806 11.4741 22.6229 11.2097 22.2995 11.0561C22.163 10.9886 22.021 10.9221 21.8875 10.8591C21.799 10.8176 21.7246 10.751 21.6736 10.6677C21.6226 10.5843 21.5971 10.4877 21.6005 10.3901C21.6115 10.1846 21.6115 9.98306 21.6035 9.78156V9.77905C21.5992 9.68119 21.624 9.58425 21.6747 9.50044C21.7255 9.41663 21.7998 9.34969 21.8885 9.30805L22.295 9.11355C22.6207 8.96056 22.8805 8.69563 23.0272 8.36706C23.1739 8.03848 23.1976 7.66815 23.094 7.32355L22.9755 6.96955C22.8575 6.63148 22.6222 6.3469 22.3123 6.16747C22.0024 5.98803 21.6385 5.92562 21.2865 5.99155C21.137 6.01755 20.983 6.04705 20.838 6.07505C20.742 6.0934 20.6427 6.08319 20.5524 6.04569C20.4621 6.00819 20.3848 5.94504 20.33 5.86405C20.2194 5.6938 20.1009 5.52879 19.975 5.36955L19.9735 5.36755C19.9124 5.29094 19.8755 5.19796 19.8672 5.10035C19.8589 5.00273 19.8797 4.90485 19.927 4.81905L20.1415 4.42305C20.3152 4.10783 20.3697 3.74066 20.2952 3.38855C20.2207 3.03644 20.022 2.72287 19.7355 2.50505L19.432 2.28805C19.1377 2.08415 18.7802 1.99241 18.4241 2.02947C18.068 2.06653 17.737 2.22993 17.491 2.49005C17.385 2.59855 17.2775 2.71305 17.1765 2.82105C17.1095 2.89225 17.0232 2.94231 16.9281 2.96505C16.8331 2.98779 16.7334 2.98223 16.6415 2.94905C16.4522 2.87595 16.2595 2.81204 16.064 2.75755L16.0615 2.75705C15.9671 2.7308 15.8825 2.6772 15.8184 2.603C15.7544 2.5288 15.7137 2.43732 15.7015 2.34005L15.642 1.89405C15.5972 1.537 15.4256 1.20795 15.1584 0.966915C14.8912 0.725881 14.5463 0.588934 14.1865 0.581055L13.8135 0.584055C13.4555 0.591841 13.1122 0.727677 12.8458 0.966922C12.5794 1.20617 12.4076 1.53297 12.3615 1.88805C12.34 2.03855 12.3205 2.19405 12.302 2.34055C12.277 2.53905 12.136 2.70305 11.9445 2.75855C11.745 2.81155 11.5535 2.87355 11.3645 2.94355L11.3625 2.94405C11.2707 2.97852 11.1707 2.98499 11.0752 2.96265C10.9797 2.94031 10.893 2.89017 10.826 2.81855L10.5155 2.49255C10.2693 2.2301 9.93705 2.06481 9.57921 2.02682C9.22138 1.98882 8.8618 2.08065 8.566 2.28555L8.2665 2.50755C7.9814 2.72423 7.78342 3.03592 7.70847 3.38608C7.63352 3.73624 7.68657 4.10166 7.858 4.41605C7.929 4.55055 8.0045 4.68805 8.076 4.81705C8.12312 4.90276 8.14406 5.00041 8.13624 5.0979C8.12842 5.19539 8.09218 5.28845 8.032 5.36555C7.902 5.52505 7.7835 5.68855 7.672 5.85605L7.6705 5.85755C7.61648 5.93933 7.53946 6.00329 7.44914 6.04138C7.35883 6.07946 7.25927 6.08996 7.163 6.07155L6.72 5.99005C6.36659 5.92231 6.00061 5.98386 5.68881 6.16349C5.37701 6.34311 5.14017 6.62884 5.0215 6.96855L4.909 7.32405C4.80586 7.66693 4.829 8.03542 4.9742 8.36271C5.11941 8.69 5.37708 8.95442 5.7005 9.10806C5.837 9.17556 5.979 9.24205 6.1125 9.30505C6.17319 9.33327 6.22746 9.3736 6.272 9.42356C6.36082 9.52094 6.48451 9.5793 6.61614 9.58596C6.74778 9.59262 6.87672 9.54703 6.97492 9.45912C7.07312 9.3712 7.13263 9.24806 7.14051 9.11649C7.14839 8.98492 7.104 8.85557 7.017 8.75656C6.88284 8.60669 6.71995 8.48529 6.538 8.39955L6.1315 8.20555C6.02354 8.15494 5.93738 8.06719 5.88873 7.95833C5.84008 7.84947 5.83219 7.72675 5.8665 7.61255C5.899 7.50605 5.9335 7.40005 5.967 7.29355C6.00756 7.18164 6.08664 7.08782 6.19008 7.02891C6.29352 6.97 6.41455 6.94984 6.5315 6.97205H6.532C6.6825 7.00105 6.8385 7.03105 6.986 7.05555C7.27458 7.10892 7.57248 7.07612 7.84253 6.96123C8.11258 6.84635 8.34282 6.65447 8.5045 6.40955C8.5985 6.26855 8.6995 6.13005 8.8075 5.99705L8.8115 5.99255C8.99585 5.76096 9.10755 5.48001 9.13256 5.18506C9.15756 4.89012 9.09474 4.59437 8.952 4.33505L8.737 3.93905C8.67945 3.83461 8.66137 3.71296 8.68606 3.59629C8.71075 3.47962 8.77657 3.37573 8.8715 3.30355C8.9605 3.23655 9.0505 3.17055 9.1405 3.10455C9.23905 3.03773 9.3582 3.00827 9.47653 3.02147C9.59486 3.03467 9.7046 3.08966 9.786 3.17655C9.891 3.28855 9.9995 3.40405 10.104 3.51105C10.3063 3.72377 10.5668 3.87223 10.8529 3.93794C11.139 4.00364 11.4381 3.98369 11.713 3.88055C11.8715 3.82205 12.0345 3.76905 12.2005 3.72505L12.206 3.72355C12.4913 3.64465 12.7468 3.48309 12.9404 3.25923C13.134 3.03536 13.257 2.75921 13.294 2.46555L13.353 2.01855C13.3678 1.9003 13.4247 1.79132 13.5132 1.71147C13.6016 1.63162 13.7158 1.58622 13.835 1.58355C13.9465 1.58155 14.058 1.58155 14.1695 1.58055C14.415 1.58855 14.619 1.77405 14.65 2.01805C14.669 2.17005 14.689 2.32805 14.7105 2.47605C14.7491 2.76705 14.8726 3.04025 15.0654 3.26156C15.2583 3.48287 15.512 3.6425 15.795 3.72055C15.9575 3.76655 16.1205 3.81955 16.2805 3.88155L16.286 3.88355C16.5633 3.9873 16.865 4.00672 17.1533 3.93937C17.4415 3.87202 17.7034 3.72091 17.906 3.50505L18.216 3.17855C18.2975 3.09153 18.4077 3.03673 18.5263 3.02415C18.6449 3.01158 18.764 3.04207 18.862 3.11005C18.9535 3.17355 19.0435 3.23905 19.134 3.30405C19.2282 3.37692 19.2933 3.48109 19.3174 3.59773C19.3415 3.71438 19.3231 3.8358 19.2655 3.94005C19.1915 4.07455 19.115 4.21405 19.0455 4.34655C18.9058 4.60463 18.8451 4.89811 18.8709 5.19044C18.8968 5.48277 19.0081 5.76103 19.191 5.99055C19.296 6.12355 19.3965 6.26205 19.4895 6.40605L19.493 6.41105C19.6563 6.65799 19.8889 6.85109 20.1617 6.96604C20.4345 7.08099 20.7352 7.11266 21.026 7.05705L21.4685 6.97505C21.5856 6.95264 21.7068 6.97302 21.8102 7.03249C21.9135 7.09196 21.992 7.18655 22.0315 7.29905C22.068 7.40455 22.1025 7.51055 22.1375 7.61655C22.1707 7.73085 22.162 7.85324 22.1129 7.96169C22.0639 8.07013 21.9777 8.1575 21.87 8.20806C21.731 8.27355 21.587 8.34105 21.4535 8.40755C21.1887 8.5341 20.9669 8.7358 20.8159 8.98752C20.665 9.23923 20.5914 9.52982 20.6045 9.82306C20.611 9.99205 20.6115 10.1636 20.602 10.3351L20.6015 10.3406C20.5884 10.6363 20.6631 10.9294 20.8162 11.1828C20.9693 11.4362 21.194 11.6386 21.462 11.7646L21.8685 11.9586C21.9765 12.0092 22.0626 12.0969 22.1113 12.2058C22.1599 12.3146 22.1678 12.4374 22.1335 12.5516C22.101 12.6581 22.0665 12.7641 22.033 12.8706C21.9924 12.9825 21.9134 13.0763 21.8099 13.1352C21.7065 13.1941 21.5854 13.2143 21.4685 13.1921C21.3175 13.1623 21.1657 13.1345 21.014 13.1086C20.7254 13.0552 20.4275 13.088 20.1575 13.2029C19.8874 13.3178 19.6572 13.5096 19.4955 13.7546C19.4015 13.8956 19.3005 14.0341 19.1925 14.1671L19.1885 14.1716C19.0042 14.4031 18.8924 14.6841 18.8674 14.979C18.8424 15.274 18.9053 15.5697 19.048 15.8291L19.263 16.2251C19.3206 16.3295 19.3386 16.4512 19.3139 16.5678C19.2892 16.6845 19.2234 16.7884 19.1285 16.8606C19.0395 16.9276 18.9495 16.9936 18.8595 17.0596C18.761 17.1264 18.6418 17.1558 18.5235 17.1426C18.4051 17.1294 18.2954 17.0744 18.214 16.9876C18.109 16.8756 18.0005 16.7601 17.896 16.6531C17.6937 16.4403 17.4332 16.2919 17.1471 16.2262C16.861 16.1605 16.5619 16.1804 16.287 16.2836C16.1285 16.3421 15.9655 16.3951 15.7995 16.4391L15.794 16.4406C15.5087 16.5195 15.2532 16.681 15.0596 16.9049C14.866 17.1287 14.743 17.4049 14.706 17.6986L14.647 18.1456C14.6343 18.247 14.5906 18.342 14.5219 18.4177C14.4531 18.4934 14.3627 18.5461 14.263 18.5686C14.136 18.5999 14.0263 18.6797 13.9575 18.7909C13.8887 18.9022 13.8662 19.0359 13.8949 19.1635C13.9235 19.2912 14.001 19.4025 14.1108 19.4736C14.2205 19.5447 14.3538 19.57 14.482 19.5441ZM7 14.5821C5.62 14.5821 4.5 15.7021 4.5 17.0821C4.5 18.4621 5.62 19.5821 7 19.5821C8.38 19.5821 9.5 18.4621 9.5 17.0821C9.5 15.7021 8.38 14.5821 7 14.5821ZM7 15.5821C7.39112 15.5922 7.76283 15.7546 8.03589 16.0348C8.30895 16.315 8.46177 16.6908 8.46177 17.0821C8.46177 17.4733 8.30895 17.8491 8.03589 18.1293C7.76283 18.4095 7.39112 18.572 7 18.5821C6.60888 18.572 6.23717 18.4095 5.96411 18.1293C5.69105 17.8491 5.53823 17.4733 5.53823 17.0821C5.53823 16.6908 5.69105 16.315 5.96411 16.0348C6.23717 15.7546 6.60888 15.5922 7 15.5821Z" fill="#404040"/>
<path fill-rule="evenodd" clip-rule="evenodd" d="M10.521 10.467C10.4673 9.978 10.5173 9.48318 10.6676 9.01477C10.818 8.54637 11.0653 8.11489 11.3936 7.74846C11.7218 7.38202 12.1235 7.08885 12.5726 6.88805C13.0217 6.68724 13.5081 6.5833 14 6.58301C15.9315 6.58301 17.5 8.15151 17.5 10.083C17.4997 10.5748 17.3959 11.0609 17.1953 11.5099C16.9947 11.9589 16.7017 12.3605 16.3356 12.6888C15.9694 13.017 15.5382 13.2645 15.0701 13.415C14.6019 13.5655 14.1074 13.6158 13.6185 13.5625C13.4881 13.5511 13.3585 13.5912 13.2574 13.6743C13.1563 13.7573 13.0918 13.8767 13.0777 14.0068C13.0636 14.1369 13.1011 14.2674 13.1821 14.3701C13.2631 14.4729 13.3812 14.5398 13.511 14.5565C13.6715 14.574 13.835 14.583 14 14.583C16.4835 14.583 18.5 12.5665 18.5 10.083C18.5 7.59951 16.4835 5.58301 14 5.58301C11.5165 5.58301 9.5 7.59951 9.5 10.083C9.5 10.2495 9.509 10.414 9.5265 10.5755C9.54089 10.7074 9.60708 10.8281 9.7105 10.9112C9.81393 10.9943 9.94612 11.0329 10.078 11.0185C10.2099 11.0041 10.3306 10.9379 10.4137 10.8345C10.4968 10.7311 10.5354 10.5989 10.521 10.467Z" fill="#404040"/>
</g>
<defs>
<clipPath id="clip0_1741_62349">
<rect width="24" height="24" fill="white" transform="translate(0 0.0830078)"/>
</clipPath>
</defs>
</svg>
