<svg width="24" height="25" viewBox="0 0 24 25" fill="none" xmlns="http://www.w3.org/2000/svg">
<g clip-path="url(#clip0_1771_5070)">
<path d="M20.0004 24.1406C20.4247 24.1406 20.8317 23.9721 21.1318 23.672C21.4318 23.3719 21.6004 22.965 21.6004 22.5406V6.63743C21.5993 6.21332 21.4308 5.80681 21.1316 5.50623L16.2348 0.609425C15.9342 0.310234 15.5277 0.141763 15.1036 0.140625L4.00039 0.140625C3.57604 0.140625 3.16908 0.309196 2.86902 0.609254C2.56896 0.909312 2.40039 1.31628 2.40039 1.74063V22.5406C2.40039 22.965 2.56896 23.3719 2.86902 23.672C3.16908 23.9721 3.57604 24.1406 4.00039 24.1406H20.0004ZM20.2348 5.74062H16.8004C16.5882 5.74062 16.3847 5.65634 16.2347 5.50631C16.0847 5.35628 16.0004 5.1528 16.0004 4.94063V1.50622L20.2348 5.74062ZM3.20039 22.5406V1.74063C3.20039 1.52845 3.28468 1.32497 3.43471 1.17494C3.58473 1.02491 3.78822 0.940625 4.00039 0.940625H15.1036C15.136 0.941842 15.1684 0.945048 15.2004 0.950225V4.94063C15.2004 5.36497 15.369 5.77194 15.669 6.072C15.9691 6.37205 16.376 6.54063 16.8004 6.54063H20.7908C20.796 6.57266 20.7992 6.60499 20.8004 6.63743V22.5406C20.8004 22.7528 20.7161 22.9563 20.5661 23.1063C20.416 23.2563 20.2126 23.3406 20.0004 23.3406H4.00039C3.78822 23.3406 3.58473 23.2563 3.43471 23.1063C3.28468 22.9563 3.20039 22.7528 3.20039 22.5406Z" fill="black"/>
<path d="M5.99961 10.5407H17.9996C18.1057 10.5407 18.2074 10.4986 18.2825 10.4236C18.3575 10.3486 18.3996 10.2468 18.3996 10.1407C18.3996 10.0346 18.3575 9.93289 18.2825 9.85788C18.2074 9.78287 18.1057 9.74072 17.9996 9.74072H5.99961C5.89352 9.74072 5.79178 9.78287 5.71677 9.85788C5.64175 9.93289 5.59961 10.0346 5.59961 10.1407C5.59961 10.2468 5.64175 10.3486 5.71677 10.4236C5.79178 10.4986 5.89352 10.5407 5.99961 10.5407ZM5.99961 13.7407H17.9996C18.1057 13.7407 18.2074 13.6986 18.2825 13.6236C18.3575 13.5486 18.3996 13.4468 18.3996 13.3407C18.3996 13.2346 18.3575 13.1329 18.2825 13.0579C18.2074 12.9829 18.1057 12.9407 17.9996 12.9407H5.99961C5.89352 12.9407 5.79178 12.9829 5.71677 13.0579C5.64175 13.1329 5.59961 13.2346 5.59961 13.3407C5.59961 13.4468 5.64175 13.5486 5.71677 13.6236C5.79178 13.6986 5.89352 13.7407 5.99961 13.7407ZM5.99961 16.9407H17.9996C18.1057 16.9407 18.2074 16.8986 18.2825 16.8236C18.3575 16.7486 18.3996 16.6468 18.3996 16.5407C18.3996 16.4346 18.3575 16.3329 18.2825 16.2579C18.2074 16.1829 18.1057 16.1407 17.9996 16.1407H5.99961C5.89352 16.1407 5.79178 16.1829 5.71677 16.2579C5.64175 16.3329 5.59961 16.4346 5.59961 16.5407C5.59961 16.6468 5.64175 16.7486 5.71677 16.8236C5.79178 16.8986 5.89352 16.9407 5.99961 16.9407ZM5.99961 20.1407H13.9996C14.1057 20.1407 14.2074 20.0986 14.2825 20.0236C14.3575 19.9486 14.3996 19.8468 14.3996 19.7407C14.3996 19.6346 14.3575 19.5329 14.2825 19.4579C14.2074 19.3829 14.1057 19.3407 13.9996 19.3407H5.99961C5.89352 19.3407 5.79178 19.3829 5.71677 19.4579C5.64175 19.5329 5.59961 19.6346 5.59961 19.7407C5.59961 19.8468 5.64175 19.9486 5.71677 20.0236C5.79178 20.0986 5.89352 20.1407 5.99961 20.1407Z" fill="black"/>
</g>
<defs>
<clipPath id="clip0_1771_5070">
<rect width="24" height="24" fill="white" transform="translate(0 0.140625)"/>
</clipPath>
</defs>
</svg>
