<svg width="24" height="24" viewBox="0 0 24 24" fill="none" xmlns="http://www.w3.org/2000/svg">
<path d="M7.46984 15.6061H19.7567C19.8438 15.6061 19.9273 15.6407 19.9889 15.7023C20.0505 15.7638 20.0851 15.8474 20.0851 15.9345C20.0851 16.0215 20.0505 16.1051 19.9889 16.1666C19.9273 16.2282 19.8438 16.2628 19.7567 16.2628H7.46984C7.42672 16.2628 7.38402 16.2543 7.34419 16.2378C7.30435 16.2213 7.26815 16.1971 7.23766 16.1666C7.20717 16.1361 7.18298 16.0999 7.16648 16.0601C7.14998 16.0203 7.14148 15.9776 7.14148 15.9345C7.14148 15.8913 7.14998 15.8486 7.16648 15.8088C7.18298 15.769 7.20717 15.7328 7.23766 15.7023C7.26815 15.6718 7.30435 15.6476 7.34419 15.6311C7.38402 15.6146 7.42672 15.6061 7.46984 15.6061ZM19.7567 18.067H7.46984C7.38276 18.067 7.29924 18.1016 7.23766 18.1632C7.17608 18.2248 7.14148 18.3083 7.14148 18.3954C7.14148 18.4825 7.17608 18.566 7.23766 18.6276C7.29924 18.6892 7.38276 18.7238 7.46984 18.7238H19.7567C19.8438 18.7238 19.9273 18.6892 19.9889 18.6276C20.0505 18.566 20.0851 18.4825 20.0851 18.3954C20.0851 18.3083 20.0505 18.2248 19.9889 18.1632C19.9273 18.1016 19.8438 18.067 19.7567 18.067ZM5.31453 8.85352H4.31384V9.78361H5.31439C5.43773 9.78361 5.55602 9.73461 5.64323 9.6474C5.73044 9.56019 5.77944 9.4419 5.77944 9.31856C5.77944 9.19522 5.73044 9.07694 5.64323 8.98973C5.55602 8.90251 5.43773 8.85352 5.31439 8.85352H5.31453ZM19.7567 20.528H7.46984C7.42675 20.528 7.38409 20.5365 7.34428 20.5529C7.30447 20.5694 7.26829 20.5936 7.23782 20.6241C7.20736 20.6545 7.18319 20.6907 7.1667 20.7305C7.15021 20.7703 7.14172 20.813 7.14172 20.8561C7.14172 20.8992 7.15021 20.9419 7.1667 20.9817C7.18319 21.0215 7.20736 21.0576 7.23782 21.0881C7.26829 21.1186 7.30447 21.1428 7.34428 21.1592C7.38409 21.1757 7.42675 21.1842 7.46984 21.1842H19.7567C19.8437 21.1842 19.9272 21.1496 19.9887 21.0881C20.0503 21.0266 20.0848 20.9431 20.0848 20.8561C20.0848 20.7691 20.0503 20.6856 19.9887 20.6241C19.9272 20.5625 19.8437 20.528 19.7567 20.528ZM8.90338 10.638V9.58594C8.90298 9.39165 8.82554 9.20546 8.68804 9.06819C8.55054 8.93093 8.36421 8.85381 8.16992 8.85375H7.43642V11.3717H8.16992C8.36442 11.3715 8.55088 11.2941 8.68839 11.1566C8.8259 11.019 8.90321 10.8325 8.90338 10.638ZM22.5378 7.04625V21.9867C22.537 22.5207 22.3244 23.0325 21.9467 23.4099C21.5691 23.7874 21.0571 23.9996 20.5231 24H6.70297C6.16906 23.9996 5.65714 23.7873 5.27953 23.4099C4.90191 23.0324 4.68945 22.5206 4.68875 21.9867V13.507H2.16125C1.9756 13.5068 1.79762 13.4329 1.66634 13.3016C1.53506 13.1703 1.4612 12.9924 1.46094 12.8067V7.41844C1.46111 7.23276 1.53495 7.05473 1.66625 6.92343C1.79754 6.79214 1.97557 6.7183 2.16125 6.71813H4.68875V2.01422C4.68933 1.48019 4.90173 0.968208 5.27935 0.590595C5.65696 0.212982 6.16894 0.000583153 6.70297 0L15.4916 0C15.5786 0.00017801 15.662 0.0347161 15.7236 0.0960937L22.4417 6.81422C22.5031 6.87586 22.5376 6.95926 22.5378 7.04625ZM5.31439 10.44C5.46167 10.44 5.6075 10.411 5.74356 10.3546C5.87963 10.2983 6.00326 10.2157 6.1074 10.1115C6.21154 10.0074 6.29415 9.88375 6.35051 9.74769C6.40687 9.61162 6.43587 9.46579 6.43587 9.31852C6.43587 9.17124 6.40687 9.02541 6.35051 8.88934C6.29415 8.75328 6.21154 8.62965 6.1074 8.52551C6.00326 8.42137 5.87963 8.33876 5.74356 8.2824C5.6075 8.22604 5.46167 8.19703 5.31439 8.19703H3.98563C3.8986 8.19703 3.81514 8.2316 3.75361 8.29314C3.69207 8.35467 3.6575 8.43813 3.6575 8.52516V11.6996C3.6575 11.7866 3.69207 11.8701 3.75361 11.9316C3.81514 11.9931 3.8986 12.0277 3.98563 12.0277C4.07265 12.0277 4.15611 11.9931 4.21764 11.9316C4.27918 11.8701 4.31375 11.7866 4.31375 11.6996V10.44L5.31439 10.44ZM21.8816 7.37484H16.4281C16.0927 7.37442 15.7712 7.24099 15.534 7.00382C15.2968 6.76665 15.1634 6.4451 15.163 6.10969V0.65625H6.70297C6.34296 0.656721 5.99783 0.799944 5.74326 1.05451C5.48869 1.30908 5.34547 1.65421 5.345 2.01422V6.71813H14.1786C14.3643 6.7183 14.5423 6.79214 14.6736 6.92343C14.8049 7.05473 14.8787 7.23276 14.8789 7.41844V12.8067C14.8786 12.9924 14.8048 13.1703 14.6735 13.3016C14.5422 13.4329 14.3642 13.5068 14.1786 13.507H5.345V21.9867C5.34562 22.3466 5.48892 22.6915 5.74348 22.9459C5.99804 23.2003 6.34309 23.3434 6.70297 23.3438H20.5231C20.8831 23.3435 21.2283 23.2005 21.4829 22.9461C21.7376 22.6917 21.8809 22.3467 21.8816 21.9867V7.37484ZM7.1082 12.0281H8.16992C8.53841 12.0277 8.89167 11.8811 9.15223 11.6206C9.41278 11.36 9.55934 11.0067 9.55976 10.6382V9.58594C9.55919 9.21762 9.41254 8.86456 9.15199 8.60423C8.89143 8.3439 8.53824 8.19756 8.16992 8.19731H7.1082C7.02118 8.19731 6.93772 8.23188 6.87618 8.29342C6.81465 8.35495 6.78008 8.43841 6.78008 8.52544V11.6999C6.78006 11.743 6.78853 11.7856 6.80501 11.8255C6.8215 11.8653 6.84566 11.9015 6.87613 11.932C6.90661 11.9625 6.94278 11.9866 6.9826 12.0031C7.02242 12.0196 7.0651 12.0281 7.1082 12.0281ZM10.5603 9.78361V8.85352H12.3541C12.4411 8.85352 12.5246 8.81895 12.5861 8.75741C12.6477 8.69588 12.6823 8.61241 12.6823 8.52539C12.6823 8.43837 12.6477 8.35491 12.5861 8.29337C12.5246 8.23184 12.4411 8.19727 12.3541 8.19727H10.2322C10.1452 8.19727 10.0617 8.23184 10.0002 8.29337C9.93863 8.35491 9.90406 8.43837 9.90406 8.52539V11.6998C9.90406 11.7429 9.91255 11.7856 9.92904 11.8254C9.94553 11.8652 9.9697 11.9014 10.0002 11.9318C10.0306 11.9623 10.0668 11.9865 10.1066 12.003C10.1464 12.0195 10.1891 12.0279 10.2322 12.0279C10.2753 12.0279 10.3179 12.0195 10.3578 12.003C10.3976 11.9865 10.4337 11.9623 10.4642 11.9318C10.4947 11.9014 10.5188 11.8652 10.5353 11.8254C10.5518 11.7856 10.5603 11.7429 10.5603 11.6998V10.44H12.0392C12.1262 10.44 12.2097 10.4055 12.2712 10.3439C12.3328 10.2824 12.3673 10.1989 12.3673 10.1119C12.3673 10.0249 12.3328 9.94144 12.2712 9.8799C12.2097 9.81837 12.1262 9.7838 12.0392 9.7838L10.5603 9.78361Z" fill="#F94852"/>
</svg>
