<svg width="25" height="24" viewBox="0 0 25 24" fill="none" xmlns="http://www.w3.org/2000/svg">
<path d="M11.3594 6H21.1094M11.3594 6C11.3594 6.39782 11.2013 6.77936 10.92 7.06066C10.6387 7.34196 10.2572 7.5 9.85938 7.5C9.46155 7.5 9.08002 7.34196 8.79871 7.06066C8.51741 6.77936 8.35938 6.39782 8.35938 6M11.3594 6C11.3594 5.60218 11.2013 5.22064 10.92 4.93934C10.6387 4.65804 10.2572 4.5 9.85938 4.5C9.46155 4.5 9.08002 4.65804 8.79871 4.93934C8.51741 5.22064 8.35938 5.60218 8.35938 6M8.35938 6H4.60938M11.3594 18H21.1094M11.3594 18C11.3594 18.3978 11.2013 18.7794 10.92 19.0607C10.6387 19.342 10.2572 19.5 9.85938 19.5C9.46155 19.5 9.08002 19.342 8.79871 19.0607C8.51741 18.7794 8.35938 18.3978 8.35938 18M11.3594 18C11.3594 17.6022 11.2013 17.2206 10.92 16.9393C10.6387 16.658 10.2572 16.5 9.85938 16.5C9.46155 16.5 9.08002 16.658 8.79871 16.9393C8.51741 17.2206 8.35938 17.6022 8.35938 18M8.35938 18H4.60938M17.3594 12H21.1094M17.3594 12C17.3594 12.3978 17.2013 12.7794 16.92 13.0607C16.6387 13.342 16.2572 13.5 15.8594 13.5C15.4616 13.5 15.08 13.342 14.7987 13.0607C14.5174 12.7794 14.3594 12.3978 14.3594 12M17.3594 12C17.3594 11.6022 17.2013 11.2206 16.92 10.9393C16.6387 10.658 16.2572 10.5 15.8594 10.5C15.4616 10.5 15.08 10.658 14.7987 10.9393C14.5174 11.2206 14.3594 11.6022 14.3594 12M14.3594 12H4.60938" stroke="#606060" stroke-width="1.5" stroke-linecap="round" stroke-linejoin="round"/>
</svg>
