<svg width="24" height="25" viewBox="0 0 24 25" fill="none" xmlns="http://www.w3.org/2000/svg">
<path d="M14.4503 12.8939C11.2813 12.8939 8.70312 10.3157 8.70312 7.14667C8.70312 3.97765 11.2813 1.39941 14.4503 1.39941C17.6193 1.39941 20.1975 3.9776 20.1975 7.14667C20.1975 10.3157 17.6193 12.8939 14.4503 12.8939ZM14.4503 1.93275C11.5754 1.93275 9.23646 4.27168 9.23646 7.14667C9.23646 10.0217 11.5754 12.3605 14.4503 12.3605C17.3253 12.3605 19.6642 10.0216 19.6642 7.14667C19.6642 4.27173 17.3253 1.93275 14.4503 1.93275Z" fill="black"/>
<path d="M14.4505 11.1402C12.2485 11.1402 10.457 9.34873 10.457 7.14676C10.457 4.94473 12.2485 3.15332 14.4505 3.15332C16.6524 3.15332 18.4439 4.94479 18.4439 7.14676C18.4439 9.34873 16.6524 11.1402 14.4505 11.1402ZM14.4505 3.6866C12.5426 3.6866 10.9904 5.23881 10.9904 7.14671C10.9904 9.0546 12.5426 10.6068 14.4505 10.6068C16.3584 10.6068 17.9106 9.0546 17.9106 7.14671C17.9106 5.23881 16.3584 3.6866 14.4505 3.6866Z" fill="black"/>
<path d="M14.4056 9.61608C14.1378 9.61631 13.8758 9.53776 13.6522 9.39021C13.4287 9.24267 13.2535 9.03264 13.1484 8.78626C13.1206 8.72123 13.1198 8.64781 13.1461 8.58216C13.1725 8.51651 13.2238 8.46401 13.2888 8.43621C13.3539 8.40841 13.4273 8.40758 13.4929 8.43391C13.5586 8.46024 13.6111 8.51157 13.6389 8.57661C13.703 8.72688 13.8098 8.85499 13.9461 8.94498C14.0825 9.03498 14.2423 9.08288 14.4056 9.08274C14.8654 9.08274 15.2395 8.70866 15.2395 8.24888C15.2395 7.79688 14.8779 7.41501 14.4499 7.41501C13.7328 7.41501 13.127 6.78893 13.127 6.04786C13.127 5.294 13.7403 4.68066 14.4942 4.68066C14.762 4.68043 15.024 4.75898 15.2475 4.90652C15.4711 5.05407 15.6462 5.26411 15.7513 5.51048C15.7791 5.57552 15.7799 5.64893 15.7536 5.71458C15.7273 5.78023 15.6759 5.83273 15.6109 5.86053C15.5459 5.88833 15.4724 5.88916 15.4068 5.86283C15.3411 5.8365 15.2886 5.78517 15.2608 5.72013C15.1968 5.56986 15.0899 5.44175 14.9536 5.35176C14.8173 5.26176 14.6575 5.21385 14.4941 5.214C14.0343 5.214 13.6603 5.58808 13.6603 6.04786C13.6603 6.49986 14.0218 6.88168 14.4499 6.88168C15.1669 6.88168 15.7727 7.50776 15.7727 8.24888C15.7727 9.0028 15.1595 9.61608 14.4056 9.61608Z" fill="black"/>
<path d="M14.4944 5.21407C14.4237 5.21407 14.3559 5.18598 14.3059 5.13597C14.2559 5.08596 14.2278 5.01813 14.2278 4.94741V4.49274C14.2278 4.42202 14.2559 4.35419 14.3059 4.30418C14.3559 4.25417 14.4237 4.22607 14.4944 4.22607C14.5652 4.22607 14.633 4.25417 14.683 4.30418C14.733 4.35419 14.7611 4.42202 14.7611 4.49274V4.94741C14.7611 5.01813 14.733 5.08596 14.683 5.13597C14.633 5.18598 14.5652 5.21407 14.4944 5.21407ZM14.4944 10.0672C14.4237 10.0672 14.3559 10.0392 14.3059 9.98914C14.2559 9.93913 14.2278 9.8713 14.2278 9.80058V9.34591C14.2278 9.27519 14.2559 9.20736 14.3059 9.15735C14.3559 9.10734 14.4237 9.07925 14.4944 9.07925C14.5652 9.07925 14.633 9.10734 14.683 9.15735C14.733 9.20736 14.7611 9.27519 14.7611 9.34591V9.80058C14.7611 9.8713 14.733 9.93913 14.683 9.98914C14.633 10.0392 14.5652 10.0672 14.4944 10.0672ZM12.923 22.9584C11.1911 22.9586 8.73347 22.3298 5.87512 19.7843L3.28824 21.2779C3.22698 21.3132 3.15422 21.3228 3.0859 21.3045C3.01759 21.2862 2.95935 21.2415 2.92398 21.1803L0.262269 16.5701C0.226923 16.5088 0.217348 16.436 0.235651 16.3677C0.253953 16.2994 0.298634 16.2412 0.359869 16.2058L6.76419 12.5083C6.77013 12.5049 6.7762 12.5017 6.78238 12.4987C9.0939 11.392 9.91459 12.4904 10.9537 13.881C11.8011 15.0151 13.4946 15.5847 14.4287 15.8234C15.6209 16.128 16.2118 16.6606 16.5038 17.1299L20.7395 14.6844C21.7144 14.1216 22.9651 14.4568 23.5278 15.4315C23.7994 15.902 23.8711 16.4518 23.7296 16.9798C23.5881 17.5077 23.2511 17.9481 22.7806 18.2197L15.608 22.3608C15.5179 22.4132 14.5349 22.9583 12.923 22.9584ZM5.90942 19.1899C5.97422 19.1899 6.03848 19.2134 6.08883 19.2592C8.28062 21.2514 10.5609 22.3456 12.6832 22.4234C14.3421 22.4847 15.3254 21.9087 15.3349 21.9029C15.337 21.9016 15.3392 21.9003 15.3414 21.899L22.5139 17.7579C22.8611 17.5575 23.1098 17.2322 23.2144 16.8418C23.319 16.4514 23.2663 16.0453 23.0659 15.6982C22.8655 15.3511 22.5402 15.1024 22.1498 14.9978C21.7594 14.8931 21.3533 14.946 21.0062 15.1463L16.7232 17.619C16.7316 17.648 16.7389 17.6759 16.7452 17.7027C16.9043 18.3749 16.6623 19.0883 16.1137 19.5646C15.4793 20.1155 14.5768 20.2405 13.6976 19.8996L10.305 18.8545C10.2374 18.8337 10.1809 18.7869 10.1478 18.7243C10.1147 18.6618 10.1079 18.5888 10.1287 18.5212C10.139 18.4877 10.1557 18.4566 10.1781 18.4296C10.2004 18.4026 10.2278 18.3802 10.2588 18.3639C10.2897 18.3475 10.3236 18.3374 10.3585 18.3341C10.3934 18.3308 10.4285 18.3345 10.462 18.3448L13.8638 19.3927C13.8702 19.3946 13.8764 19.3968 13.8826 19.3992C14.5766 19.671 15.2798 19.5823 15.7641 19.1618C16.1624 18.816 16.3394 18.3039 16.2262 17.8254C16.2095 17.7551 16.1872 17.6861 16.1595 17.6193C16.1544 17.6091 16.1499 17.5985 16.1461 17.5877C15.8953 17.0217 15.2501 16.5837 14.2966 16.34C13.2944 16.0839 11.4719 15.4655 10.5264 14.2001C9.42046 12.7201 8.85347 12.1013 7.02179 12.9752L0.857469 16.5343L3.25251 20.6827L5.77614 19.2256C5.81665 19.2022 5.86262 19.1898 5.90942 19.1899Z" fill="black"/>
<path d="M5.90912 19.723C5.86226 19.7231 5.8162 19.7108 5.77561 19.6874C5.73502 19.664 5.70132 19.6302 5.67792 19.5896L3.01621 14.9795C2.9987 14.9492 2.98733 14.9157 2.98275 14.881C2.97818 14.8463 2.98049 14.811 2.98955 14.7772C2.99862 14.7433 3.01425 14.7116 3.03558 14.6838C3.0569 14.6561 3.08348 14.6327 3.11381 14.6152C3.14414 14.5977 3.17762 14.5863 3.21234 14.5818C3.24706 14.5772 3.28234 14.5795 3.31617 14.5886C3.35 14.5976 3.38171 14.6133 3.40949 14.6346C3.43727 14.6559 3.46058 14.6825 3.47808 14.7128L6.13979 19.323C6.16321 19.3635 6.17556 19.4095 6.17558 19.4563C6.17561 19.5031 6.16332 19.549 6.13994 19.5896C6.11656 19.6301 6.08292 19.6638 6.04241 19.6872C6.00189 19.7107 5.95592 19.723 5.90912 19.723ZM14.3873 16.3548C14.3285 16.3549 14.2714 16.3356 14.2247 16.2999C14.1781 16.2642 14.1445 16.214 14.1293 16.1573C14.114 16.1005 14.118 16.0403 14.1405 15.986C14.163 15.9318 14.2028 15.8864 14.2537 15.8571L18.3943 13.4665C19.2142 12.9931 20.2664 13.2751 20.7398 14.095C20.9187 14.4048 20.9745 14.7791 20.9671 15.0261C20.965 15.0954 20.936 15.1611 20.8863 15.2094C20.8366 15.2577 20.77 15.2847 20.7007 15.2848L20.6925 15.2847C20.6575 15.2836 20.6231 15.2757 20.5911 15.2613C20.5592 15.247 20.5304 15.2264 20.5064 15.201C20.4824 15.1755 20.4636 15.1455 20.4512 15.1127C20.4388 15.08 20.4329 15.0451 20.434 15.0101C20.439 14.8444 20.4011 14.575 20.278 14.3617C19.9516 13.7965 19.2263 13.6022 18.661 13.9285L14.5204 16.319C14.48 16.3424 14.434 16.3548 14.3873 16.3548Z" fill="black"/>
</svg>
