<svg width="38" height="38" viewBox="0 0 38 38" fill="none" xmlns="http://www.w3.org/2000/svg">
<path d="M11.696 19.7566C11.6719 19.7566 11.6478 19.7558 11.6234 19.7544L1.16156 19.1011C0.965817 19.089 0.77635 19.0273 0.610901 18.922C0.445452 18.8167 0.30943 18.6712 0.215571 18.4989C0.121712 18.3267 0.0730835 18.1335 0.0742389 17.9374C0.0753943 17.7413 0.126295 17.5487 0.222177 17.3776C0.276951 17.2796 1.59552 14.9547 4.10649 12.9271C7.4997 10.1873 11.4443 9.29873 15.5135 10.3575C15.6803 10.4009 15.8352 10.481 15.9671 10.5918C16.0991 10.7026 16.2046 10.8414 16.2762 10.9982C16.3477 11.1549 16.3834 11.3256 16.3807 11.4979C16.3779 11.6702 16.3369 11.8397 16.2604 11.9941L12.7347 19.1119C12.6388 19.3054 12.4907 19.4683 12.3072 19.5822C12.1237 19.6961 11.912 19.7565 11.696 19.7566Z" fill="#FF5B5B"/>
<path d="M20.1298 38.0001C19.8349 38 19.551 37.8876 19.3361 37.6856C19.1211 37.4836 18.9912 37.2073 18.9728 36.9129L18.3199 26.451C18.3057 26.2231 18.359 25.996 18.4733 25.7983C18.5876 25.6007 18.7577 25.4411 18.9623 25.3397L26.0801 21.8137C26.2345 21.7373 26.404 21.6962 26.5763 21.6935C26.7486 21.6908 26.9193 21.7265 27.076 21.7981C27.2328 21.8696 27.3717 21.9751 27.4825 22.1071C27.5933 22.239 27.6733 22.3941 27.7166 22.5609C28.7757 26.6301 27.8871 30.5747 25.1472 33.9679C23.1198 36.4789 20.7946 37.7972 20.6966 37.8522C20.5234 37.9492 20.3283 38.0001 20.1298 38.0001Z" fill="#FF193D"/>
<path d="M36.2144 9.35609L28.7183 1.86C28.5708 1.71258 28.3863 1.60765 28.1842 1.55627C27.9821 1.50488 27.7699 1.50894 27.57 1.56802C22.5517 3.0524 18.4324 5.38042 15.3254 8.48722C14.6774 9.13544 14.0549 9.83792 13.4756 10.5748C11.7912 12.7165 10.3842 15.2486 9.29412 18.1011C8.5998 19.9192 8.03448 21.8668 7.6138 23.8899C6.87911 27.4237 6.8397 29.9564 6.83822 30.0625C6.83636 30.2172 6.86544 30.3706 6.92376 30.5139C6.98207 30.6571 7.06843 30.7872 7.17777 30.8966C7.39526 31.114 7.69017 31.2361 7.99766 31.2361H8.01184C8.11827 31.235 10.651 31.1955 14.1845 30.4609C16.2075 30.0402 18.1552 29.4749 19.9735 28.7802C22.8258 27.6901 25.3579 26.2835 27.4989 24.5993C28.2364 24.0198 28.9389 23.3973 29.5872 22.749C32.6942 19.642 35.0222 15.5226 36.5063 10.5044C36.5655 10.3044 36.5696 10.0922 36.5182 9.89012C36.4668 9.68802 36.3618 9.50352 36.2144 9.35609Z" fill="#E1F1FA"/>
<path d="M14.9769 28.7136L9.36052 23.0973C8.94593 22.6827 8.28694 22.643 7.82545 23.0048C7.46977 23.2835 7.13112 23.5832 6.81133 23.9024C2.90349 27.8102 2.78259 33.8651 2.77939 34.1209C2.77738 34.2756 2.80639 34.4291 2.86471 34.5724C2.92303 34.7157 3.00948 34.8458 3.11895 34.9552C3.22651 35.0629 3.35425 35.1484 3.49488 35.2067C3.6355 35.265 3.78624 35.295 3.93847 35.295C3.94344 35.295 3.94834 35.295 3.95331 35.2947C4.209 35.2915 10.2642 35.1706 14.1717 31.2628C14.4909 30.943 14.7906 30.6043 15.0693 30.2487C15.4311 29.7872 15.3915 29.1282 14.9769 28.7136Z" fill="#FFF261"/>
<path d="M9.38383 17.8691L5.93815 21.3151C5.83044 21.4227 5.74499 21.5505 5.6867 21.6911C5.6284 21.8317 5.59839 21.9824 5.59839 22.1347C5.59839 22.2869 5.6284 22.4376 5.6867 22.5783C5.74499 22.7189 5.83044 22.8467 5.93815 22.9542L15.1201 32.1362C15.3372 32.3537 15.6321 32.4757 15.9397 32.4757C16.2474 32.4757 16.5419 32.3537 16.7593 32.1362L20.2049 28.6905L9.38383 17.8691Z" fill="#1B3B6B"/>
<path d="M24.4256 17.1854C23.481 17.1854 22.5927 16.8175 21.9248 16.1496C20.5459 14.7707 20.5459 12.5273 21.9248 11.1482C22.5927 10.4802 23.481 10.1123 24.4256 10.1123C25.3701 10.1123 26.2585 10.4802 26.9264 11.1482C27.5944 11.8161 27.9623 12.7042 27.9623 13.649C27.9623 14.5936 27.5944 15.4816 26.9264 16.1496C26.2585 16.8175 25.3701 17.1854 24.4256 17.1854Z" fill="#06CCAB"/>
<path d="M24.4253 18.3191C23.1777 18.3191 22.005 17.8332 21.123 16.9512C19.3021 15.1303 19.3021 12.1673 21.123 10.3464C22.005 9.46443 23.178 8.97852 24.4253 8.97852C25.6727 8.97852 26.8455 9.46443 27.7277 10.3464C28.6099 11.2286 29.0955 12.4013 29.0955 13.6488C29.0955 14.8963 28.6099 16.0691 27.7277 16.9512C26.8455 17.8332 25.6727 18.3191 24.4253 18.3191ZM24.4253 11.297C23.7973 11.297 23.2064 11.5417 22.7622 11.9859C21.8456 12.9029 21.8456 14.3948 22.7622 15.3118C23.2064 15.756 23.7973 16.0006 24.4253 16.0006C25.0534 16.0006 25.6441 15.756 26.0882 15.3118C26.5323 14.8677 26.777 14.2771 26.777 13.6488C26.777 13.0205 26.5323 12.43 26.0882 11.9859C25.6441 11.5417 25.0534 11.297 24.4253 11.297Z" fill="#1B3B6B"/>
<path d="M37.7348 0.33969C37.5137 0.118518 37.2109 -0.0058726 36.9002 0.000213333C36.7282 0.00221724 32.6302 0.0712407 27.5701 1.56779L36.5065 10.5042C38.003 5.44394 38.072 1.34602 38.074 1.17413C38.0761 1.01944 38.0471 0.865919 37.9888 0.722606C37.9306 0.579293 37.8442 0.449095 37.7348 0.33969Z" fill="#FF5B5B"/>
<path d="M36.2143 9.35547L32.4663 5.60742L7.17773 30.896C7.28537 31.0036 7.41314 31.089 7.55377 31.1472C7.6944 31.2055 7.84512 31.2355 7.99733 31.2355H8.0118C8.11794 31.2343 10.6507 31.1949 14.1844 30.4602C16.2075 30.0396 18.1548 29.4742 19.9732 28.7796C22.8257 27.6895 25.3578 26.2828 27.4989 24.5987C28.2361 24.0192 28.9389 23.3967 29.5869 22.7484C32.6939 19.6414 35.0219 15.522 36.506 10.5038C36.5653 10.3038 36.5695 10.0916 36.5181 9.8895C36.4668 9.68739 36.3618 9.50288 36.2143 9.35547Z" fill="#CDEBFC"/>
<path d="M14.9769 28.7134L12.1687 25.9053L3.11865 34.955V34.9553C3.33616 35.1726 3.63105 35.2948 3.93855 35.2948H3.95302C4.209 35.2916 10.2639 35.1704 14.1717 31.2626C14.4909 30.9429 14.7905 30.6042 15.069 30.2485C15.4312 29.787 15.3918 29.128 14.9769 28.7134Z" fill="#FDBF00"/>
<path d="M14.7946 23.2793L10.5291 27.5449L15.1202 32.136C15.3376 32.3534 15.6324 32.4754 15.9398 32.4754C16.2472 32.4754 16.542 32.3534 16.7594 32.136L20.205 28.6901L14.7946 23.2793Z" fill="#001035"/>
<path d="M26.9265 11.1484H26.9262L21.9248 16.1498H21.9251C22.5928 16.8178 23.4811 17.1857 24.4257 17.1857C25.3702 17.1857 26.2585 16.8178 26.9265 16.1498C27.5944 15.4818 27.9624 14.5938 27.9624 13.6492C27.9621 12.7047 27.5944 11.8164 26.9265 11.1484Z" fill="#1CADB5"/>
<path d="M27.7277 10.3467L26.0883 11.9862C26.5324 12.4303 26.7771 13.0209 26.7771 13.6491C26.7771 14.2774 26.5324 14.8679 26.0883 15.3121C25.6441 15.7563 25.0536 16.0009 24.4253 16.0009C23.7971 16.0009 23.2065 15.7563 22.7623 15.3121V15.3118L21.1228 16.9513V16.9516C22.005 17.8335 23.1778 18.3194 24.4253 18.3194C25.6729 18.3194 26.8455 17.8335 27.7277 16.9516C28.6097 16.0694 29.0956 14.8967 29.0956 13.6491C29.0956 12.4016 28.6097 11.2289 27.7277 10.3467Z" fill="#001035"/>
<path d="M37.7346 0.339844L32.0383 6.03643L36.5065 10.5046C38.0031 5.44439 38.0721 1.34647 38.0741 1.17458C38.0761 1.01983 38.0471 0.866235 37.9888 0.722869C37.9305 0.579503 37.8441 0.449267 37.7346 0.339844Z" fill="#FF193D"/>
</svg>
