<svg width="16" height="16" viewBox="0 0 16 16" fill="none" xmlns="http://www.w3.org/2000/svg">
<path d="M13.9987 2.66641C13.8219 2.66641 13.6523 2.73665 13.5273 2.86167C13.4023 2.9867 13.332 3.15627 13.332 3.33308V4.00241C12.7106 3.17471 11.9054 2.50274 10.9798 2.0395C10.0542 1.57625 9.03371 1.33442 7.9987 1.33308C6.486 1.32606 5.01638 1.83649 3.83371 2.77967C2.65103 3.72285 1.82642 5.04207 1.4967 6.51841C1.45745 6.69089 1.48832 6.8719 1.58252 7.02162C1.67673 7.17133 1.82655 7.27749 1.99903 7.31675C2.17151 7.356 2.35252 7.32512 2.50223 7.23092C2.65195 7.13671 2.75811 6.98689 2.79736 6.81441C3.06098 5.63333 3.7206 4.57792 4.66673 3.8234C5.61285 3.06888 6.78857 2.66063 7.9987 2.66641C9.92203 2.66641 11.6667 3.70975 12.608 5.33308H11.332C11.1552 5.33308 10.9857 5.40332 10.8606 5.52834C10.7356 5.65337 10.6654 5.82293 10.6654 5.99975C10.6654 6.17656 10.7356 6.34613 10.8606 6.47115C10.9857 6.59617 11.1552 6.66641 11.332 6.66641H13.9987C14.1755 6.66641 14.3451 6.59617 14.4701 6.47115C14.5951 6.34613 14.6654 6.17656 14.6654 5.99975V3.33308C14.6654 3.15627 14.5951 2.9867 14.4701 2.86167C14.3451 2.73665 14.1755 2.66641 13.9987 2.66641ZM1.9987 13.3331C2.17551 13.3331 2.34508 13.2628 2.4701 13.1378C2.59513 13.0128 2.66536 12.8432 2.66536 12.6664V11.9831C3.28182 12.8171 4.08571 13.4944 5.01214 13.9605C5.93858 14.4267 6.96162 14.6685 7.9987 14.6664C9.5114 14.6734 10.981 14.163 12.1637 13.2198C13.3464 12.2766 14.171 10.9574 14.5007 9.48108C14.54 9.3086 14.5091 9.12759 14.4149 8.97788C14.3207 8.82816 14.1708 8.722 13.9984 8.68274C13.8259 8.64349 13.6449 8.67437 13.4952 8.76857C13.3454 8.86278 13.2393 9.0126 13.2 9.18508C12.9364 10.3662 12.2768 11.4216 11.3307 12.1761C10.3845 12.9306 9.20883 13.3389 7.9987 13.3331C6.0747 13.3331 4.3467 12.3144 3.39336 10.6664H4.66536C4.84218 10.6664 5.01174 10.5962 5.13677 10.4711C5.26179 10.3461 5.33203 10.1766 5.33203 9.99975C5.33203 9.82293 5.26179 9.65337 5.13677 9.52834C5.01174 9.40332 4.84218 9.33308 4.66536 9.33308H1.9987C1.82189 9.33308 1.65232 9.40332 1.52729 9.52834C1.40227 9.65337 1.33203 9.82293 1.33203 9.99975V12.6664C1.33203 12.8432 1.40227 13.0128 1.52729 13.1378C1.65232 13.2628 1.82189 13.3331 1.9987 13.3331Z" fill="#404040"/>
</svg>
