<svg width="38" height="38" viewBox="0 0 38 38" fill="none" xmlns="http://www.w3.org/2000/svg">
<path d="M18.978 0.00195313C18.2969 0.00195313 17.6162 0.0385703 16.939 0.111567C16.3182 0.174973 15.7051 0.27896 15.1002 0.405138C14.9828 0.429714 14.8657 0.4555 14.7489 0.482494C11.1849 1.29394 7.93059 3.11616 5.37618 5.73064C5.13742 5.97542 4.90486 6.22617 4.67871 6.48264C-2.22149 14.4043 -1.39341 26.4198 6.52835 33.32C14.1124 39.9261 25.5283 39.4865 32.582 32.3169C32.8209 32.0724 33.0535 31.8216 33.2794 31.5649C36.3246 28.0971 38.0027 23.6389 38 19.0238C38 8.51822 29.4836 0.00187387 18.978 0.00195313ZM6.22138 6.68174C6.32157 6.57775 6.42555 6.4782 6.52764 6.37739C6.64557 6.26135 6.76287 6.14468 6.88335 6.03245C6.98923 5.93354 7.09829 5.83843 7.20672 5.74205C7.32909 5.63363 7.45083 5.5252 7.57638 5.42058C7.6867 5.32738 7.8002 5.23797 7.91306 5.14794C8.03988 5.04649 8.16669 4.94504 8.29731 4.84739C8.41269 4.7608 8.52959 4.67624 8.64795 4.59376C8.7792 4.49992 8.91108 4.40354 9.04487 4.31604C9.16475 4.23524 9.28565 4.15598 9.40755 4.07827C9.54254 3.99125 9.67909 3.90669 9.81716 3.82464C10.0795 3.66807 10.3452 3.51733 10.6142 3.37256C10.741 3.30495 10.8678 3.23877 10.9946 3.1741C11.1393 3.10138 11.2849 3.03057 11.4315 2.96168C11.5583 2.90145 11.6902 2.84121 11.8208 2.78415C11.9698 2.72074 12.1207 2.65733 12.2716 2.59393C12.4029 2.54003 12.5335 2.4874 12.666 2.43668C12.8195 2.37835 12.9748 2.32382 13.1301 2.26929C13.2628 2.22242 13.396 2.17698 13.5296 2.13296C13.6875 2.08224 13.8466 2.03532 14.0064 1.98903C14.1402 1.95035 14.2727 1.91041 14.4071 1.87426C14.4585 1.86095 14.5099 1.85017 14.5612 1.83685C12.6844 3.65927 11.2916 5.92093 10.5089 8.41717C9.00397 8.02026 7.54707 7.45957 6.16432 6.74514C6.18524 6.72295 6.203 6.70076 6.22138 6.68174ZM5.3096 7.70258C6.8327 8.52784 8.44783 9.17057 10.1215 9.61745C9.30101 12.4704 8.87037 15.4213 8.84134 18.3897H1.23891C1.37703 14.4753 2.80855 10.717 5.3096 7.70258ZM5.3096 30.345C2.8087 27.3305 1.3772 23.5723 1.23891 19.6579H8.84134C8.87033 22.6263 9.30097 25.5772 10.1215 28.4301C8.44788 28.8771 6.83276 29.5199 5.3096 30.345ZM14.4033 36.1758C14.2753 36.1435 14.1427 36.1017 14.0109 36.063C13.8504 36.0161 13.6894 35.9691 13.5309 35.9178C13.3971 35.8747 13.2652 35.8284 13.1333 35.7821C12.9771 35.7286 12.8217 35.6726 12.6673 35.6141C12.5358 35.5637 12.405 35.5117 12.2748 35.4581C12.1232 35.3947 11.9717 35.3313 11.8214 35.2679C11.692 35.2108 11.5632 35.152 11.4353 35.0916C11.2876 35.0219 11.1405 34.9508 10.9914 34.8773C10.8646 34.8139 10.7378 34.7505 10.611 34.6814C10.4677 34.6046 10.3257 34.526 10.1836 34.4449C10.0568 34.3745 9.93636 34.3022 9.81399 34.2286C9.67484 34.1448 9.53702 34.0588 9.40058 33.9706C9.28011 33.8939 9.15963 33.8159 9.04107 33.736C8.90597 33.644 8.77217 33.5502 8.6397 33.4544C8.52367 33.3714 8.40763 33.2883 8.2935 33.2008C8.16264 33.1015 8.03327 33.0003 7.90546 32.8971C7.79323 32.8077 7.68163 32.7189 7.57194 32.627C7.44513 32.5217 7.32275 32.412 7.19974 32.303C7.09195 32.2072 6.98353 32.1128 6.87827 32.0151C6.75717 31.9023 6.63987 31.785 6.52193 31.6689C6.41985 31.5681 6.31586 31.4686 6.21568 31.3652C6.19729 31.3456 6.17953 31.3253 6.16115 31.3062C7.54382 30.5915 9.00074 30.0306 10.5058 29.6336C11.2886 32.1297 12.6813 34.3914 14.5581 36.2139C14.5067 36.2006 14.4547 36.1898 14.4033 36.1758ZM18.344 36.7275C15.6309 36.342 13.2525 33.5102 11.7561 29.3286C13.9196 28.8442 16.1272 28.5843 18.344 28.5531V36.7275ZM18.344 27.285C15.9925 27.3159 13.6508 27.5952 11.3579 28.1182C10.5618 25.3673 10.1418 22.5214 10.1095 19.6579H18.344V27.285ZM18.344 18.3897H10.1095C10.1417 15.5262 10.5617 12.6802 11.3579 9.92941C13.6508 10.4523 15.9925 10.7316 18.344 10.7626V18.3897ZM18.344 9.49444C16.1272 9.46352 13.9195 9.20366 11.7561 8.71898C13.2525 4.53733 15.6309 1.7056 18.344 1.32009V9.49444ZM32.6466 7.70258C35.1475 10.7171 36.579 14.4753 36.7173 18.3897H29.1149C29.0859 15.4213 28.6553 12.4704 27.8347 9.61745C29.5083 9.17037 31.1234 8.52765 32.6466 7.70258ZM23.5478 1.87109C23.681 1.90407 23.8135 1.94591 23.9454 1.98459C24.1058 2.03151 24.2668 2.07843 24.4254 2.12979C24.5591 2.17291 24.691 2.2192 24.8229 2.26548C24.9789 2.31938 25.1349 2.37454 25.289 2.43351C25.4208 2.4836 25.5508 2.53623 25.6814 2.58949C25.833 2.65289 25.9845 2.7163 26.1348 2.77971C26.2641 2.83677 26.3929 2.8955 26.5209 2.95598C26.6687 3.02572 26.8158 3.09674 26.9648 3.17029C27.0916 3.2337 27.2184 3.2971 27.3452 3.36622C27.4885 3.44294 27.6306 3.52156 27.7726 3.60272C27.8994 3.6731 28.0199 3.74539 28.1422 3.81894C28.2814 3.90279 28.4192 3.98882 28.5556 4.077C28.6761 4.15372 28.7966 4.23171 28.9152 4.31161C29.05 4.40336 29.1836 4.497 29.3159 4.5925C29.4329 4.67534 29.5488 4.75989 29.6634 4.84612C29.794 4.9444 29.9221 5.04649 30.0508 5.1492C30.1624 5.23797 30.2746 5.32674 30.3843 5.41932C30.5111 5.52457 30.6335 5.63426 30.7565 5.74332C30.8643 5.83907 30.9727 5.93354 31.078 6.03119C31.1991 6.14405 31.3164 6.26135 31.4343 6.37739C31.5364 6.4782 31.6404 6.57775 31.7406 6.6811C31.7589 6.70076 31.7767 6.72105 31.7951 6.74007C30.4124 7.45483 28.9555 8.01573 27.4505 8.41273C26.6661 5.91626 25.2716 3.6548 23.3931 1.83305C23.4445 1.84637 23.4965 1.85714 23.5478 1.87109ZM19.6122 1.32009C22.3253 1.7056 24.7037 4.53733 26.2001 8.71898C24.0367 9.20342 21.829 9.46328 19.6122 9.49444V1.32009ZM19.6122 10.7626C21.9637 10.7316 24.3054 10.4524 26.5983 9.92941C27.3944 12.6802 27.8144 15.5262 27.8468 18.3897H19.6122V10.7626ZM19.6122 19.6579H27.8468C27.8145 22.5214 27.3945 25.3674 26.5983 28.1182C24.3054 27.5953 21.9637 27.316 19.6122 27.285V19.6579ZM19.6122 36.7275V28.5531C21.829 28.584 24.0367 28.8439 26.2001 29.3286C24.7037 33.5102 22.3253 36.342 19.6122 36.7275ZM31.7348 31.3658C31.6347 31.4692 31.5313 31.5687 31.4292 31.6696C31.3113 31.7856 31.1934 31.9029 31.0722 32.0158C30.967 32.114 30.8586 32.206 30.7508 32.3043C30.6278 32.4133 30.5054 32.5224 30.3799 32.6276C30.2689 32.7202 30.156 32.8096 30.0432 32.8996C29.9163 33.0011 29.7895 33.1025 29.6589 33.2002C29.5435 33.2868 29.4266 33.3713 29.3083 33.4538C29.177 33.5477 29.0451 33.644 28.9114 33.7315C28.7916 33.8123 28.6707 33.8914 28.5487 33.9687C28.4136 34.0558 28.2768 34.1404 28.1384 34.2223C28.0116 34.2965 27.8905 34.3688 27.7656 34.4404C27.5011 34.591 27.2331 34.7352 26.9616 34.8728C26.8169 34.9456 26.6713 35.0164 26.5247 35.0853C26.3979 35.1455 26.266 35.2057 26.1354 35.2628C25.9864 35.3262 25.8355 35.3896 25.6846 35.453C25.5534 35.5063 25.4227 35.5595 25.2909 35.6096C25.1361 35.6686 24.9808 35.7238 24.8248 35.7777C24.6929 35.8246 24.5604 35.8698 24.4273 35.9133C24.2687 35.9647 24.1102 36.0116 23.9485 36.0579C23.816 36.0972 23.6829 36.1365 23.5491 36.1727C23.4977 36.186 23.4464 36.1968 23.395 36.2101C25.2719 34.3877 26.6646 32.126 27.4473 29.6298C28.9523 30.0267 30.4092 30.5874 31.7919 31.3018C31.771 31.3246 31.7532 31.3468 31.7348 31.3658ZM32.6466 30.345C31.1235 29.5197 29.5084 28.877 27.8347 28.4301C28.6552 25.5772 29.0859 22.6263 29.1149 19.6579H36.7173C36.5792 23.5723 35.1477 27.3306 32.6466 30.345Z" fill="black"/>
</svg>
