<svg width="24" height="25" viewBox="0 0 24 25" fill="none" xmlns="http://www.w3.org/2000/svg">
<g clip-path="url(#clip0_1771_5077)">
<path fill-rule="evenodd" clip-rule="evenodd" d="M11.9992 15.1239C10.3539 15.1239 9.01562 13.7857 9.01562 12.1408C9.01562 10.496 10.3539 9.15723 11.9992 9.15723C13.6441 9.15723 14.9823 10.4955 14.9823 12.1408C14.9823 13.7857 13.6441 15.1239 11.9992 15.1239ZM11.9992 9.71973C10.6642 9.71973 9.57812 10.8058 9.57812 12.1408C9.57812 13.4758 10.6642 14.5619 11.9992 14.5619C13.3342 14.5619 14.4198 13.4758 14.4198 12.1408C14.4198 10.8058 13.3342 9.71973 11.9992 9.71973Z" fill="black"/>
<path fill-rule="evenodd" clip-rule="evenodd" d="M13.0735 18.0212H10.9266C10.7715 18.0212 10.6454 17.8956 10.6454 17.7399V16.561C10.3642 16.4751 10.0921 16.3622 9.83258 16.224L8.9982 17.0579C8.9457 17.1109 8.87398 17.1404 8.79945 17.1404C8.72492 17.1404 8.6532 17.1109 8.6007 17.0579L7.08289 15.5401C7.05671 15.514 7.03593 15.4831 7.02175 15.449C7.00757 15.4149 7.00027 15.3783 7.00027 15.3413C7.00027 15.3044 7.00757 15.2678 7.02175 15.2337C7.03593 15.1996 7.05671 15.1686 7.08289 15.1426L7.9168 14.3082C7.77858 14.0487 7.66572 13.7766 7.57977 13.4954H6.40039C6.24523 13.4954 6.11914 13.3693 6.11914 13.2142V11.0673C6.11914 10.9121 6.24523 10.786 6.40039 10.786H7.57977C7.66555 10.5053 7.77852 10.2329 7.9168 9.97322L7.08289 9.13932C7.0567 9.11322 7.03592 9.08221 7.02174 9.04806C7.00757 9.01391 7.00027 8.9773 7.00027 8.94033C7.00027 8.90336 7.00757 8.86675 7.02174 8.8326C7.03592 8.79846 7.0567 8.76745 7.08289 8.74135L8.6007 7.22354C8.65344 7.17087 8.72492 7.14128 8.79945 7.14128C8.87399 7.14128 8.94547 7.17087 8.9982 7.22354L9.83211 8.05744C10.0918 7.91942 10.3642 7.80656 10.6454 7.72041V6.5415C10.6454 6.38588 10.7715 6.26025 10.9266 6.26025H13.073C13.2287 6.26025 13.3543 6.38588 13.3543 6.5415V7.72041C13.6355 7.80666 13.9079 7.91916 14.1676 8.05744L15.0015 7.22354C15.0542 7.17087 15.1257 7.14128 15.2002 7.14128C15.2748 7.14128 15.3463 7.17087 15.399 7.22354L16.9173 8.74135C16.97 8.79417 16.9995 8.86573 16.9995 8.94033C16.9995 9.01494 16.97 9.0865 16.9173 9.13932L16.0834 9.97322C16.2212 10.2329 16.334 10.505 16.4204 10.786H17.5993C17.7545 10.786 17.8805 10.9121 17.8805 11.0673V13.2142C17.8805 13.3693 17.7545 13.4954 17.5993 13.4954H16.4204C16.3341 13.7767 16.2212 14.0485 16.0834 14.3087L16.9173 15.1421C16.9698 15.1951 16.9998 15.2668 16.9998 15.3413C16.9998 15.4159 16.9698 15.4871 16.9173 15.5401L15.399 17.0579C15.3729 17.0841 15.342 17.1049 15.3079 17.1191C15.2737 17.1332 15.2372 17.1405 15.2002 17.1405C15.1633 17.1405 15.1267 17.1332 15.0926 17.1191C15.0585 17.1049 15.0275 17.0841 15.0015 17.0579L14.1676 16.224C13.908 16.3623 13.6356 16.4752 13.3543 16.561V17.7404C13.3548 17.8956 13.2287 18.0212 13.0735 18.0212ZM11.2079 17.4587H12.7923V16.3478C12.7923 16.2853 12.8132 16.2246 12.8515 16.1753C12.8899 16.126 12.9436 16.0908 13.0041 16.0754C13.3791 15.9798 13.7382 15.8307 14.072 15.6324C14.1257 15.6004 14.1886 15.5873 14.2507 15.5951C14.3128 15.6029 14.3705 15.6312 14.4146 15.6756L15.2007 16.4612L16.3205 15.3413L15.5349 14.5553C15.4906 14.5111 15.4623 14.4534 15.4545 14.3913C15.4467 14.3293 15.4598 14.2664 15.4918 14.2126C15.6899 13.8797 15.839 13.5201 15.9348 13.1448C15.9501 13.0842 15.9852 13.0305 16.0346 12.9921C16.0839 12.9537 16.1446 12.9329 16.2071 12.9329H17.318V11.3485H16.2071C16.1446 11.3486 16.0839 11.3277 16.0346 11.2894C15.9852 11.251 15.9501 11.1973 15.9348 11.1367C15.839 10.7614 15.6898 10.4018 15.4918 10.0688C15.4598 10.0151 15.4467 9.95226 15.4544 9.89021C15.4621 9.82816 15.4903 9.77045 15.5345 9.72619L16.3205 8.9401L15.2002 7.82025L14.4146 8.60588C14.3704 8.6501 14.3127 8.67835 14.2507 8.68615C14.1886 8.69396 14.1257 8.68089 14.072 8.649C13.7389 8.45093 13.3791 8.30175 13.0037 8.20603C12.9431 8.19061 12.8894 8.15547 12.8511 8.10616C12.8127 8.05685 12.7919 7.99617 12.7918 7.93369V6.82228H11.2079V7.93369C11.2078 7.99617 11.187 8.05686 11.1486 8.10617C11.1103 8.15549 11.0566 8.19062 10.996 8.20603C10.6207 8.30175 10.2611 8.45094 9.9282 8.649C9.87441 8.68089 9.81153 8.69396 9.74949 8.68615C9.68744 8.67835 9.62976 8.6501 9.58555 8.60588L8.79945 7.82025L7.67961 8.9401L8.46523 9.72619C8.50946 9.77041 8.5377 9.82808 8.54551 9.89013C8.55332 9.95218 8.54025 10.0151 8.50836 10.0688C8.31018 10.4017 8.16099 10.7613 8.06539 11.1367C8.05005 11.1973 8.01494 11.251 7.96561 11.2894C7.91627 11.3277 7.85555 11.3486 7.79305 11.3485H6.68164V12.9329H7.79305C7.85553 12.933 7.91621 12.9538 7.96553 12.9922C8.01484 13.0305 8.04998 13.0842 8.06539 13.1448C8.16102 13.5198 8.30961 13.8788 8.50836 14.2126C8.54025 14.2664 8.55332 14.3293 8.54551 14.3913C8.5377 14.4534 8.50946 14.511 8.46523 14.5553L7.67914 15.3413L8.79945 16.4612L9.58555 15.6756C9.62976 15.6313 9.68744 15.6031 9.74949 15.5953C9.81153 15.5875 9.87441 15.6006 9.9282 15.6324C10.2611 15.8305 10.6207 15.9797 10.996 16.0754C11.0566 16.0908 11.1103 16.126 11.1486 16.1753C11.187 16.2246 11.2078 16.2853 11.2079 16.3478V17.4587Z" fill="black"/>
<path fill-rule="evenodd" clip-rule="evenodd" d="M16.4859 24.1406C15.3389 24.1406 14.4061 23.2073 14.4061 22.0608C14.4061 21.8325 14.4431 21.607 14.5158 21.3937H9.04219C8.94 21.3937 8.84625 21.3384 8.79656 21.2489C8.74687 21.1598 8.74969 21.0506 8.80359 20.9639C8.95243 20.7237 9.03117 20.4468 9.03094 20.1642C9.03094 19.3275 8.35031 18.6469 7.51359 18.6469C6.67734 18.6469 5.99672 19.3275 5.99672 20.1642C5.99672 20.4478 6.07547 20.7244 6.22453 20.9639C6.27844 21.0506 6.28078 21.1598 6.23109 21.2489C6.20688 21.2928 6.17131 21.3295 6.1281 21.3549C6.08489 21.3804 6.03563 21.3938 5.98547 21.3937H4.60172C3.57891 21.3937 2.74687 20.5617 2.74687 19.5389V18.5967C2.53199 18.6694 2.30668 18.7064 2.07984 18.7064C0.933281 18.7064 0 17.7736 0 16.6266C0 15.4795 0.933281 14.5467 2.07984 14.5467C2.30813 14.5467 2.53359 14.5842 2.74687 14.6564V4.74234C2.74687 3.71953 3.57891 2.8875 4.60172 2.8875H5.54391C5.47124 2.67262 5.43419 2.4473 5.43422 2.22047C5.43422 1.07391 6.36703 0.140625 7.51406 0.140625C8.66063 0.140625 9.59391 1.07391 9.59391 2.22047C9.59391 2.44875 9.55641 2.67422 9.48422 2.8875H14.9578C15.0595 2.8875 15.1537 2.94281 15.2034 3.03234C15.2531 3.12141 15.2503 3.23062 15.1964 3.31734C15.0472 3.55737 14.9683 3.83442 14.9686 4.11703C14.9686 4.95375 15.6492 5.63437 16.4859 5.63437C17.3227 5.63437 18.0033 4.95375 18.0033 4.11703C18.0033 3.83344 17.9245 3.55687 17.7755 3.31734C17.749 3.27473 17.7344 3.22582 17.7332 3.17566C17.732 3.12551 17.7442 3.07594 17.7686 3.0321C17.7929 2.98825 17.8286 2.95173 17.8719 2.9263C17.9151 2.90088 17.9644 2.88748 18.0145 2.8875H19.3983C20.4211 2.8875 21.2531 3.71953 21.2531 4.74234V5.68453C21.4664 5.61234 21.6919 5.57484 21.9202 5.57484C23.0667 5.57484 24 6.50813 24 7.65469C24 8.80172 23.0667 9.73453 21.9202 9.73453C21.6914 9.73453 21.4664 9.69703 21.2531 9.62484V19.5389C21.2531 20.5617 20.4211 21.3937 19.3983 21.3937H18.4561C18.5283 21.607 18.5658 21.8325 18.5658 22.0608C18.5658 23.2073 17.6325 24.1406 16.4859 24.1406ZM9.48422 20.8312H14.9573C15.0595 20.8312 15.1537 20.8866 15.2034 20.9756C15.2278 21.0195 15.24 21.0691 15.2388 21.1193C15.2375 21.1695 15.2229 21.2185 15.1964 21.2611C15.0472 21.5011 14.9683 21.7782 14.9686 22.0608C14.9686 22.8975 15.6492 23.5781 16.4859 23.5781C17.3227 23.5781 18.0033 22.8975 18.0033 22.0608C18.0033 21.7772 17.9245 21.5006 17.7755 21.2606C17.749 21.2181 17.7343 21.1692 17.7331 21.1191C17.7319 21.069 17.7441 21.0194 17.7684 20.9756C17.7929 20.9318 17.8286 20.8954 17.8719 20.87C17.9151 20.8446 17.9644 20.8312 18.0145 20.8312H19.3983C20.1108 20.8312 20.6906 20.2514 20.6906 19.5389V9.18328C20.6906 9.08109 20.7459 8.98688 20.835 8.93719C20.8789 8.91282 20.9285 8.90062 20.9787 8.90185C21.0289 8.90309 21.0778 8.91772 21.1205 8.94422C21.3605 9.0934 21.6375 9.17233 21.9202 9.17203C22.7569 9.17203 23.4375 8.49141 23.4375 7.65469C23.4375 6.81797 22.7569 6.13734 21.9202 6.13734C21.6366 6.13734 21.36 6.21609 21.1205 6.36516C21.0778 6.39166 21.0289 6.40628 20.9787 6.40752C20.9285 6.40876 20.8789 6.39656 20.835 6.37219C20.7912 6.34772 20.7548 6.31202 20.7294 6.26876C20.704 6.2255 20.6906 6.17625 20.6906 6.12609V4.74234C20.6906 4.02984 20.1108 3.45 19.3983 3.45H18.4561C18.5283 3.66375 18.5658 3.88875 18.5658 4.11703C18.5658 5.26406 17.6325 6.19687 16.4859 6.19687C15.3389 6.19687 14.4061 5.26406 14.4061 4.11703C14.4061 3.88875 14.4436 3.66375 14.5158 3.45H9.04219C8.99203 3.45001 8.94278 3.4366 8.89955 3.41116C8.85633 3.38572 8.82069 3.34917 8.79635 3.30532C8.77201 3.26146 8.75984 3.21189 8.76111 3.16175C8.76239 3.11161 8.77705 3.06272 8.80359 3.02016C8.95278 2.78013 9.0317 2.50308 9.03141 2.22047C9.03141 1.38375 8.35078 0.703125 7.51406 0.703125C6.67734 0.703125 5.99672 1.38375 5.99672 2.22047C5.99672 2.50406 6.07547 2.78063 6.22453 3.02016C6.27844 3.10687 6.28078 3.21609 6.23156 3.30562C6.2071 3.34941 6.17139 3.38587 6.12813 3.41125C6.08487 3.43663 6.03562 3.45001 5.98547 3.45H4.60172C3.88922 3.45 3.30937 4.02984 3.30937 4.74234V15.098C3.30937 15.2002 3.25406 15.2944 3.165 15.3441C3.12111 15.3684 3.0715 15.3806 3.02131 15.3794C2.97112 15.3782 2.92217 15.3635 2.87953 15.337C2.6395 15.1878 2.36246 15.1089 2.07984 15.1092C1.24312 15.1092 0.5625 15.7898 0.5625 16.6266C0.5625 17.4633 1.24312 18.1439 2.07984 18.1439C2.36344 18.1439 2.64 18.0652 2.87953 17.9161C2.92217 17.8896 2.97112 17.875 3.02131 17.8737C3.0715 17.8725 3.12111 17.8847 3.165 17.9091C3.20878 17.9335 3.24525 17.9692 3.27063 18.0125C3.29601 18.0558 3.30938 18.105 3.30937 18.1552V19.5389C3.30937 20.2514 3.88922 20.8312 4.60125 20.8312H5.54391C5.47106 20.6164 5.434 20.3911 5.43422 20.1642C5.43422 19.0172 6.36703 18.0844 7.51406 18.0844C8.66063 18.0844 9.59391 19.0172 9.59391 20.1642C9.59391 20.3925 9.55641 20.6175 9.48422 20.8312Z" fill="black"/>
<path fill-rule="evenodd" clip-rule="evenodd" d="M20.9711 12.4221H17.5984C17.4433 12.4221 17.3172 12.296 17.3172 12.1408C17.3172 11.9857 17.4433 11.8596 17.5984 11.8596H20.9711C21.1262 11.8596 21.2523 11.9857 21.2523 12.1408C21.2523 12.296 21.1262 12.4221 20.9711 12.4221ZM6.4 12.4221H3.02734C2.87219 12.4221 2.74609 12.296 2.74609 12.1408C2.74609 11.9857 2.87219 11.8596 3.02734 11.8596H6.4C6.55516 11.8596 6.68125 11.9857 6.68125 12.1408C6.68125 12.296 6.55516 12.4221 6.4 12.4221ZM11.9992 21.3939C11.8436 21.3939 11.718 21.2678 11.718 21.1127V17.7405C11.718 17.5849 11.8436 17.4593 11.9992 17.4593C12.1544 17.4593 12.2805 17.5849 12.2805 17.7405V21.1127C12.2805 21.2678 12.1544 21.3939 11.9992 21.3939ZM11.9992 6.82285C11.8436 6.82285 11.718 6.69676 11.718 6.5416V3.16895C11.718 3.01379 11.8436 2.8877 11.9992 2.8877C12.1544 2.8877 12.2805 3.01379 12.2805 3.16895V6.5416C12.2805 6.69676 12.1544 6.82285 11.9992 6.82285Z" fill="black"/>
</g>
<defs>
<clipPath id="clip0_1771_5077">
<rect width="24" height="24" fill="white" transform="translate(0 0.140625)"/>
</clipPath>
</defs>
</svg>
