<svg width="38" height="30" viewBox="0 0 38 30" fill="none" xmlns="http://www.w3.org/2000/svg">
<path d="M28.6388 5.5998C29.6388 5.5998 30.4494 4.78915 30.4494 3.78916C30.4494 2.78917 29.6388 1.97852 28.6388 1.97852C27.6388 1.97852 26.8281 2.78917 26.8281 3.78916C26.8281 4.78915 27.6388 5.5998 28.6388 5.5998Z" fill="#F9BD5F"/>
<path d="M28.3126 3.78908C28.3126 3.05365 28.7526 2.42116 29.3823 2.13772C29.1485 2.03259 28.8951 1.97832 28.6388 1.97852C27.6388 1.97852 26.8281 2.78913 26.8281 3.78916C26.8281 4.78918 27.6387 5.5998 28.6388 5.5998C28.8949 5.60007 29.1481 5.54588 29.3817 5.44082C28.752 5.15723 28.3126 4.52452 28.3126 3.78908Z" fill="#F4AC4E"/>
<path d="M30.7348 13.0263L28.6389 4.99609L23.4925 12.969L26.1878 18.0515L30.7348 13.0263ZM14.5249 12.9669L9.38 4.99609L7.28027 13.0157L11.7941 18.0515L14.5249 12.9669Z" fill="#F9BD5F"/>
<path d="M19.0365 3.78906L11.7941 17.2744L2.13745 6.50131L5.75873 24.3094L8.15578 25.0866H30.0339L32.3144 24.3094L35.9356 6.50131L26.1877 17.2744L19.0365 3.78906Z" fill="#FFE177"/>
<path d="M29.5926 15.9722L35.2902 9.67535L35.9357 6.50124L27.5916 15.7229C27.9917 16.4774 29.0196 16.6055 29.5926 15.9722ZM5.01736 9.71417L2.13745 6.50124L5.75873 24.3094L8.15578 25.0866H10.3823L7.9853 24.3094L5.01736 9.71417ZM14.851 15.7283L20.1428 5.87513L19.0365 3.78906L12.6283 15.7211L12.8493 15.9675C13.4191 16.6032 14.4471 16.4804 14.851 15.7283Z" fill="#FFD15B"/>
<path d="M18.5499 13.2119L16.744 16.8237C16.7062 16.8992 16.6865 16.9825 16.6865 17.067C16.6865 17.1514 16.7062 17.2347 16.744 17.3102L18.5499 20.922C18.7503 21.323 19.3226 21.323 19.5231 20.922L21.329 17.3102C21.3668 17.2347 21.3864 17.1514 21.3864 17.067C21.3864 16.9825 21.3668 16.8992 21.329 16.8237L19.5231 13.2119C19.3226 12.8109 18.7503 12.8109 18.5499 13.2119Z" fill="#FF8086"/>
<path d="M18.2284 17.3102C18.1906 17.2347 18.171 17.1514 18.171 17.067C18.171 16.9825 18.1906 16.8992 18.2284 16.8237L19.7787 13.723L19.5231 13.2119C19.3226 12.8109 18.7504 12.8109 18.5499 13.2119L16.744 16.8237C16.7062 16.8992 16.6865 16.9825 16.6865 17.067C16.6865 17.1514 16.7062 17.2347 16.744 17.3102L18.5499 20.922C18.7503 21.323 19.3226 21.323 19.5231 20.922L19.7787 20.4109L18.2284 17.3102Z" fill="#E5646E"/>
<path d="M12.4816 21.8947H11.1064C10.9687 21.8947 10.8365 21.8399 10.7391 21.7425C10.6416 21.6451 10.5869 21.5129 10.5869 21.3751V20C10.5869 19.8622 10.6416 19.7301 10.7391 19.6326C10.8365 19.5352 10.9687 19.4805 11.1064 19.4805H12.4816C12.6194 19.4805 12.7515 19.5352 12.8489 19.6326C12.9464 19.7301 13.0011 19.8622 13.0011 20V21.3751C13.0011 21.5129 12.9464 21.6451 12.8489 21.7425C12.7515 21.8399 12.6194 21.8947 12.4816 21.8947ZM26.9665 21.8947H25.5913C25.4536 21.8947 25.3214 21.8399 25.224 21.7425C25.1266 21.6451 25.0718 21.5129 25.0718 21.3751V20C25.0718 19.8622 25.1266 19.7301 25.224 19.6326C25.3214 19.5352 25.4536 19.4805 25.5913 19.4805H26.9665C27.1043 19.4805 27.2364 19.5352 27.3338 19.6326C27.4313 19.7301 27.486 19.8622 27.486 20V21.3751C27.486 21.5129 27.4313 21.6451 27.3338 21.7425C27.2364 21.8399 27.1043 21.8947 26.9665 21.8947Z" fill="#8AC9FE"/>
<path d="M26.279 24.3146L26.2809 24.3096H26.2778L26.279 24.3146Z" fill="#606060"/>
<path d="M1.81064 7.39472C2.81063 7.39472 3.62128 6.58407 3.62128 5.58408C3.62128 4.58409 2.81063 3.77344 1.81064 3.77344C0.810651 3.77344 0 4.58409 0 5.58408C0 6.58407 0.810651 7.39472 1.81064 7.39472Z" fill="#F9BD5F"/>
<path d="M1.48438 5.584C1.48438 4.84857 1.92412 4.21593 2.55387 3.93249C2.32019 3.82742 2.06685 3.7732 1.81064 3.77344C0.810617 3.77344 0 4.58406 0 5.584C0 6.58395 0.810617 7.39465 1.81064 7.39465C2.07523 7.39465 2.32728 7.33757 2.55387 7.23559C1.92412 6.95208 1.48438 6.31944 1.48438 5.584Z" fill="#F4AC4E"/>
<path d="M36.1893 7.39472C37.1893 7.39472 37.9999 6.58407 37.9999 5.58408C37.9999 4.58409 37.1893 3.77344 36.1893 3.77344C35.1893 3.77344 34.3787 4.58409 34.3787 5.58408C34.3787 6.58407 35.1893 7.39472 36.1893 7.39472Z" fill="#F9BD5F"/>
<path d="M35.8633 5.584C35.8633 4.84857 36.3028 4.21586 36.9325 3.93242C36.6989 3.82737 36.4457 3.77318 36.1895 3.77344C35.1895 3.77344 34.3789 4.58406 34.3789 5.58408C34.3789 6.58403 35.1895 7.39472 36.1895 7.39472C36.4541 7.39472 36.706 7.33772 36.9325 7.23574C36.3028 6.95215 35.8633 6.31944 35.8633 5.584Z" fill="#F4AC4E"/>
<path d="M19.0365 4.48847C20.0365 4.48847 20.8471 3.67782 20.8471 2.67783C20.8471 1.67784 20.0365 0.867188 19.0365 0.867188C18.0365 0.867188 17.2258 1.67784 17.2258 2.67783C17.2258 3.67782 18.0365 4.48847 19.0365 4.48847Z" fill="#F9BD5F"/>
<path d="M18.7102 2.67783C18.7102 1.9424 19.1497 1.30961 19.7794 1.02616C19.5458 0.921116 19.2926 0.866926 19.0365 0.867188C18.0365 0.867188 17.2258 1.67781 17.2258 2.67783C17.2258 3.67778 18.0364 4.48847 19.0365 4.48847C19.2926 4.48874 19.5458 4.43455 19.7794 4.32949C19.1497 4.04598 18.7102 3.41326 18.7102 2.67783Z" fill="#F4AC4E"/>
<path d="M9.09921 5.58417C10.0992 5.58417 10.9099 4.77352 10.9099 3.77353C10.9099 2.77354 10.0992 1.96289 9.09921 1.96289C8.09923 1.96289 7.28857 2.77354 7.28857 3.77353C7.28857 4.77352 8.09923 5.58417 9.09921 5.58417Z" fill="#F9BD5F"/>
<path d="M8.77302 3.77346C8.77302 3.03802 9.21255 2.40531 9.84229 2.12187C9.60866 2.01682 9.35537 1.96263 9.09921 1.96289C8.09927 1.96289 7.28857 2.77351 7.28857 3.77353C7.28857 4.77356 8.09919 5.58417 9.09921 5.58417C9.3638 5.58417 9.6157 5.52717 9.84229 5.4252C9.21255 5.14161 8.77302 4.50882 8.77302 3.77346Z" fill="#F4AC4E"/>
<path d="M32.3141 24.3037V28.5884C32.3141 28.7327 32.2567 28.8711 32.1547 28.9731C32.0527 29.0751 31.9144 29.1324 31.7701 29.1325H6.30281C6.15854 29.1324 6.02019 29.0751 5.91817 28.9731C5.81616 28.8711 5.75883 28.7327 5.75879 28.5884V24.3037H32.3141Z" fill="#F9BD5F"/>
<path d="M7.98535 28.5884V24.3037H5.75879V28.5884C5.75883 28.7327 5.81616 28.8711 5.91817 28.9731C6.02019 29.0751 6.15854 29.1324 6.30281 29.1325H8.52937C8.3851 29.1324 8.24673 29.0751 8.14471 28.9731C8.04269 28.8711 7.98537 28.7327 7.98535 28.5884Z" fill="#F4AC4E"/>
<path d="M5.75879 26.1377H32.3141V27.3035H5.75879V26.1377Z" fill="#FFE177"/>
<path d="M7.98535 27.3015V26.1361L5.75879 26.1357V27.3015L32.3141 27.3062V27.3058L7.98535 27.3015Z" fill="#FFD15B"/>
</svg>
