<svg width="36" height="38" viewBox="0 0 36 38" fill="none" xmlns="http://www.w3.org/2000/svg">
<path d="M4.29346 5.18679L4.30106 1.76679C4.30106 1.63759 4.34666 1.53879 4.42266 1.50079C4.43026 1.49319 4.43786 1.49319 4.44546 1.49319L5.17506 1.05999C5.25106 1.01439 5.35746 1.02199 5.47146 1.09039L8.45066 2.80799C8.67866 2.93719 8.86106 3.25639 8.86106 3.52239L8.85346 6.94239C8.84586 7.07159 8.80026 7.16279 8.73186 7.20839L7.98706 7.64159L7.97946 7.64919C7.90346 7.68719 7.79706 7.68719 7.68306 7.61879L4.70386 5.90119C4.47586 5.76439 4.29346 5.44519 4.29346 5.18679ZM2.00586 15.0972L2.01346 11.6696C2.01346 11.5404 2.05906 11.4492 2.13506 11.4112C2.14266 11.4036 2.15026 11.4036 2.15786 11.4036L2.88746 10.9704C2.97106 10.9248 3.06986 10.9324 3.18386 11.0008L6.16306 12.7184C6.39106 12.8476 6.58106 13.1668 6.57346 13.4328L6.56586 16.8528C6.56586 16.982 6.52026 17.0732 6.44426 17.1188L5.71466 17.5368C5.63866 17.5976 5.51706 17.6052 5.39546 17.5292L2.42386 15.8116C2.18826 15.6748 2.00586 15.3556 2.00586 15.0972ZM7.91106 13.5772L7.91866 10.1572C7.91866 10.0204 7.97186 9.92919 8.04786 9.89119L8.05546 9.88359L8.79266 9.45039C8.86866 9.41239 8.97506 9.41239 9.08906 9.48079L12.0683 11.1984C12.2963 11.3352 12.4787 11.6544 12.4787 11.9128L12.4711 15.3328C12.4711 15.4696 12.4255 15.5608 12.3495 15.5988L11.6199 16.0244C11.6123 16.032 11.6047 16.0396 11.5971 16.0396C11.5211 16.0852 11.4147 16.0776 11.3007 16.0092L8.32146 14.2916C8.09346 14.1624 7.91106 13.8432 7.91106 13.5772Z" fill="#E4E8F4"/>
<path d="M35.7954 19.8629L35.7878 23.2829C35.7802 23.4121 35.7346 23.5033 35.6662 23.5489L34.9062 23.9897C34.9138 23.9821 34.9214 23.9821 34.9214 23.9745C34.9138 23.9821 34.9062 23.9821 34.891 23.9897L34.8758 28.1469C34.8758 28.2685 34.8302 28.3521 34.7618 28.3977L34.2906 28.6713C34.3286 28.6485 34.3514 28.6181 34.3742 28.5725C34.3134 28.6713 34.2146 28.7093 34.0778 28.6485C34.169 28.7093 34.2146 28.7777 34.2222 28.8537L34.2146 29.9405C34.2146 30.0241 34.1614 30.1077 34.0626 30.1685L26.4018 34.6221L20.8614 37.1377C20.6486 37.2517 20.299 37.2517 20.0862 37.1377L0.37179 25.7529C0.25779 25.6921 0.20459 25.6085 0.20459 25.5249L0.21219 25.1601V25.1449H0.21979C0.21979 25.0613 0.27299 24.9853 0.37179 24.9321L13.573 17.2561C13.7706 17.1421 14.0974 17.1421 14.3102 17.2485C14.0974 17.1193 13.9226 16.8229 13.9302 16.5721L13.9682 1.31127C13.9682 1.17447 14.029 1.08327 14.1126 1.05287L14.5458 0.80207C14.6142 0.76407 14.713 0.77167 14.8194 0.82487L27.177 7.96127L27.1846 6.22847C27.1846 6.09167 27.2302 6.00047 27.3062 5.96247C27.3138 5.95487 27.3214 5.95487 27.329 5.95487L28.0586 5.52167C28.1346 5.48367 28.241 5.48367 28.355 5.55207L31.3342 7.26967C31.5622 7.40647 31.7446 7.72567 31.7446 7.98407L31.737 10.5909L34.5262 12.2021C34.7466 12.3313 34.9214 12.6353 34.9214 12.8861L34.9062 18.8749L35.3774 19.1485C35.6054 19.2777 35.7954 19.5969 35.7954 19.8629Z" fill="#E4E8F4"/>
<path d="M34.2236 28.8499L34.2168 29.9427C34.2168 30.0233 34.1636 30.1099 34.0633 30.1707L26.4017 34.6221L20.8628 37.1339C20.6485 37.2547 20.2997 37.2547 20.0853 37.1339L0.367907 25.7506C0.260747 25.6898 0.206787 25.6092 0.206787 25.5226L0.214387 25.1357C0.214387 25.2163 0.267587 25.3029 0.373987 25.3637L20.0846 36.747C20.2989 36.8679 20.6546 36.8679 20.8621 36.747L34.0625 29.0786C34.1689 29.0178 34.2236 28.9304 34.2236 28.8499Z" fill="#CAD0DD"/>
<path d="M34.0617 28.6408C34.2753 28.7646 34.2768 28.9676 34.064 29.0907L20.8651 36.7614C20.6523 36.8852 20.3027 36.8852 20.0884 36.7614L0.373226 25.3796C0.158906 25.2557 0.158146 25.0528 0.370946 24.9297L13.5706 17.259C13.7834 17.1351 14.133 17.1351 14.3466 17.259L34.0617 28.6408ZM34.9183 12.8822L34.8787 28.1468C34.8787 28.2684 34.8316 28.355 34.7647 28.3953L34.2882 28.6696C34.3619 28.6294 34.4022 28.542 34.4022 28.4219L34.4493 13.1565C34.4493 12.9088 34.2745 12.607 34.0602 12.4801L14.3519 1.10216C14.244 1.03528 14.1437 1.03528 14.0707 1.07556L14.5457 0.800436C14.6133 0.760916 14.7129 0.766996 14.8208 0.827036L34.5299 12.2058C34.7442 12.3334 34.9183 12.6352 34.9183 12.8822Z" fill="#E4E8F4"/>
<path d="M34.0711 12.4658C34.2854 12.5897 34.4602 12.8922 34.4594 13.1384L34.4161 28.4046C34.4161 28.6508 34.2398 28.7511 34.0255 28.6272L14.3149 17.2478C14.0967 17.1216 13.9257 16.8206 13.9273 16.5752L13.9698 1.30829C13.9706 1.06281 14.1423 0.960206 14.3605 1.08637L34.0711 12.4658ZM34.1767 28.2662L34.22 13.0001C34.2174 12.9483 34.2024 12.8978 34.1764 12.8528C34.1504 12.8079 34.114 12.7698 34.0703 12.7417L14.3597 1.36073C14.2746 1.31133 14.2054 1.35009 14.2054 1.44433L14.1621 16.7104C14.1621 16.8092 14.2305 16.9217 14.3156 16.9711L34.0262 28.3514C34.1121 28.4008 34.1759 28.365 34.1767 28.2662Z" fill="#E4E8F4"/>
<path d="M34.0711 12.7373L14.362 1.36089C14.2746 1.31377 14.2078 1.34797 14.2078 1.44145L14.1606 16.7129C14.1606 16.8071 14.2275 16.9211 14.3149 16.9743L34.0248 28.3515C34.1114 28.3979 34.179 28.3644 34.179 28.2641L34.2193 12.9988C34.2169 12.9466 34.2022 12.8958 34.1765 12.8503C34.1507 12.8049 34.1146 12.7662 34.0711 12.7373ZM33.4882 20.0113L33.4684 26.789L14.8781 16.0563L14.9184 2.50773L33.508 13.2405L33.4882 20.0113Z" fill="#5B5E71"/>
<path d="M14.9182 2.50781L14.8779 16.0563L33.4675 26.7891L33.5078 13.2405L14.9182 2.50781Z" fill="#748BFD"/>
<path d="M15.2002 18.4136C15.2861 18.4638 15.283 18.5428 15.2002 18.59L14.7898 18.8271C14.7429 18.8517 14.6907 18.8646 14.6378 18.8646C14.5848 18.8646 14.5327 18.8517 14.4858 18.8271L13.6042 18.3156C13.5175 18.2647 13.5175 18.1887 13.6034 18.1393L14.0138 17.9014C14.0609 17.8775 14.1131 17.8651 14.1659 17.8652C14.2188 17.8654 14.2708 17.878 14.3178 17.9022L15.2002 18.4136ZM14.3672 18.8955C14.4539 18.9456 14.4493 19.0247 14.3672 19.0718L13.4856 19.5825C13.4385 19.6064 13.3864 19.6188 13.3335 19.6187C13.2807 19.6185 13.2286 19.6059 13.1816 19.5818L12.2993 19.0703C12.2126 19.0201 12.2157 18.9411 12.2985 18.894L13.1801 18.3832C13.2273 18.3592 13.2796 18.3467 13.3326 18.3469C13.3856 18.347 13.4378 18.3597 13.4849 18.384L14.3672 18.8955ZM20.5536 21.5182C20.6357 21.5661 20.6357 21.6474 20.5536 21.6946L20.1432 21.9317C20.0962 21.9557 20.0441 21.9682 19.9912 21.9682C19.9384 21.9682 19.8863 21.9557 19.8392 21.9317L18.9531 21.4172C18.871 21.3693 18.8702 21.2933 18.9569 21.2431L19.3673 21.006C19.4137 20.9822 19.465 20.9697 19.5172 20.9695C19.5693 20.9692 19.6208 20.9812 19.6675 21.0045L20.5536 21.5182ZM19.2137 20.7408C19.3004 20.7917 19.2973 20.87 19.2145 20.9178L18.8041 21.155C18.7572 21.1796 18.7051 21.1925 18.6521 21.1925C18.5991 21.1925 18.547 21.1796 18.5001 21.155L17.6185 20.6427C17.5311 20.5926 17.5311 20.5166 17.617 20.4664L18.0274 20.2293C18.0744 20.2053 18.1265 20.1927 18.1794 20.1927C18.2322 20.1927 18.2843 20.2053 18.3314 20.2293L19.2137 20.7408ZM18.2447 21.1443C18.3314 21.1945 18.3276 21.2735 18.2455 21.3206L17.3639 21.8314C17.3167 21.8554 17.2644 21.8678 17.2114 21.8677C17.1584 21.8676 17.1062 21.8549 17.0591 21.8306L16.1775 21.3191C16.0909 21.269 16.0939 21.1899 16.1768 21.1428L17.0584 20.6321C17.1055 20.6082 17.1576 20.5958 17.2105 20.5959C17.2633 20.596 17.3154 20.6087 17.3624 20.6328L18.2447 21.1443ZM21.8927 22.295C21.9748 22.3428 21.9756 22.4242 21.8927 22.4713L21.4823 22.7084C21.4353 22.7324 21.3832 22.7449 21.3303 22.7449C21.2775 22.7449 21.2254 22.7324 21.1783 22.7084L20.2922 22.1939C20.2101 22.146 20.2055 22.0677 20.2922 22.0176L20.7026 21.7804C20.7498 21.757 20.8018 21.7448 20.8546 21.7448C20.9073 21.7448 20.9593 21.757 21.0066 21.7804L21.8927 22.295ZM23.4173 24.144C23.4994 24.1919 23.4994 24.2732 23.4173 24.3204L22.5357 24.8303C22.4885 24.8538 22.4364 24.866 22.3837 24.866C22.331 24.866 22.2789 24.8538 22.2317 24.8303L21.3448 24.3158C21.2627 24.2679 21.2619 24.1874 21.3448 24.1395L22.2264 23.6295C22.2736 23.6061 22.3256 23.5939 22.3784 23.5939C22.4311 23.5939 22.4831 23.6061 22.5304 23.6295L23.4173 24.144ZM25.9063 24.6228C25.9891 24.6707 25.9899 24.752 25.9071 24.7992L25.4967 25.0363C25.4496 25.0603 25.3975 25.0728 25.3447 25.0728C25.2918 25.0728 25.2397 25.0603 25.1927 25.0363L24.3065 24.5218C24.2244 24.4739 24.2199 24.3956 24.3065 24.3454L24.7161 24.1083C24.7634 24.0849 24.8154 24.0727 24.8681 24.0727C24.9209 24.0727 24.9729 24.0849 25.0201 24.1083L25.9063 24.6228ZM24.7108 24.8942C24.7937 24.942 24.7891 25.0211 24.7078 25.0682L23.8254 25.5789C23.779 25.6027 23.7276 25.6152 23.6755 25.6154C23.6234 25.6157 23.5719 25.6037 23.5252 25.5804L22.6391 25.0667C22.5524 25.0165 22.5562 24.9375 22.6391 24.8904L23.5207 24.3796C23.5678 24.3557 23.6199 24.3433 23.6727 24.3435C23.7256 24.3436 23.7777 24.3563 23.8247 24.3804L24.7108 24.8942ZM13.7417 20.002C13.8246 20.0499 13.8253 20.1312 13.7425 20.1784L12.8609 20.6883C12.8136 20.7119 12.7614 20.7241 12.7085 20.7241C12.6556 20.7241 12.6035 20.7119 12.5561 20.6883L11.0308 19.8037C10.9442 19.7535 10.9487 19.6745 11.0308 19.6274L11.9124 19.1174C11.9595 19.0934 12.0116 19.0809 12.0644 19.0809C12.1173 19.0809 12.1694 19.0934 12.2164 19.1174L13.7417 20.002ZM15.0109 20.7377C15.0938 20.7856 15.0945 20.8669 15.0117 20.914L14.1301 21.4248C14.0828 21.4483 14.0306 21.4606 13.9777 21.4606C13.9248 21.4606 13.8727 21.4483 13.8253 21.4248L12.9392 20.9102C12.8571 20.8624 12.8563 20.781 12.9392 20.7339L13.8208 20.224C13.868 20.2005 13.92 20.1883 13.9728 20.1883C14.0255 20.1883 14.0775 20.2005 14.1248 20.224L15.0109 20.7377ZM16.2763 21.4719C16.3584 21.5198 16.3592 21.6011 16.2763 21.6482L15.3947 22.1582C15.3475 22.1816 15.2955 22.1938 15.2427 22.1938C15.19 22.1938 15.138 22.1816 15.0907 22.1582L14.2091 21.6467C14.1217 21.5965 14.1255 21.5175 14.2076 21.4704L15.09 20.9596C15.137 20.9356 15.1891 20.9231 15.242 20.9231C15.2948 20.9231 15.3469 20.9356 15.394 20.9596L16.2763 21.4719ZM14.0609 21.6558C14.143 21.7037 14.1392 21.782 14.0571 21.8298L13.1755 22.3398C13.1297 22.3633 13.0789 22.3756 13.0273 22.3756C12.9758 22.3756 12.925 22.3633 12.8791 22.3398L11.993 21.8253C11.9101 21.7774 11.9056 21.6991 11.9877 21.652L12.87 21.1413C12.9173 21.1178 12.9693 21.1056 13.022 21.1056C13.0748 21.1056 13.1268 21.1178 13.174 21.1413L14.0609 21.6558ZM19.539 21.8952C19.6211 21.9423 19.6219 22.0244 19.539 22.0708L18.6574 22.5815C18.6102 22.6049 18.5582 22.6171 18.5054 22.6171C18.4527 22.6171 18.4007 22.6049 18.3534 22.5815L17.4673 22.067C17.3844 22.0191 17.3837 21.9378 17.4665 21.8906L18.3481 21.3807C18.3954 21.3571 18.4476 21.3449 18.5005 21.3449C18.5534 21.3449 18.6055 21.3571 18.6529 21.3807L19.539 21.8952ZM12.0963 21.9856C12.1784 22.0335 12.1746 22.1118 12.0925 22.1589L11.2147 22.6674C11.1685 22.6916 11.1171 22.7045 11.0648 22.7047C11.0126 22.705 10.961 22.6927 10.9145 22.6689L8.54866 21.2971C8.46658 21.2492 8.46202 21.1709 8.54866 21.1208L9.42646 20.6131C9.4737 20.5896 9.52572 20.5774 9.57846 20.5774C9.6312 20.5774 9.68322 20.5896 9.73046 20.6131L12.0963 21.9856ZM17.5706 22.2228C17.6527 22.2699 17.6535 22.3512 17.5706 22.3983L16.689 22.909C16.6418 22.9325 16.5898 22.9447 16.537 22.9447C16.4843 22.9447 16.4323 22.9325 16.385 22.909L15.4981 22.3945C15.416 22.3466 15.416 22.2653 15.4981 22.2182L16.3797 21.7075C16.427 21.6842 16.4791 21.6721 16.5318 21.6722C16.5845 21.6724 16.6365 21.6847 16.6837 21.7082L17.5706 22.2228ZM15.3256 22.39C15.4084 22.4371 15.4084 22.5184 15.3263 22.5655L14.4447 23.0762C14.3979 23.0994 14.3462 23.1112 14.2939 23.1107C14.2416 23.1101 14.1902 23.0973 14.1438 23.0732L13.2576 22.5594C13.1755 22.5116 13.171 22.4325 13.2531 22.3846L14.1354 21.8754C14.1827 21.852 14.2347 21.8398 14.2874 21.8398C14.3402 21.8398 14.3922 21.852 14.4394 21.8754L15.3256 22.39ZM20.8333 22.6453C20.9154 22.6932 20.9116 22.7715 20.8295 22.8194L19.9479 23.3293C19.9014 23.3533 19.85 23.366 19.7977 23.3664C19.7454 23.3668 19.6938 23.3549 19.6469 23.3316L18.7608 22.8178C18.6787 22.77 18.6779 22.6886 18.7608 22.6415L19.6424 22.1308C19.6896 22.1074 19.7416 22.0952 19.7944 22.0952C19.8471 22.0952 19.8991 22.1074 19.9464 22.1308L20.8333 22.6453ZM13.4727 22.7358C13.5593 22.7859 13.5548 22.865 13.4727 22.9121L12.5911 23.4228C12.544 23.4467 12.4919 23.4591 12.439 23.459C12.3862 23.4588 12.3341 23.4462 12.2871 23.422L11.4047 22.9106C11.3219 22.8627 11.3211 22.7814 11.404 22.7342L12.2856 22.2235C12.333 22.2001 12.3852 22.1879 12.438 22.1881C12.4909 22.1882 12.5431 22.2006 12.5903 22.2243L13.4727 22.7358ZM18.8603 22.9706C18.947 23.0208 18.9432 23.099 18.8603 23.1462L17.9787 23.6569C17.9317 23.6809 17.8796 23.6934 17.8267 23.6934C17.7739 23.6934 17.7218 23.6809 17.6747 23.6569L16.7924 23.1446C16.7103 23.0975 16.7095 23.0154 16.7924 22.9683L17.674 22.4584C17.7212 22.4349 17.7732 22.4227 17.826 22.4227C17.8787 22.4227 17.9307 22.4349 17.978 22.4584L18.8603 22.9706ZM16.6199 23.1401C16.7019 23.1872 16.7027 23.2693 16.6199 23.3164L15.7383 23.8264C15.6915 23.8493 15.6399 23.861 15.5878 23.8605C15.5357 23.86 15.4844 23.8472 15.4381 23.8233L14.5519 23.3096C14.4691 23.2617 14.4653 23.1834 14.5473 23.1355L15.4289 22.6256C15.4763 22.602 15.5284 22.5897 15.5813 22.5897C15.6342 22.5897 15.6864 22.602 15.7337 22.6256L16.6199 23.1401ZM11.8417 23.3498C11.9246 23.3977 11.9291 23.476 11.8425 23.5262L10.8545 24.0984C10.8071 24.1219 10.7549 24.134 10.702 24.1339C10.6492 24.1337 10.597 24.1214 10.5497 24.0977L9.66814 23.5862C9.58074 23.536 9.58454 23.457 9.66662 23.4099L10.6561 22.8376C10.703 22.813 10.7552 22.8001 10.8081 22.8001C10.8611 22.8001 10.9133 22.813 10.9601 22.8376L11.8417 23.3498ZM14.7662 23.4866C14.8529 23.5368 14.8491 23.6158 14.767 23.663L13.8854 24.1729C13.8382 24.1971 13.786 24.2097 13.733 24.2097C13.68 24.2097 13.6278 24.1971 13.5806 24.1729L12.699 23.6607C12.6124 23.6105 12.6154 23.5322 12.6983 23.4844L13.5799 22.9744C13.6269 22.9504 13.679 22.9379 13.7319 22.9379C13.7847 22.9379 13.8368 22.9504 13.8839 22.9744L14.7662 23.4866ZM20.1546 23.7207C20.2405 23.7709 20.2367 23.8499 20.1546 23.897L19.273 24.4078C19.2259 24.4317 19.1738 24.4441 19.1209 24.4439C19.0681 24.4438 19.016 24.4311 18.969 24.407L18.0867 23.8955C18 23.8454 18.0038 23.7663 18.0859 23.7192L18.9675 23.2085C19.0147 23.1845 19.067 23.172 19.12 23.1721C19.173 23.1723 19.2252 23.185 19.2723 23.2092L20.1546 23.7207ZM17.9096 23.8872C17.9962 23.9381 17.9924 24.0164 17.9103 24.0642L17.0287 24.5742C16.9821 24.598 16.9304 24.6103 16.878 24.6099C16.8256 24.6095 16.7741 24.5965 16.7278 24.5719L15.8462 24.0604C15.7595 24.0103 15.7588 23.9335 15.8409 23.8856L16.7232 23.3764C16.7703 23.3524 16.8224 23.3399 16.8752 23.3399C16.9281 23.3399 16.9802 23.3524 17.0272 23.3764L17.9096 23.8872ZM16.0605 24.2368C16.1426 24.2846 16.1433 24.366 16.0605 24.4131L15.1789 24.9238C15.1316 24.9471 15.0795 24.9592 15.0268 24.9591C14.9741 24.9589 14.9221 24.9466 14.8749 24.923L13.9887 24.4093C13.9059 24.3614 13.9051 24.2801 13.988 24.233L14.8696 23.7222C14.9169 23.6987 14.9691 23.6864 15.022 23.6864C15.0748 23.6864 15.127 23.6987 15.1743 23.7222L16.0605 24.2368ZM13.4119 24.2596C13.4947 24.3082 13.4955 24.3842 13.4089 24.4344L12.4201 25.0066C12.3737 25.0304 12.3223 25.0429 12.2702 25.0432C12.218 25.0434 12.1666 25.0314 12.1199 25.0082L10.9533 24.3318C10.8712 24.2839 10.8705 24.2026 10.9533 24.1554L11.9413 23.5832C11.9884 23.5593 12.0405 23.5469 12.0934 23.547C12.1462 23.5471 12.1983 23.5598 12.2453 23.5839L13.4119 24.2596ZM21.4481 24.4708C21.531 24.5187 21.5317 24.6 21.4489 24.6472L20.5673 25.1579C20.52 25.1814 20.4678 25.1937 20.4149 25.1937C20.362 25.1937 20.3099 25.1814 20.2625 25.1579L19.3764 24.6434C19.2935 24.5955 19.2935 24.5142 19.3764 24.467L20.258 23.9571C20.3052 23.9336 20.3572 23.9214 20.41 23.9214C20.4627 23.9214 20.5147 23.9336 20.562 23.9571L21.4481 24.4708ZM19.2039 24.638C19.2859 24.6859 19.2859 24.7672 19.2039 24.8144L18.3223 25.3251C18.2755 25.3481 18.2239 25.3598 18.1718 25.3593C18.1197 25.3588 18.0684 25.346 18.0221 25.322L17.1359 24.8083C17.0531 24.7604 17.0493 24.6821 17.1313 24.6342L18.0129 24.1235C18.0603 24.1001 18.1125 24.0879 18.1654 24.0881C18.2183 24.0882 18.2704 24.1006 18.3177 24.1243L19.2039 24.638ZM17.354 24.9869C17.4376 25.0348 17.4376 25.1161 17.3555 25.1632L16.4732 25.6739C16.4259 25.6974 16.3739 25.7096 16.3212 25.7096C16.2684 25.7096 16.2164 25.6974 16.1692 25.6739L15.2823 25.1594C15.2002 25.1115 15.1994 25.0302 15.2823 24.9831L16.1639 24.4731C16.2111 24.4497 16.2631 24.4375 16.3159 24.4375C16.3686 24.4375 16.4206 24.4497 16.4679 24.4731L17.354 24.9869ZM27.2462 25.3996C27.3283 25.4474 27.329 25.5288 27.2462 25.5759L26.8358 25.813C26.7887 25.837 26.7366 25.8495 26.6838 25.8495C26.6309 25.8495 26.5788 25.837 26.5318 25.813L25.6456 25.2985C25.5635 25.2506 25.559 25.1723 25.6456 25.1222L26.056 24.885C26.1033 24.8616 26.1553 24.8494 26.208 24.8494C26.2608 24.8494 26.3128 24.8616 26.36 24.885L27.2462 25.3996ZM22.7424 25.2217C22.8245 25.2696 22.8207 25.3479 22.7386 25.3958L21.857 25.9057C21.8105 25.9296 21.7591 25.9423 21.7068 25.9427C21.6545 25.9431 21.6029 25.9312 21.5561 25.908L20.6707 25.3942C20.584 25.3433 20.5871 25.265 20.6699 25.2179L21.5515 24.7072C21.5987 24.6831 21.6509 24.6705 21.7039 24.6705C21.7569 24.6705 21.8091 24.6831 21.8563 24.7072L22.7424 25.2217ZM20.4936 25.3866C20.5802 25.4368 20.5764 25.5158 20.4936 25.563L19.612 26.0729C19.5653 26.0964 19.5137 26.1084 19.4615 26.1079C19.4093 26.1074 19.3579 26.0943 19.3118 26.0699L18.4302 25.5584C18.3473 25.5105 18.3428 25.4322 18.4249 25.3844L19.3072 24.8744C19.3545 24.851 19.4065 24.8388 19.4592 24.8388C19.512 24.8388 19.564 24.851 19.6112 24.8744L20.4936 25.3866ZM26.0005 25.6428C26.0872 25.6922 26.0841 25.7712 26.0013 25.8183L25.1197 26.329C25.0725 26.3532 25.0203 26.3658 24.9673 26.3658C24.9143 26.3658 24.8621 26.3532 24.8149 26.329L23.9333 25.8168C23.8467 25.7666 23.8497 25.6876 23.9326 25.6405L24.8142 25.1305C24.8613 25.1064 24.9136 25.0938 24.9666 25.0938C25.0195 25.0938 25.0718 25.1064 25.1189 25.1305L26.0005 25.6428ZM18.6445 25.7355C18.7311 25.7856 18.7273 25.8647 18.6445 25.9118L17.7629 26.4218C17.7158 26.4458 17.6637 26.4583 17.6109 26.4583C17.5581 26.4583 17.506 26.4458 17.4589 26.4218L16.5765 25.9103C16.4899 25.8601 16.4937 25.7811 16.5765 25.734L17.4581 25.2232C17.5052 25.1992 17.5573 25.1867 17.6101 25.1867C17.663 25.1867 17.7151 25.1992 17.7621 25.2232L18.6445 25.7355ZM28.5807 26.174C28.6674 26.2242 28.6643 26.3032 28.5815 26.3503L28.1711 26.5874C28.1242 26.6121 28.0721 26.6249 28.0191 26.6249C27.9661 26.6249 27.914 26.6121 27.8671 26.5874L26.9855 26.0752C26.8989 26.025 26.8981 25.949 26.9847 25.8989L27.3951 25.6618C27.4422 25.6377 27.4943 25.6252 27.5471 25.6252C27.6 25.6252 27.6521 25.6377 27.6991 25.6618L28.5807 26.174ZM24.0321 25.9696C24.115 26.0174 24.1157 26.0988 24.0329 26.1459L23.1513 26.6566C23.1039 26.68 23.0517 26.6922 22.9988 26.692C22.9459 26.6919 22.8938 26.6795 22.8465 26.6558L21.9649 26.1444C21.8775 26.0942 21.8813 26.0152 21.9634 25.968L22.8458 25.4573C22.8929 25.4334 22.945 25.421 22.9979 25.4212C23.0507 25.4213 23.1028 25.4339 23.1498 25.4581L24.0321 25.9696ZM21.7879 26.1368C21.8745 26.1869 21.8699 26.266 21.7879 26.3131L20.9063 26.8238C20.8596 26.8474 20.808 26.8594 20.7558 26.8589C20.7035 26.8584 20.6522 26.8453 20.6061 26.8208L19.7245 26.3093C19.6371 26.2591 19.6371 26.1824 19.7191 26.1345L20.6007 25.6253C20.6479 25.6011 20.7001 25.5885 20.7531 25.5885C20.8061 25.5885 20.8583 25.6011 20.9055 25.6253L21.7879 26.1368ZM27.2948 26.3929C27.3777 26.4408 27.3777 26.5221 27.2956 26.5692L26.414 27.0792C26.3666 27.1027 26.3145 27.115 26.2616 27.115C26.2087 27.115 26.1566 27.1027 26.1092 27.0792L25.2231 26.5646C25.1402 26.5175 25.1395 26.4362 25.2223 26.3891L26.1039 25.8784C26.1512 25.8548 26.2034 25.8425 26.2563 25.8425C26.3092 25.8425 26.3613 25.8548 26.4087 25.8784L27.2948 26.3929ZM19.938 26.4864C20.0209 26.5335 20.0216 26.6148 19.9388 26.6619L19.0572 27.1726C19.0099 27.196 18.9578 27.208 18.9051 27.2079C18.8524 27.2078 18.8004 27.1954 18.7532 27.1719L17.8663 26.6581C17.7842 26.6102 17.788 26.532 17.8701 26.4841L18.7517 25.9734C18.7982 25.9495 18.8497 25.937 18.902 25.9367C18.9542 25.9365 19.0058 25.9485 19.0526 25.9718L19.938 26.4864ZM29.9206 26.95C30.0027 26.9986 30.0035 27.0792 29.9206 27.127L29.5102 27.3642C29.4632 27.3882 29.4111 27.4007 29.3582 27.4007C29.3054 27.4007 29.2533 27.3882 29.2062 27.3642L28.3208 26.8496C28.238 26.8018 28.2372 26.7258 28.3239 26.6756L28.7343 26.4385C28.7807 26.4147 28.832 26.4022 28.8842 26.402C28.9363 26.4017 28.9878 26.4137 29.0345 26.437L29.9206 26.95ZM25.3264 26.7204C25.4085 26.7676 25.4093 26.8489 25.3264 26.896L24.4448 27.4067C24.3976 27.4302 24.3456 27.4424 24.2928 27.4424C24.2401 27.4424 24.1881 27.4302 24.1408 27.4067L23.2539 26.8922C23.1718 26.8443 23.1718 26.763 23.2539 26.7159L24.1355 26.2059C24.1827 26.1825 24.2348 26.1703 24.2875 26.1703C24.3402 26.1703 24.3923 26.1825 24.4395 26.2059L25.3264 26.7204ZM23.0814 26.8869C23.1642 26.9348 23.165 27.0161 23.0821 27.0632L22.2005 27.5739C22.1536 27.597 22.102 27.6088 22.0497 27.6083C21.9974 27.6077 21.946 27.5949 21.8996 27.5709L21.0134 27.0571C20.9313 27.0092 20.9268 26.931 21.0089 26.8831L21.8912 26.3731C21.9385 26.3497 21.9905 26.3375 22.0432 26.3375C22.096 26.3375 22.148 26.3497 22.1952 26.3731L23.0814 26.8869ZM28.5845 27.1407C28.6712 27.1909 28.6674 27.2699 28.5853 27.317L27.7037 27.8278C27.6565 27.8518 27.6042 27.8642 27.5512 27.8641C27.4982 27.864 27.446 27.8513 27.3989 27.827L26.5173 27.3155C26.4345 27.2676 26.4337 27.1863 26.5166 27.1392L27.3982 26.6285C27.4456 26.605 27.4978 26.5929 27.5506 26.593C27.6035 26.5932 27.6557 26.6056 27.7029 26.6292L28.5845 27.1407ZM21.2323 27.2365C21.3151 27.2836 21.3106 27.3626 21.2293 27.4098L20.3469 27.9205C20.3005 27.9442 20.2491 27.9567 20.197 27.957C20.1448 27.9573 20.0934 27.9453 20.0467 27.922L19.1605 27.4082C19.0785 27.3604 19.0777 27.279 19.1605 27.2319L20.0421 26.722C20.0894 26.6985 20.1414 26.6863 20.1941 26.6863C20.2469 26.6863 20.2989 26.6985 20.3461 26.722L21.2323 27.2365ZM31.2597 27.7274C31.3426 27.7753 31.3426 27.8566 31.2597 27.9038L30.8501 28.1409C30.803 28.1649 30.7509 28.1774 30.6981 28.1774C30.6453 28.1774 30.5932 28.1649 30.5461 28.1409L29.6599 27.6264C29.5771 27.5785 29.5733 27.5002 29.6592 27.45L30.0696 27.2129C30.1168 27.1895 30.1688 27.1773 30.2216 27.1773C30.2743 27.1773 30.3263 27.1895 30.3736 27.2129L31.2597 27.7274ZM26.6161 27.4683C26.7028 27.5184 26.699 27.5975 26.6161 27.6446L25.7345 28.1546C25.6875 28.1786 25.6354 28.1911 25.5825 28.1911C25.5297 28.1911 25.4776 28.1786 25.4305 28.1546L24.5489 27.6431C24.4653 27.5952 24.4653 27.5139 24.5474 27.4668L25.4298 26.956C25.477 26.9326 25.529 26.9204 25.5818 26.9204C25.6345 26.9204 25.6865 26.9326 25.7338 26.956L26.6161 27.4683ZM24.3764 27.6378C24.4585 27.6856 24.4585 27.767 24.3764 27.8141L23.4941 28.324C23.4473 28.3472 23.3958 28.3591 23.3437 28.3587C23.2915 28.3583 23.2402 28.3456 23.1939 28.3218L22.3077 27.808C22.2256 27.7601 22.2211 27.6811 22.3031 27.6332L23.1847 27.1232C23.2321 27.0997 23.2842 27.0874 23.3371 27.0874C23.39 27.0874 23.4422 27.0997 23.4895 27.1232L24.3764 27.6378ZM29.8545 27.8772C29.9366 27.925 29.9366 28.0064 29.8545 28.0535L28.9729 28.5634C28.9257 28.5869 28.8736 28.5991 28.8209 28.5991C28.7682 28.5991 28.7161 28.5869 28.6689 28.5634L27.782 28.0489C27.6999 28.001 27.6991 27.9197 27.782 27.8726L28.6636 27.3626C28.7108 27.3392 28.7628 27.327 28.8156 27.327C28.8683 27.327 28.9203 27.3392 28.9676 27.3626L29.8545 27.8772ZM19.8658 28.0033C19.9487 28.0504 19.9525 28.1295 19.8658 28.1789L18.8778 28.7512C18.8306 28.7746 18.7786 28.7868 18.7258 28.7868C18.6731 28.7868 18.6211 28.7746 18.5738 28.7512L12.5523 25.259C12.4703 25.2111 12.4695 25.1298 12.5523 25.0826L13.5403 24.5104C13.5875 24.4865 13.6396 24.4741 13.6924 24.4742C13.7453 24.4743 13.7973 24.487 13.8443 24.5111L19.8658 28.0033ZM27.9104 28.2192C27.9971 28.2686 27.9933 28.3476 27.9104 28.3947L27.0288 28.9054C26.9818 28.9295 26.9297 28.942 26.8768 28.942C26.824 28.942 26.7719 28.9295 26.7248 28.9054L25.8379 28.3909C25.7558 28.343 25.7596 28.2648 25.8417 28.2169L26.7233 27.7069C26.7698 27.6829 26.8212 27.6702 26.8735 27.6698C26.9258 27.6694 26.9774 27.6814 27.0243 27.7046L27.9104 28.2192ZM25.6654 28.3864C25.752 28.4358 25.7482 28.5148 25.6661 28.5619L24.7845 29.0726C24.7378 29.0963 24.6861 29.1085 24.6337 29.1079C24.5813 29.1074 24.5298 29.0942 24.4836 29.0696L23.602 28.5581C23.5153 28.508 23.5153 28.432 23.5974 28.3841L24.479 27.8734C24.5261 27.8495 24.5783 27.8371 24.6311 27.8372C24.684 27.8373 24.736 27.85 24.783 27.8741L25.6654 28.3864ZM23.8163 28.7344C23.8991 28.7823 23.8991 28.8636 23.8171 28.9108L22.9355 29.4215C22.8881 29.445 22.836 29.4573 22.7831 29.4573C22.7302 29.4573 22.678 29.445 22.6307 29.4215L21.7445 28.907C21.6617 28.8591 21.6609 28.7778 21.7438 28.7306L22.6254 28.2199C22.6728 28.1965 22.725 28.1843 22.7778 28.1845C22.8307 28.1846 22.8829 28.197 22.9301 28.2207L23.8163 28.7344ZM29.2039 28.9693C29.2868 29.0172 29.2875 29.0985 29.2047 29.1456L28.3231 29.6556C28.2758 29.6791 28.2236 29.6914 28.1707 29.6914C28.1178 29.6914 28.0657 29.6791 28.0183 29.6556L27.1322 29.141C27.0501 29.0932 27.0493 29.0118 27.1322 28.9647L28.0138 28.4548C28.061 28.4313 28.113 28.4191 28.1658 28.4191C28.2185 28.4191 28.2705 28.4313 28.3178 28.4548L29.2039 28.9693ZM31.7667 28.986C31.8487 29.0339 31.8449 29.1122 31.7629 29.16L30.8813 29.67C30.8348 29.694 30.7833 29.7067 30.7311 29.7071C30.6788 29.7075 30.6271 29.6956 30.5803 29.6723L29.0512 28.7854C28.9691 28.7375 28.9683 28.6562 29.0512 28.609L29.9328 28.0983C29.9801 28.075 30.0321 28.0629 30.0849 28.0631C30.1376 28.0632 30.1896 28.0755 30.2368 28.0991L31.7667 28.986ZM21.4481 28.9206C21.531 28.9685 21.5355 29.0468 21.4489 29.097L20.4601 29.6692C20.4128 29.6926 20.3608 29.7046 20.308 29.7045C20.2553 29.7044 20.2033 29.692 20.1561 29.6685L18.9933 28.9944C18.9075 28.9442 18.9105 28.8652 18.9933 28.818L19.9813 28.2458C20.0284 28.2211 20.0807 28.2083 20.1338 28.2084C20.1869 28.2086 20.2392 28.2216 20.2861 28.2465L21.4481 28.9206ZM26.9597 29.1365C27.0417 29.1836 27.0425 29.2657 26.9597 29.312L26.0781 29.8228C26.0313 29.8457 25.9797 29.8574 25.9276 29.8569C25.8755 29.8564 25.8242 29.8436 25.7779 29.8197L24.8917 29.306C24.8096 29.2581 24.8051 29.1798 24.8871 29.1319L25.7687 28.622C25.8161 28.5984 25.8682 28.5861 25.9211 28.5861C25.974 28.5861 26.0262 28.5984 26.0735 28.622L26.9597 29.1365ZM25.106 29.483C25.1927 29.5332 25.1889 29.6122 25.1068 29.6586L24.2252 30.1693C24.178 30.1935 24.1258 30.2061 24.0728 30.2061C24.0198 30.2061 23.9676 30.1935 23.9204 30.1693L23.0388 29.6571C22.9522 29.6069 22.9552 29.5286 23.0381 29.4808L23.9197 28.9708C23.9668 28.9467 24.0191 28.9341 24.072 28.9341C24.125 28.9341 24.1773 28.9467 24.2244 28.9708L25.106 29.483ZM30.4982 29.7194C30.5803 29.7673 30.5773 29.8456 30.4944 29.8934L29.6128 30.4042C29.5664 30.4278 29.515 30.4403 29.4629 30.4406C29.4108 30.4409 29.3593 30.4289 29.3126 30.4057L28.4265 29.8919C28.3398 29.8418 28.3436 29.7627 28.4257 29.7156L29.3073 29.2049C29.3545 29.1808 29.4068 29.1684 29.4598 29.1685C29.5128 29.1687 29.565 29.1814 29.6121 29.2056L30.4982 29.7194ZM22.804 29.7072C22.8906 29.7574 22.8914 29.8334 22.8047 29.8836L21.816 30.4551C21.7689 30.4791 21.7168 30.4916 21.664 30.4916C21.6111 30.4916 21.559 30.4791 21.512 30.4551L20.6053 29.9292C20.5225 29.8813 20.5217 29.8 20.6045 29.7528L21.5933 29.1806C21.6404 29.1565 21.6925 29.144 21.7453 29.144C21.7981 29.144 21.8502 29.1565 21.8973 29.1806L22.804 29.7072ZM29.21 30.4414C29.2921 30.4885 29.2921 30.5706 29.21 30.617L28.3284 31.1277C28.2815 31.1508 28.2299 31.1626 28.1776 31.1621C28.1253 31.1616 28.0739 31.1487 28.0275 31.1246L26.1981 30.0637C26.1115 30.0135 26.1115 29.9375 26.1936 29.8896L27.0752 29.3797C27.1223 29.3555 27.1746 29.3429 27.2276 29.3429C27.2805 29.3429 27.3328 29.3555 27.3799 29.3797L29.21 30.4414ZM23.5321 30.7849C23.6187 30.8351 23.6187 30.9118 23.5321 30.9612L23.1103 31.206C23.0632 31.23 23.0111 31.2425 22.9583 31.2425C22.9054 31.2425 22.8533 31.23 22.8063 31.206L21.8988 30.6793C21.8122 30.6291 21.816 30.5501 21.8988 30.503L22.3206 30.259C22.3675 30.2344 22.4197 30.2215 22.4726 30.2215C22.5256 30.2215 22.5777 30.2344 22.6246 30.259L23.5321 30.7849ZM27.9416 31.1748C28.0244 31.2227 28.0244 31.304 27.9423 31.3511L27.0645 31.8588C27.0175 31.8828 26.9654 31.8953 26.9125 31.8953C26.8597 31.8953 26.8076 31.8828 26.7605 31.8588L24.2913 30.427C24.2092 30.3791 24.2047 30.3 24.2913 30.2506L25.1691 29.7422C25.2164 29.7189 25.2685 29.7068 25.3212 29.7069C25.3739 29.7071 25.4259 29.7194 25.4731 29.743L27.9416 31.1748ZM25.3925 31.2082C25.4746 31.2554 25.4792 31.3344 25.3925 31.3838L24.4045 31.9561C24.3572 31.9796 24.305 31.9919 24.2522 31.9919C24.1993 31.9919 24.1471 31.9796 24.0998 31.9561L23.1893 31.4279C23.1065 31.38 23.1057 31.2987 23.1885 31.2516L24.1765 30.6793C24.2237 30.6551 24.2759 30.6425 24.3289 30.6425C24.3819 30.6425 24.4341 30.6551 24.4813 30.6793L25.3925 31.2082ZM26.132 32.2928C26.2187 32.3437 26.2194 32.4197 26.1328 32.4691L25.7102 32.7138C25.6632 32.7378 25.6111 32.7503 25.5582 32.7503C25.5054 32.7503 25.4533 32.7378 25.4062 32.7138L24.4995 32.1879C24.4129 32.137 24.4159 32.0587 24.4988 32.0116L24.9213 31.7668C24.9682 31.7422 25.0204 31.7293 25.0733 31.7293C25.1263 31.7293 25.1785 31.7422 25.2253 31.7668L26.132 32.2928ZM12.7788 20.9125C12.8617 20.9604 12.8617 21.0417 12.7796 21.0888L11.898 21.5988C11.8511 21.622 11.7995 21.6339 11.7472 21.6335C11.695 21.6331 11.6435 21.6205 11.597 21.5965L9.76694 20.5348C9.68106 20.4846 9.6803 20.4086 9.76238 20.3608L10.6447 19.8508C10.6918 19.8268 10.7439 19.8143 10.7967 19.8143C10.8496 19.8143 10.9017 19.8268 10.9487 19.8508L12.7788 20.9125ZM17.8784 19.9671C17.9613 20.015 17.9575 20.0932 17.8754 20.1411L17.465 20.3782C17.4187 20.4025 17.3673 20.4153 17.3151 20.4156C17.2628 20.4159 17.2113 20.4036 17.1648 20.3798L16.2786 19.866C16.1965 19.8189 16.192 19.7398 16.2786 19.6897L16.6883 19.4526C16.7355 19.4291 16.7875 19.4169 16.8403 19.4169C16.893 19.4169 16.945 19.4291 16.9923 19.4526L17.8784 19.9671ZM16.5393 19.1904C16.6214 19.2382 16.6221 19.3196 16.5393 19.3667L16.1289 19.6038C16.0818 19.6278 16.0297 19.6403 15.9769 19.6403C15.9241 19.6403 15.872 19.6278 15.8249 19.6038L14.9395 19.0893C14.8567 19.0414 14.8521 18.9631 14.9387 18.913L15.3491 18.6758C15.3964 18.6524 15.4484 18.6402 15.5011 18.6402C15.5539 18.6402 15.6059 18.6524 15.6531 18.6758L16.5393 19.1904ZM16.955 20.3965C17.0379 20.4444 17.0379 20.5257 16.9558 20.5728L16.0742 21.0828C16.0268 21.1063 15.9747 21.1186 15.9218 21.1186C15.8689 21.1186 15.8168 21.1063 15.7694 21.0828L14.8833 20.569C14.8004 20.5211 14.7997 20.4398 14.8825 20.3927L15.7641 19.882C15.8114 19.8584 15.8636 19.8461 15.9165 19.8461C15.9694 19.8461 16.0215 19.8584 16.0689 19.882L16.955 20.3965ZM15.6607 19.6464C15.7436 19.6935 15.7443 19.7748 15.6615 19.8219L14.7799 20.3326C14.7326 20.3562 14.6804 20.3685 14.6275 20.3685C14.5746 20.3685 14.5225 20.3562 14.4751 20.3326L13.589 19.8181C13.5069 19.7702 13.5061 19.6889 13.589 19.6418L14.4706 19.1318C14.5178 19.1084 14.5698 19.0962 14.6226 19.0962C14.6753 19.0962 14.7273 19.1084 14.7746 19.1318L15.6607 19.6464ZM9.2661 21.8557C9.34894 21.9036 9.3535 21.9826 9.26686 22.032L8.2781 22.6043C8.23086 22.6277 8.17884 22.6399 8.1261 22.6399C8.07336 22.6399 8.02134 22.6277 7.9741 22.6043L7.08794 22.0898C7.0051 22.0419 7.0089 21.9636 7.09098 21.9165L8.0805 21.3442C8.12669 21.3198 8.17808 21.3068 8.23032 21.3065C8.28256 21.3061 8.33414 21.3182 8.3807 21.3419L9.2661 21.8557ZM10.5566 22.6043C10.6387 22.6522 10.6432 22.7304 10.5566 22.7806L9.56858 23.3521C9.52124 23.3757 9.46908 23.3879 9.4162 23.3879C9.36332 23.3879 9.31116 23.3757 9.26382 23.3521L8.37766 22.8384C8.29558 22.7905 8.29482 22.7092 8.37766 22.662L9.36566 22.0898C9.41273 22.0657 9.46482 22.0532 9.51766 22.0532C9.5705 22.0532 9.62259 22.0657 9.66966 22.0898L10.5566 22.6043ZM24.5672 23.8461C24.6538 23.8963 24.65 23.9753 24.5672 24.0224L24.1575 24.2596C24.1107 24.2842 24.0585 24.2971 24.0055 24.2971C23.9526 24.2971 23.9004 24.2842 23.8535 24.2596L22.9719 23.7473C22.8845 23.6972 22.8845 23.6212 22.9704 23.571L23.3808 23.3339C23.4279 23.3099 23.48 23.2973 23.5328 23.2973C23.5857 23.2973 23.6378 23.3099 23.6848 23.3339L24.5672 23.8461ZM23.2281 23.0694C23.3147 23.1196 23.3109 23.1986 23.2281 23.2457L22.8177 23.4828C22.7708 23.5075 22.7186 23.5203 22.6657 23.5203C22.6127 23.5203 22.5605 23.5075 22.5137 23.4828L21.6321 22.9706C21.5492 22.9227 21.5454 22.8444 21.6313 22.7943L22.0417 22.5572C22.0889 22.5337 22.141 22.5215 22.1937 22.5215C22.2464 22.5215 22.2985 22.5337 22.3457 22.5572L23.2281 23.0694ZM22.123 23.3932C22.2097 23.4433 22.2059 23.5224 22.123 23.5695L21.2414 24.0802C21.1943 24.1041 21.1422 24.1165 21.0893 24.1164C21.0365 24.1162 20.9844 24.1036 20.9374 24.0794L20.0551 23.568C19.9684 23.5178 19.9722 23.4388 20.0551 23.3916L20.9367 22.8817C20.9837 22.8577 21.0358 22.8451 21.0887 22.8451C21.1415 22.8451 21.1936 22.8577 21.2407 22.8817L22.123 23.3932ZM32.5996 28.5042C32.6817 28.552 32.6779 28.6303 32.5958 28.6782L32.1854 28.9153C32.1392 28.9396 32.0877 28.9524 32.0355 28.9527C31.9833 28.9529 31.9317 28.9407 31.8852 28.9168L30.9991 28.4031C30.9124 28.3529 30.9124 28.2769 30.9991 28.2268L31.4095 27.9896C31.4565 27.9656 31.5086 27.9531 31.5615 27.9531C31.6143 27.9531 31.6664 27.9656 31.7135 27.9896L32.5996 28.5042ZM22.522 27.9836C22.6087 28.0345 22.6056 28.1128 22.5228 28.1606L21.6412 28.6706C21.594 28.6947 21.5418 28.7073 21.4888 28.7073C21.4358 28.7073 21.3836 28.6947 21.3364 28.6706L20.4548 28.1591C20.3682 28.109 20.3712 28.0299 20.4541 27.9828L21.3357 27.4721C21.3828 27.4479 21.4351 27.4353 21.488 27.4353C21.541 27.4353 21.5933 27.4479 21.6404 27.4721L22.522 27.9836Z" fill="#5B5E71"/>
<path d="M18.3829 29.5831C18.5342 29.6705 18.5349 29.8081 18.3852 29.8947L14.5092 32.1473C14.426 32.1903 14.3338 32.2127 14.2402 32.2127C14.1466 32.2127 14.0543 32.1903 13.9711 32.1473L7.27098 28.2843C7.12278 28.1991 7.11898 28.0601 7.26946 27.9727L11.1455 25.72C11.2288 25.6775 11.321 25.6553 11.4145 25.6553C11.508 25.6553 11.6002 25.6775 11.6835 25.72L18.3829 29.5831Z" fill="#CAD0DD"/>
<path d="M32.5973 30.2684L32.5988 30.7548L33.6856 30.1278L33.6849 29.6406L32.5973 30.2684ZM31.322 31.0048L31.3235 31.4912L32.4103 30.8642L32.4088 30.3771L31.322 31.0048Z" fill="#5B5E71"/>
<path d="M16.3735 5.68501V5.88489L15.7344 5.51629V5.31641L16.3735 5.68501Z" fill="#ED435C"/>
<path d="M20.5611 9.1936V9.39272L16.3089 6.93792L16.3096 6.7388L20.5611 9.1936ZM17.6138 6.94704L17.613 7.1454L16.3112 6.393V6.1954L17.6138 6.94704ZM17.892 6.01756L17.8912 6.21744L15.7358 4.97332V4.77344L17.892 6.01756Z" fill="#E4E8F4"/>
<path d="M17.8937 5.47361L17.8929 5.67349L15.7375 4.42937V4.22949L17.8937 5.47361Z" fill="#EFAC41"/>
<path d="M23.7333 11.0235V11.2234L20.8316 9.54833V9.34921L23.7333 11.0235ZM17.6578 8.06101V8.26089L16.3073 7.48113L16.3081 7.28125L17.6578 8.06101ZM16.2503 9.42673L16.2496 9.62585L15.7236 9.32185V9.12273L16.2503 9.42673Z" fill="#ED435C"/>
<path d="M18.6177 14.0629V14.262L17.54 13.6403V13.4404L18.6177 14.0629Z" fill="#3C5DD6"/>
<path d="M16.812 12.4751L16.8113 12.675L15.7153 12.0427L15.7161 11.8428L16.812 12.4751Z" fill="#ED435C"/>
<path d="M17.3403 13.3253V13.5244L15.7139 12.5866L15.7146 12.3867L17.3403 13.3253Z" fill="#E4E8F4"/>
<path d="M18.4574 13.426V13.6258L16.98 12.7731V12.5732L18.4574 13.426Z" fill="#EFAC41"/>
<path d="M17.4596 10.6708V10.8692L15.7223 9.866V9.6684L17.4596 10.6708ZM18.8246 12.548V12.7472L15.7192 10.9551V10.7552L18.8246 12.548ZM19.1902 12.2144L19.1894 12.4143L15.72 10.4117V10.2118L19.1902 12.2144ZM18.7448 10.8684V11.0676L16.483 9.76112V9.562L18.7448 10.8684ZM18.7471 10.3243V10.5242L15.7253 8.77996V8.58008L18.7471 10.3243Z" fill="#E4E8F4"/>
<path d="M19.8583 12.0563V12.2539L17.6353 10.971V10.7734L19.8583 12.0563Z" fill="#3C5DD6"/>
<path d="M18.4621 9.615V9.81488L16.3044 8.57L16.3052 8.37012L18.4621 9.615Z" fill="#E4E8F4"/>
<path d="M18.2325 8.93784V9.13696L16.3059 8.02508L16.3067 7.8252L18.2325 8.93784Z" fill="#3C5DD6"/>
<path d="M21.6433 10.3621V10.562L17.8555 8.37545L17.8562 8.17557L21.6433 10.3621ZM22.1115 11.1768L22.1107 11.3759L18.4627 9.27073V9.07085L22.1115 11.1768ZM23.7318 11.5675V11.7673L22.0788 10.8135L22.0795 10.6137L23.7318 11.5675ZM23.7348 10.4807V10.679L19.7144 8.35873L19.7159 8.16113L23.7348 10.4807Z" fill="#E4E8F4"/>
<path d="M19.5519 8.06572V8.26332L18.0806 7.4144L18.0813 7.2168L19.5519 8.06572Z" fill="#EFAC41"/>
<path d="M23.7305 12.1117V12.3108L22.3975 11.5417V11.3418L23.7305 12.1117Z" fill="#E4E8F4"/>
<path d="M18.4415 16.6841V16.8832L16.2847 15.6384V15.4385L18.4415 16.6841Z" fill="#3C5DD6"/>
<path d="M19.3119 16.6414V16.8413L16.2871 15.0948V14.895L19.3119 16.6414ZM17.8147 15.2332V15.4323L16.2879 14.5507V14.3516L17.8147 15.2332ZM19.9305 15.9096L19.9298 16.1079L17.7744 14.8638V14.6654L19.9305 15.9096ZM21.3198 16.1664V16.3663L19.5825 15.3631V15.164L21.3198 16.1664Z" fill="#E4E8F4"/>
<path d="M24.371 15.7505V15.9497L20.2419 13.5663V13.3672L24.371 15.7505Z" fill="#ED435C"/>
<path d="M19.3908 15.0532V15.2531L18.5183 14.7492L18.5191 14.5494L19.3908 15.0532ZM21.0453 14.3738V14.5737L19.1909 13.5036L19.1917 13.3037L21.0453 14.3738Z" fill="#E4E8F4"/>
<path d="M29.4366 18.674V18.8738L27.4712 17.7392V17.54L29.4366 18.674Z" fill="#EFAC41"/>
<path d="M22.3836 16.2368V16.4367L20.1355 15.1386V14.9395L22.3836 16.2368Z" fill="#E4E8F4"/>
<path d="M23.9324 16.5863L23.9317 16.7862L20.0215 14.529V14.3291L23.9324 16.5863Z" fill="#ED435C"/>
<path d="M25.239 17.8853V18.0852L22.6838 16.6108V16.4102L25.239 17.8853Z" fill="#E4E8F4"/>
<path d="M26.0955 18.9238V19.1236L21.5659 16.5085V16.3086L26.0955 18.9238Z" fill="#EFAC41"/>
<path d="M27.6771 19.8367V20.0366L26.4634 19.3358V19.1367L27.6771 19.8367Z" fill="#ED435C"/>
<path d="M26.7277 17.6545V17.8544L21.3719 14.7619V14.5628L26.7277 17.6545ZM27.2125 17.39V17.5899L24.5343 16.0433V15.8442L27.2125 17.39ZM28.443 19.1905V19.3903L24.1634 16.9203V16.7197L28.443 19.1905ZM29.4317 20.3054V20.5053L25.4904 18.2306L25.4911 18.0307L29.4317 20.3054ZM29.4333 19.762V19.9619L28.6672 19.5195V19.3204L29.4333 19.762ZM29.4348 19.2171V19.4169L26.9237 17.9676V17.7677L29.4348 19.2171ZM22.9223 14.369V14.5681L19.478 12.58L19.4788 12.3809L22.9223 14.369Z" fill="#E4E8F4"/>
<path d="M6.5749 13.4309L6.5673 16.8517C6.56426 16.9832 6.51866 17.0736 6.44646 17.1169L5.69178 17.5555C5.76398 17.5129 5.81262 17.4217 5.81262 17.291L5.82022 13.8702C5.82326 13.608 5.63554 13.2865 5.4083 13.1558L2.43214 11.4375C2.31738 11.3706 2.2125 11.3653 2.13574 11.4078L2.88966 10.9693C2.96718 10.926 3.07206 10.9313 3.18682 10.9982L6.16298 12.7165C6.39098 12.8503 6.57794 13.1687 6.5749 13.4309Z" fill="#F9BB4A"/>
<path d="M5.40683 13.1555C5.63635 13.2878 5.82255 13.607 5.82179 13.8699L5.81191 17.2907C5.81115 17.5537 5.62419 17.6585 5.39543 17.5263L2.42003 15.8079C2.19127 15.6757 2.00583 15.3557 2.00659 15.0928L2.01571 11.6728C2.01647 11.4091 2.20343 11.3049 2.43219 11.4372L5.40683 13.1555Z" fill="#EFAC41"/>
<path d="M3.04475 13.5088L3.04171 14.4596L2.84943 14.3486L2.85019 13.958L2.47399 13.7406L2.47247 14.1313L2.28247 14.0211L2.28475 13.0703L2.47551 13.1805L2.47475 13.5552L2.85095 13.7726L2.85171 13.3979L3.04475 13.5088ZM3.86783 13.9838V14.164L3.60183 14.0104L3.60031 14.7818L3.40955 14.6724L3.41183 13.901L3.14583 13.7475L3.14659 13.5674L3.86783 13.9838ZM4.90219 14.5812V15.5335L4.72283 15.4301L4.72207 14.8586L4.47811 15.19L4.39147 15.1398L4.15055 14.5409L4.14903 15.0988L3.96967 14.9954L3.97271 14.0446L4.12851 14.1343L4.43783 14.9057L4.74563 14.4908L4.90219 14.5812ZM5.29283 14.8062L5.28979 15.5776L5.70551 15.8177L5.70475 15.9971L5.09903 15.6475L5.10207 14.6967L5.29283 14.8062Z" fill="white"/>
<path d="M8.85957 3.52087L8.85197 6.94087C8.84893 7.07311 8.80333 7.16355 8.73113 7.20687L7.97645 7.64539C8.04865 7.60283 8.09729 7.51163 8.09729 7.38015L8.10489 3.96015C8.10793 3.69795 7.92021 3.37647 7.69297 3.24575L4.71681 1.52739C4.60205 1.46051 4.49717 1.45519 4.42041 1.49775L5.17433 1.05847C5.25185 1.01591 5.35673 1.02123 5.47149 1.08887L8.44765 2.80647C8.67565 2.94023 8.86261 3.25867 8.85957 3.52087Z" fill="#75CA75"/>
<path d="M7.69202 3.24582C7.92078 3.37882 8.10622 3.69802 8.10622 3.96098L8.09634 7.38098C8.09558 7.6447 7.90862 7.74958 7.67986 7.61658L4.70446 5.89898C4.4757 5.7675 4.29026 5.44754 4.29102 5.18458L4.30014 1.76458C4.3009 1.50086 4.48786 1.39674 4.71662 1.52898L7.69202 3.24582Z" fill="#65AA65"/>
<path d="M5.26848 3.4866C5.36576 3.54284 5.45088 3.60896 5.52916 3.69332C5.60516 3.7754 5.67204 3.86964 5.72296 3.97224L5.5588 4.0528C5.49697 3.92578 5.40021 3.81901 5.27988 3.745C5.22532 3.70993 5.1623 3.69023 5.09748 3.688C5.07188 3.68891 5.04688 3.69602 5.02464 3.70873C5.0024 3.72144 4.98358 3.73937 4.9698 3.76096C4.9394 3.80656 4.9242 3.86736 4.92344 3.94412C4.92344 4.02468 4.93864 4.10296 4.96904 4.18352C4.99868 4.26332 5.04124 4.33704 5.0952 4.40012C5.14575 4.46338 5.2076 4.51673 5.2776 4.55744C5.39008 4.62204 5.48128 4.62584 5.55728 4.56884L5.72068 4.83788C5.66528 4.88076 5.59598 4.9016 5.52612 4.8964C5.43212 4.88331 5.34197 4.85042 5.26164 4.79988C5.14527 4.73131 5.04165 4.64312 4.95536 4.5392C4.86606 4.43139 4.79355 4.31071 4.74028 4.18124C4.69063 4.05858 4.66508 3.92749 4.66504 3.79516C4.66504 3.66976 4.69012 3.57172 4.74256 3.50028C4.76777 3.46681 4.80036 3.43959 4.83779 3.42074C4.87522 3.40189 4.91649 3.39192 4.9584 3.3916C5.06852 3.39423 5.17579 3.42709 5.26848 3.4866ZM6.2884 4.0756C6.36136 4.1174 6.43128 4.16452 6.49816 4.22456C6.56504 4.28384 6.62508 4.34616 6.67372 4.40924L6.59468 4.58708C6.50981 4.47673 6.40581 4.38251 6.28764 4.30892C6.21544 4.26712 6.16376 4.25116 6.12728 4.258C6.09308 4.26636 6.07788 4.29296 6.07788 4.33476C6.07788 4.38036 6.09612 4.42216 6.13564 4.46548C6.17516 4.50956 6.2352 4.5658 6.31804 4.63344C6.4024 4.70716 6.46928 4.76644 6.52324 4.82268C6.57872 4.87588 6.62356 4.93972 6.66308 5.01192C6.69956 5.08184 6.72084 5.16392 6.72008 5.24752C6.72008 5.32048 6.70184 5.37672 6.66536 5.41472C6.63116 5.45424 6.57644 5.47172 6.50652 5.4664C6.4366 5.46108 6.34844 5.42764 6.24812 5.36988C6.15742 5.3165 6.07215 5.25439 5.99352 5.18444C5.91933 5.11804 5.85303 5.04332 5.79592 4.96176L5.88484 4.78924C5.93348 4.85916 5.9882 4.92224 6.05508 4.98532C6.11892 5.04612 6.18504 5.09932 6.24888 5.1358C6.32184 5.17836 6.37656 5.19584 6.41304 5.19204C6.44648 5.18748 6.46472 5.1624 6.46548 5.1206L6.43508 5.0294C6.41274 4.99507 6.38618 4.96366 6.35604 4.93592C6.3226 4.90248 6.28004 4.86752 6.22608 4.81812C6.15382 4.75848 6.08385 4.69611 6.01632 4.63116C5.96222 4.57441 5.91618 4.51047 5.87952 4.44116C5.84086 4.36712 5.82152 4.28451 5.82328 4.201C5.82328 4.12804 5.83848 4.07028 5.87496 4.03228C5.9084 3.98896 5.96312 3.97528 6.0338 3.9806C6.1245 3.99363 6.21133 4.02603 6.2884 4.0756ZM7.2992 4.65852C7.37292 4.70108 7.43904 4.74668 7.50896 4.80824C7.57584 4.86752 7.6336 4.92908 7.68528 4.99368L7.60548 5.17152C7.52058 5.06147 7.41689 4.9673 7.2992 4.89336C7.22624 4.8508 7.17456 4.83484 7.13808 4.84168C7.10464 4.8508 7.0864 4.87512 7.0864 4.91692C7.0864 4.96252 7.10692 5.00584 7.1472 5.04992C7.18596 5.09324 7.246 5.14872 7.32884 5.21712C7.4132 5.29084 7.48084 5.35012 7.5348 5.40712C7.58952 5.4588 7.63512 5.5234 7.67388 5.5956C7.71036 5.66552 7.73164 5.7476 7.73164 5.8312C7.73164 5.90416 7.71264 5.9604 7.67616 5.9984C7.64272 6.03868 7.588 6.0554 7.51808 6.05008C7.44816 6.04476 7.36 6.01132 7.25968 5.95356C7.16872 5.90022 7.08319 5.83811 7.00432 5.76812C6.92999 5.70208 6.86389 5.62732 6.80748 5.54544L6.8964 5.37368C6.942 5.44208 6.999 5.50592 7.06588 5.569C7.12972 5.6298 7.1966 5.683 7.26044 5.71948C7.3334 5.76204 7.38812 5.77952 7.4246 5.77572C7.45804 5.77116 7.47628 5.74608 7.47628 5.70428L7.44588 5.61308C7.42378 5.57879 7.39748 5.54738 7.3676 5.5196C7.33416 5.48616 7.2916 5.4512 7.23384 5.40028C7.15176 5.33188 7.08184 5.26728 7.02712 5.21484C6.97226 5.15735 6.92547 5.09266 6.88804 5.02256C6.85043 4.94837 6.8309 4.86634 6.83104 4.78316C6.83104 4.7102 6.84928 4.65396 6.88652 4.61596C6.91996 4.57264 6.97164 4.55668 7.0446 4.56428C7.13556 4.5772 7.22267 4.60961 7.29996 4.65928L7.2992 4.65852Z" fill="white"/>
<path d="M12.4778 11.916L12.4702 15.336C12.4671 15.4675 12.4215 15.5579 12.3493 15.6013L11.5946 16.0398C11.6668 15.9972 11.7155 15.906 11.7155 15.7753L11.7231 12.3553C11.7261 12.0923 11.5384 11.7709 11.3112 11.6401L8.335 9.92177C8.21948 9.85489 8.11536 9.84957 8.03784 9.89213L8.79252 9.45361C8.87004 9.41029 8.97492 9.41561 9.08968 9.48325L12.0658 11.2009C12.2938 11.3346 12.4808 11.6538 12.4778 11.916Z" fill="#EBC5B2"/>
<path d="M11.3105 11.6404C11.5392 11.7727 11.7247 12.0919 11.7239 12.3548L11.7148 15.7756C11.714 16.0385 11.5271 16.1434 11.2983 16.0112L8.32289 14.2936C8.09413 14.1613 7.90793 13.8414 7.90869 13.5792L7.91857 10.1577C7.91933 9.8947 8.10629 9.79058 8.33505 9.92206L11.3105 11.6404Z" fill="#DDAF9B"/>
<path d="M9.2235 12.1188L9.22198 12.4494L8.45134 12.3308L9.22046 13.0954L9.2197 13.426L8.12378 12.3088V11.9683L9.2235 12.1188ZM10.3711 12.1294L9.6035 14.1875L9.2843 14.0036L10.0527 11.9463L10.3711 12.1294ZM10.4137 12.8058L11.5096 13.923L11.5088 14.2635L10.4099 14.113L10.4106 13.7824L11.1775 13.904L10.4129 13.1364L10.4137 12.8058Z" fill="white"/>
<path d="M35.7924 19.861L35.7848 23.281C35.7818 23.4125 35.7362 23.5037 35.664 23.547L34.9093 23.9855C34.9815 23.9422 35.0302 23.8518 35.0302 23.7203L35.0378 20.3003C35.0408 20.0373 34.8531 19.7166 34.6258 19.5859L31.6497 17.8668C31.5349 17.7999 31.43 17.7946 31.3533 17.8379L32.1072 17.3986C32.1847 17.356 32.2896 17.3606 32.4044 17.4282L35.3805 19.1458C35.6085 19.2804 35.7955 19.5996 35.7924 19.861Z" fill="#F25574"/>
<path d="M34.6249 19.5853C34.8536 19.7175 35.0391 20.0375 35.0391 20.2997L35.0292 23.7205C35.0284 23.9842 34.8415 24.0883 34.6127 23.9561L31.6373 22.2385C31.4086 22.1062 31.2231 21.787 31.2239 21.5241L31.233 18.1033C31.2338 17.8403 31.4207 17.7355 31.6495 17.8677L34.6249 19.5853Z" fill="#ED435C"/>
<path d="M32.3656 20.2246C32.3984 20.3003 32.4153 20.3821 32.415 20.4647C32.415 20.5468 32.399 20.6099 32.3648 20.6509C32.3306 20.6912 32.2827 20.7094 32.2204 20.7034C32.1412 20.6943 32.0653 20.667 31.9985 20.6236L31.8047 20.5118L31.8032 20.8166L31.5828 20.6889L31.5858 19.5869L32.0008 19.8263C32.0851 19.875 32.1588 19.9327 32.2212 20.0026C32.285 20.0718 32.3321 20.1448 32.3656 20.2246ZM32.1391 20.4472C32.1733 20.4343 32.1923 20.3994 32.1923 20.3363C32.1917 20.2748 32.1732 20.2148 32.1391 20.1638C32.1 20.1068 32.0479 20.0599 31.9871 20.027L31.8062 19.9228L31.8047 20.3066L31.9863 20.4108C32.0517 20.4488 32.1056 20.4609 32.1391 20.4472ZM33.4546 20.6654L33.4516 21.7681L33.2312 21.6404L33.232 21.1875L32.7957 20.9359L32.7942 21.3889L32.5708 21.2597L32.5738 20.1577L32.7972 20.2869L32.7965 20.7216L33.2327 20.9732L33.2335 20.5384L33.4546 20.6654ZM34.4632 21.436C34.496 21.5118 34.5128 21.5936 34.5126 21.6762C34.5126 21.7575 34.4966 21.8206 34.4624 21.8616C34.4274 21.9019 34.3803 21.9201 34.3172 21.914C34.2387 21.905 34.1633 21.8779 34.0968 21.835L33.9015 21.7225V22.028L33.6804 21.9004L33.6834 20.7984L34.0984 21.0378C34.182 21.0864 34.2564 21.1442 34.3188 21.2133C34.3818 21.2832 34.4297 21.3554 34.4632 21.436ZM34.2359 21.6587C34.2709 21.645 34.2891 21.61 34.2891 21.547C34.289 21.4856 34.2711 21.4257 34.2374 21.3744C34.1985 21.3175 34.1463 21.2708 34.0854 21.2384L33.903 21.1335V21.5173L34.0839 21.6222C34.1523 21.6617 34.2017 21.6724 34.2359 21.6587Z" fill="white"/>
<path d="M31.7453 7.98502L31.737 11.405C31.7339 11.5365 31.6891 11.6277 31.6161 11.671L30.8615 12.1095C30.9337 12.0662 30.9823 11.9758 30.9823 11.8443L30.9899 8.4243C30.9929 8.16134 30.8052 7.84063 30.578 7.70991L27.6018 5.99078C27.4871 5.9239 27.3822 5.91858 27.3054 5.9619L28.0593 5.52262C28.1369 5.48006 28.2417 5.48462 28.3565 5.55226L31.3327 7.26986C31.5607 7.40438 31.7476 7.72282 31.7453 7.98502Z" fill="#576CFB"/>
<path d="M30.5773 7.70835C30.806 7.84059 30.9922 8.16055 30.9915 8.42275L30.9816 11.8435C30.9808 12.1072 30.7939 12.2114 30.5651 12.0791L27.5897 10.3615C27.361 10.2293 27.1755 9.91007 27.1763 9.64711L27.1854 6.22635C27.1861 5.96339 27.3731 5.85851 27.6019 5.99075L30.5773 7.70835Z" fill="#4562EF"/>
<path d="M28.8186 7.32462L28.8179 7.73274L28.7624 7.70082C28.6955 7.66282 28.64 7.64914 28.6066 7.67498C28.5678 7.69018 28.5511 7.7449 28.5503 7.82166L28.5488 8.3567C28.5488 8.47146 28.5321 8.54518 28.504 8.58014C28.4705 8.61814 28.4204 8.62802 28.3535 8.61434C28.4168 8.67276 28.4677 8.74332 28.5032 8.82182C28.5306 8.89554 28.5473 8.98826 28.5473 9.10302L28.5458 9.63198C28.5433 9.707 28.5616 9.78124 28.5986 9.84654C28.6356 9.91183 28.6899 9.96566 28.7555 10.0021L28.811 10.0348L28.8103 10.4368L28.6377 10.3373C28.4712 10.2458 28.3318 10.1121 28.2334 9.94966C28.14 9.79259 28.0924 9.61254 28.0959 9.42982L28.0974 8.83094L28.0647 8.69034L27.9705 8.59762L27.8762 8.5429L27.877 8.13478L27.9712 8.1895L28.0662 8.20546L28.0997 8.11046L28.1012 7.50474C28.1012 7.31322 28.1468 7.19238 28.241 7.1445C28.3307 7.09358 28.469 7.12322 28.6469 7.22582L28.8186 7.32462ZM29.5239 7.73198C29.7063 7.83762 29.8401 7.9653 29.9343 8.12186C30.0278 8.27842 30.0711 8.45018 30.0711 8.6417L30.0696 9.24742L30.1023 9.38194L30.1965 9.4739L30.2907 9.52862L30.29 9.93674L30.1957 9.88202L30.1015 9.86682L30.0673 9.9679L30.0658 10.5675C30.0658 10.7583 30.0202 10.8791 29.9259 10.927C29.8309 10.9749 29.6979 10.9498 29.5148 10.8434L29.3476 10.7469L29.3491 10.3456L29.4046 10.3775C29.4715 10.4155 29.5216 10.4193 29.5604 10.4034C29.5938 10.3783 29.6166 10.3335 29.6166 10.2514L29.6181 9.72166C29.6181 9.6069 29.6295 9.53014 29.6637 9.49138C29.6964 9.45338 29.7413 9.44122 29.8135 9.45718C29.749 9.39979 29.6979 9.32897 29.6637 9.2497C29.6295 9.1625 29.6147 9.06886 29.6204 8.97534L29.6219 8.43954C29.6219 8.36354 29.5991 8.28678 29.5665 8.22902C29.5298 8.16463 29.4762 8.11153 29.4114 8.0755L29.3559 8.04358L29.3575 7.63546L29.5239 7.73198Z" fill="white"/>
<path d="M8.06299 7.54728C8.08624 7.49467 8.09765 7.43759 8.09643 7.38008L8.10099 5.7666L8.09719 7.38008C8.09719 7.44696 8.08427 7.50168 8.06299 7.54728Z" fill="#E4E8F4"/>
</svg>
