<svg width="38" height="38" viewBox="0 0 38 38" fill="none" xmlns="http://www.w3.org/2000/svg">
<g clip-path="url(#clip0_1832_14985)">
<path d="M19 0C13.1335 0 8.3606 4.77286 8.3606 10.6395V15.8491C8.3606 16.2039 8.64849 16.4916 9.00326 16.4916H12.57C12.7404 16.4915 12.9038 16.4238 13.0242 16.3034C13.1447 16.1829 13.2124 16.0195 13.2124 15.8491V10.6395C13.2124 7.44822 15.8087 4.8519 18.9999 4.8519C22.1912 4.8519 24.7874 7.44822 24.7874 10.6395V15.8491C24.7874 16.2039 25.0754 16.4916 25.4302 16.4916H28.997C29.1674 16.4915 29.3307 16.4238 29.4512 16.3034C29.5717 16.1829 29.6394 16.0195 29.6394 15.8491V10.6395C29.6395 4.77286 24.8666 0 19 0ZM28.3546 15.2067H26.0725V10.6395C26.0725 6.73973 22.8998 3.56703 19.0002 3.56703C15.1005 3.56703 11.9278 6.73973 11.9278 10.6395V15.2067H9.64569V10.6395C9.64569 5.48135 13.842 1.28495 19.0001 1.28495C24.1582 1.28495 28.3546 5.48135 28.3546 10.6395V15.2067Z" fill="black"/>
<path d="M30.4765 15.207H7.52372C6.00186 15.207 4.76367 16.4452 4.76367 17.9671V35.2403C4.76367 36.7622 6.00186 38.0004 7.52372 38.0004H30.4765C31.9984 38.0004 33.2365 36.7622 33.2365 35.2402V17.9671C33.2365 16.4452 31.9984 15.207 30.4765 15.207ZM31.9516 35.2402C31.9516 36.0537 31.2899 36.7154 30.4765 36.7154H7.52372C6.71028 36.7154 6.04855 36.0537 6.04855 35.2402V17.9671C6.04855 17.1536 6.71028 16.4919 7.52372 16.4919H30.4765C31.2899 16.4919 31.9516 17.1536 31.9516 17.9671V35.2402Z" fill="black"/>
<path d="M21.1607 27.4444C21.9113 26.8119 22.348 25.8874 22.348 24.8938C22.348 23.0478 20.8461 21.5459 19.0001 21.5459C17.154 21.5459 15.6521 23.0478 15.6521 24.8938C15.6521 25.8874 16.0889 26.8119 16.8396 27.4445L16.1174 30.8854C16.0978 30.979 16.0993 31.0757 16.1218 31.1686C16.1443 31.2615 16.1872 31.3481 16.2474 31.4223C16.3077 31.4965 16.3837 31.5564 16.47 31.5975C16.5562 31.6386 16.6506 31.6599 16.7462 31.66H21.2541C21.3496 31.66 21.444 31.6387 21.5303 31.5976C21.6165 31.5565 21.6926 31.4967 21.7528 31.4225C21.813 31.3483 21.8559 31.2616 21.8784 31.1687C21.9009 31.0758 21.9023 30.9791 21.8827 30.8856L21.1607 27.4444ZM20.1024 26.6308C19.9922 26.701 19.906 26.8031 19.8553 26.9235C19.8046 27.0439 19.7918 27.177 19.8186 27.3048L20.4628 30.375H17.5375L18.1818 27.305C18.2087 27.1772 18.1959 27.0442 18.1452 26.9237C18.0945 26.8033 18.0083 26.7012 17.898 26.6311C17.2963 26.2481 16.937 25.5986 16.937 24.8939C16.937 23.7564 17.8625 22.8309 19.0001 22.8309C20.1377 22.8309 21.0631 23.7564 21.0631 24.8939C21.0632 25.5988 20.704 26.2481 20.1024 26.6308Z" fill="black"/>
</g>
<defs>
<clipPath id="clip0_1832_14985">
<rect width="38" height="38" fill="white"/>
</clipPath>
</defs>
</svg>
