<svg width="21" height="26" viewBox="0 0 21 26" fill="none" xmlns="http://www.w3.org/2000/svg">
<path d="M3.99885 6.58828H15.9989C16.3989 6.58828 16.7047 6.2824 16.7047 5.8824C16.7047 5.4824 16.3989 5.17651 15.9989 5.17651H3.99885C3.59885 5.17651 3.29297 5.4824 3.29297 5.8824C3.29297 6.2824 3.59885 6.58828 3.99885 6.58828ZM16.7047 9.41181C16.7047 9.01181 16.3989 8.70593 15.9989 8.70593H3.99885C3.59885 8.70593 3.29297 9.01181 3.29297 9.41181C3.29297 9.81181 3.59885 10.1177 3.99885 10.1177H15.9989C16.3989 10.1177 16.7047 9.81181 16.7047 9.41181ZM3.99885 12.2353C3.59885 12.2353 3.29297 12.5412 3.29297 12.9412C3.29297 13.3412 3.59885 13.6471 3.99885 13.6471H9.52826C9.92826 13.6471 10.2341 13.3412 10.2341 12.9412C10.2341 12.5412 9.92826 12.2353 9.52826 12.2353H3.99885Z" fill="#262626"/>
<path d="M11.4118 24.2353C11.4118 23.8353 11.1059 23.5294 10.7059 23.5294H3.05882C2.14118 23.5294 1.41176 22.8 1.41176 21.8824V3.05882C1.41176 2.14118 2.14118 1.41177 3.05882 1.41177H17.4118C18.3294 1.41177 19.0588 2.14118 19.0588 3.05882V21.8824C19.0588 22.8 18.3294 23.5294 17.4118 23.5294H16.7059C16.3059 23.5294 16 23.8353 16 24.2353C16 24.6353 16.3059 24.9412 16.7059 24.9412H17.4118C19.1059 24.9412 20.4706 23.5765 20.4706 21.8824V3.05882C20.4706 1.36471 19.1059 0 17.4118 0H3.05882C1.36471 0 0 1.36471 0 3.05882V21.8824C0 23.5765 1.36471 24.9412 3.05882 24.9412H10.7059C11.1059 24.9412 11.4118 24.6353 11.4118 24.2353Z" fill="#262626"/>
<path d="M13.7659 25.3176L15.3659 25.9999V23.5529C16.2129 22.9882 16.7776 22.0235 16.7776 20.8941C16.7776 19.1764 15.4129 17.7646 13.7423 17.7646C12.0717 17.7646 10.707 19.1764 10.707 20.8941C10.707 21.9999 11.2717 22.9882 12.1188 23.5529V25.9999L13.7659 25.3176ZM12.1423 20.8941C12.1423 19.9529 12.8717 19.1764 13.7659 19.1764C14.66 19.1764 15.3894 19.9529 15.3894 20.8941C15.3894 21.8352 14.66 22.6117 13.7659 22.6117C12.8717 22.6117 12.1423 21.8352 12.1423 20.8941Z" fill="#262626"/>
</svg>
