<svg width="60" height="61" viewBox="0 0 60 61" fill="none" xmlns="http://www.w3.org/2000/svg">
<path d="M10.943 57.3857H47.153C48.493 57.3809 49.7764 56.8453 50.7222 55.8961C51.668 54.947 52.1991 53.6616 52.199 52.3217V44.5217C52.7854 44.2138 53.2754 43.75 53.6152 43.1816C53.955 42.6131 54.1314 41.9619 54.125 41.2997V32.8577C54.137 32.1904 53.9632 31.5329 53.6231 30.9586C53.283 30.3843 52.79 29.9159 52.199 29.6057V21.8057C52.199 20.4626 51.6655 19.1746 50.7158 18.2249C49.7662 17.2752 48.4781 16.7417 47.135 16.7417H39.101L42.287 4.74168C42.3221 4.60837 42.3263 4.46882 42.2992 4.33365C42.2722 4.19848 42.2147 4.07126 42.131 3.96168C42.0454 3.84975 41.9343 3.75981 41.8071 3.6993C41.6798 3.63879 41.5399 3.60944 41.399 3.61368L24.083 3.64968C23.9169 3.65459 23.7554 3.7054 23.6163 3.79649C23.4773 3.88758 23.3662 4.01539 23.2954 4.16575C23.2246 4.31611 23.1968 4.48315 23.2151 4.64835C23.2333 4.81356 23.297 4.97046 23.399 5.10168L26.399 8.98968L23.357 11.3357C21.481 12.773 19.9583 14.62 18.905 16.7357H10.943C9.59944 16.7357 8.31077 17.269 7.36013 18.2185C6.4095 19.168 5.87464 20.4561 5.87305 21.7997V52.3217C5.87464 53.6653 6.4095 54.9533 7.36013 55.9028C8.31077 56.8523 9.59944 57.3857 10.943 57.3857ZM52.325 41.2997C52.367 41.7329 52.236 42.1652 51.9607 42.5024C51.6854 42.8395 51.288 43.0542 50.855 43.0997H42.983C41.3917 43.0997 39.8656 42.4675 38.7404 41.3423C37.6152 40.2171 36.983 38.691 36.983 37.0997C36.983 35.5084 37.6152 33.9823 38.7404 32.857C39.8656 31.7318 41.3917 31.0997 42.983 31.0997H50.855C51.288 31.1451 51.6854 31.3598 51.9607 31.697C52.236 32.0341 52.367 32.4664 52.325 32.8997V41.2997ZM24.449 12.7637L28.199 9.86568C28.2935 9.79382 28.3724 9.70365 28.4312 9.60055C28.49 9.49745 28.5273 9.38356 28.541 9.26568C28.5699 9.02872 28.5054 8.78984 28.361 8.59968L25.931 5.44968L40.247 5.41368L36.599 19.2497L34.199 16.1057C34.0521 15.9171 33.8366 15.7943 33.5994 15.7639C33.3623 15.7336 33.1227 15.7982 32.933 15.9437L26.453 20.8997C23.4907 23.1817 21.4517 26.4564 20.711 30.1217C19.7265 28.2712 19.1765 26.2207 19.1026 24.1259C19.0288 22.031 19.4332 19.9469 20.285 18.0317C20.284 18.0097 20.284 17.9877 20.285 17.9657C21.2246 15.9159 22.6547 14.1292 24.449 12.7637ZM7.64905 21.8237C7.65064 20.9575 7.99585 20.1273 8.60893 19.5153C9.222 18.9034 10.0528 18.5597 10.919 18.5597H18.119C17.775 19.5667 17.5338 20.606 17.399 21.6617C17.1308 23.6882 17.2674 25.7478 17.8009 27.7212C18.3344 29.6945 19.2542 31.5424 20.507 33.1577L20.573 33.2417C20.6566 33.3519 20.7645 33.4412 20.8884 33.5026C21.0123 33.5641 21.1488 33.5959 21.287 33.5957C21.3805 33.5935 21.4732 33.5794 21.563 33.5537C21.7348 33.4921 21.884 33.3802 21.991 33.2324C22.0981 33.0847 22.158 32.9081 22.163 32.7257C22.2342 30.7068 22.7503 28.7285 23.6744 26.9321C24.5986 25.1357 25.9079 23.5655 27.509 22.3337L33.281 17.8997L36.281 21.7757C36.3835 21.9099 36.5217 22.0126 36.6798 22.072C36.8379 22.1315 37.0095 22.1452 37.175 22.1117C37.3319 22.0783 37.4771 22.0041 37.5962 21.8967C37.7152 21.7892 37.8038 21.6523 37.853 21.4997L38.627 18.5837H47.153C48.011 18.5899 48.8321 18.9331 49.4393 19.5392C50.0465 20.1453 50.3912 20.9658 50.399 21.8237V29.2997H42.983C40.9144 29.2997 38.9304 30.1215 37.4676 31.5843C36.0048 33.047 35.183 35.031 35.183 37.0997C35.183 39.1684 36.0048 41.1523 37.4676 42.6151C38.9304 44.0779 40.9144 44.8997 42.983 44.8997H50.399V52.3217C50.3975 53.1869 50.0531 54.0161 49.4413 54.6279C48.8295 55.2397 48.0002 55.5841 47.135 55.5857H10.943C10.0768 55.5857 9.246 55.242 8.63293 54.63C8.01985 54.0181 7.67464 53.1879 7.67305 52.3217L7.64905 21.8237ZM42.947 33.8837C42.3178 33.8884 41.704 34.0791 41.1828 34.4316C40.6615 34.7842 40.2561 35.2829 40.0175 35.8652C39.7789 36.4475 39.7177 37.0873 39.8416 37.7042C39.9656 38.3212 40.2691 38.8877 40.7141 39.3327C41.159 39.7776 41.7256 40.0812 42.3425 40.2051C42.9594 40.329 43.5993 40.2678 44.1815 40.0292C44.7638 39.7906 45.2626 39.3852 45.6151 38.864C45.9677 38.3427 46.1583 37.7289 46.163 37.0997C46.1662 36.6785 46.086 36.2608 45.927 35.8708C45.768 35.4807 45.5334 35.126 45.2367 34.8271C44.9399 34.5281 44.587 34.2908 44.1981 34.1289C43.8093 33.967 43.3923 33.8837 42.971 33.8837H42.947ZM42.947 38.4617C42.6715 38.4569 42.4037 38.3704 42.1773 38.2132C41.951 38.056 41.7764 37.8352 41.6757 37.5788C41.575 37.3223 41.5526 37.0417 41.6115 36.7725C41.6704 36.5033 41.8078 36.2577 42.0064 36.0667C42.205 35.8756 42.4558 35.7479 42.7271 35.6995C42.9983 35.6511 43.2778 35.6844 43.5302 35.795C43.7826 35.9056 43.9964 36.0887 44.1447 36.3209C44.2929 36.5532 44.3689 36.8242 44.363 37.0997C44.3552 37.4636 44.2051 37.81 43.9449 38.0646C43.6847 38.3192 43.3351 38.4618 42.971 38.4617H42.947Z" fill="black"/>
</svg>
