<svg width="60" height="60" viewBox="0 0 60 60" fill="none" xmlns="http://www.w3.org/2000/svg">
<path d="M54.375 27.5768V21.5993C54.3731 20.1081 53.7798 18.6785 52.7253 17.624C51.6709 16.5696 50.2413 15.9763 48.75 15.9743H46.875V8.39933C46.8765 7.47988 46.6523 6.5741 46.2223 5.76142C45.7922 4.94873 45.1694 4.25394 44.4084 3.73795C43.6473 3.22196 42.7714 2.90053 41.8572 2.80183C40.9431 2.70313 40.0187 2.83018 39.165 3.17183L30.465 6.64808C28.0901 4.33565 25.0856 2.77547 21.8279 2.16302C18.5702 1.55057 15.2043 1.91308 12.1517 3.20513C9.09914 4.49719 6.49573 6.66133 4.66766 9.42642C2.83959 12.1915 1.86814 15.4346 1.87504 18.7493C1.90333 19.3396 1.96342 19.928 2.05504 20.5118C1.94778 20.8649 1.88726 21.2305 1.87504 21.5993V51.5993C1.87702 53.0906 2.47029 54.5202 3.52475 55.5746C4.57921 56.6291 6.0088 57.2224 7.50004 57.2243H48.75C50.2413 57.2224 51.6709 56.6291 52.7253 55.5746C53.7798 54.5202 54.3731 53.0906 54.375 51.5993V45.6368C55.4686 45.2514 56.4161 44.537 57.0875 43.5916C57.7589 42.6463 58.1213 41.5163 58.125 40.3568V32.8568C58.1213 31.6973 57.7589 30.5674 57.0875 29.6221C56.4161 28.6767 55.4686 27.9623 54.375 27.5768ZM40.5488 6.65183C40.834 6.53679 41.1432 6.4937 41.4491 6.52635C41.7549 6.559 42.048 6.66639 42.3026 6.83905C42.5571 7.01171 42.7653 7.24435 42.9087 7.51645C43.0522 7.78855 43.1264 8.09175 43.125 8.39933V15.9743H35.3438C34.9775 13.7396 34.1609 11.6027 32.9438 9.69308L40.5488 6.65183ZM18.75 5.62433C21.3459 5.62433 23.8835 6.3941 26.0419 7.83629C28.2003 9.27849 29.8826 11.3283 30.876 13.7266C31.8694 16.1249 32.1293 18.7639 31.6228 21.3099C31.1164 23.8559 29.8664 26.1945 28.0308 28.0301C26.1952 29.8657 23.8566 31.1157 21.3106 31.6221C18.7646 32.1286 16.1256 31.8687 13.7273 30.8753C11.329 29.8819 9.27919 28.1996 7.837 26.0412C6.3948 23.8828 5.62504 21.3452 5.62504 18.7493C5.62901 15.2696 7.01309 11.9335 9.47365 9.47294C11.9342 7.01239 15.2703 5.6283 18.75 5.62433ZM48.75 53.4743H7.50004C7.00276 53.4743 6.52584 53.2768 6.17421 52.9252C5.82258 52.5735 5.62504 52.0966 5.62504 51.5993L5.64754 29.2493C7.75862 31.9248 10.6355 33.8927 13.8943 34.8903C17.153 35.888 20.6385 35.8679 23.8856 34.8328C27.1326 33.7977 29.9867 31.7969 32.0669 29.0973C34.147 26.3978 35.3543 23.128 35.5275 19.7243H48.75C49.2473 19.7243 49.7242 19.9219 50.0759 20.2735C50.4275 20.6251 50.625 21.1021 50.625 21.5993V27.2318H45C43.5088 27.2338 42.0792 27.8271 41.0247 28.8815C39.9703 29.936 39.377 31.3656 39.375 32.8568V40.3568C39.377 41.8481 39.9703 43.2777 41.0247 44.3321C42.0792 45.3866 43.5088 45.9799 45 45.9818H50.625V51.5993C50.625 52.0966 50.4275 52.5735 50.0759 52.9252C49.7242 53.2768 49.2473 53.4743 48.75 53.4743ZM54.375 40.3568C54.3741 40.8502 54.1787 41.3234 53.8312 41.6737C53.4837 42.0239 53.0122 42.2231 52.5188 42.2281L52.5 42.2243L52.4625 42.2318H45C44.5028 42.2318 44.0258 42.0343 43.6742 41.6827C43.3226 41.331 43.125 40.8541 43.125 40.3568V32.8568C43.125 32.3596 43.3226 31.8826 43.6742 31.531C44.0258 31.1794 44.5028 30.9818 45 30.9818H52.5C52.9973 30.9818 53.4742 31.1794 53.8259 31.531C54.1775 31.8826 54.375 32.3596 54.375 32.8568V40.3568Z" fill="#404040"/>
<path d="M21.1725 23.8275C21.5261 24.169 21.9998 24.358 22.4914 24.3538C22.983 24.3495 23.4533 24.1523 23.8009 23.8047C24.1486 23.457 24.3457 22.9867 24.35 22.4951C24.3543 22.0035 24.1653 21.5299 23.8238 21.1762L20.625 17.9738V11.25C20.625 10.7527 20.4275 10.2758 20.0758 9.92418C19.7242 9.57254 19.2473 9.375 18.75 9.375C18.2527 9.375 17.7758 9.57254 17.4242 9.92418C17.0725 10.2758 16.875 10.7527 16.875 11.25V18.75C16.8751 19.2463 17.072 19.7224 17.4225 20.0738L21.1725 23.8275Z" fill="#404040"/>
</svg>
