<svg width="25" height="26" viewBox="0 0 25 26" fill="none" xmlns="http://www.w3.org/2000/svg">
<path fill-rule="evenodd" clip-rule="evenodd" d="M4.94922 1.54163C4.23568 1.54163 3.64714 2.13017 3.64714 2.84371V9.42183L1.62266 10.7724C1.44443 10.8914 1.29829 11.0525 1.19718 11.2414C1.09607 11.4304 1.0431 11.6414 1.04297 11.8557V19.25C1.04297 19.3881 1.09784 19.5206 1.19552 19.6182C1.29319 19.7159 1.42567 19.7708 1.5638 19.7708C1.70194 19.7708 1.83441 19.7159 1.93209 19.6182C2.02976 19.5206 2.08464 19.3881 2.08464 19.25V12.1677L9.41068 16.0984L2.08464 22.738V22.375C2.08464 22.2368 2.02976 22.1044 1.93209 22.0067C1.83441 21.909 1.70194 21.8541 1.5638 21.8541C1.42567 21.8541 1.29319 21.909 1.19552 22.0067C1.09784 22.1044 1.04297 22.2368 1.04297 22.375V23.1562C1.04297 23.8698 1.63151 24.4583 2.34505 24.4583H22.6576C23.3711 24.4583 23.9596 23.8698 23.9596 23.1562V11.8557C23.9596 11.4203 23.7409 11.013 23.3799 10.7724L21.3555 9.42183V2.84371C21.3555 2.13017 20.7669 1.54163 20.0534 1.54163H4.94922ZM4.94922 2.58329H20.0534C20.2029 2.58329 20.3138 2.69423 20.3138 2.84371V12.3833L19.6992 12.713C19.579 12.7791 19.4898 12.89 19.4509 13.0216C19.412 13.1532 19.4266 13.2948 19.4915 13.4156C19.5564 13.5365 19.6664 13.6269 19.7975 13.6671C19.9286 13.7074 20.0704 13.6943 20.1919 13.6307C21.1003 13.1421 22.0091 12.6552 22.918 12.1677V22.738L15.5919 16.0994L18.7372 14.4119C18.7976 14.3796 18.8509 14.3357 18.8943 14.2827C18.9376 14.2297 18.9701 14.1687 18.9899 14.1032C19.0097 14.0377 19.0164 13.9689 19.0096 13.9008C19.0028 13.8326 18.9826 13.7665 18.9503 13.7062C18.9179 13.6459 18.874 13.5925 18.821 13.5492C18.768 13.5058 18.707 13.4733 18.6415 13.4535C18.576 13.4338 18.5072 13.4271 18.4391 13.4339C18.371 13.4407 18.3049 13.4608 18.2445 13.4932L12.6247 16.5093C12.5869 16.5299 12.5446 16.5407 12.5016 16.5407C12.4585 16.5407 12.4162 16.5299 12.3784 16.5093L4.6888 12.3843V2.84371C4.6888 2.69423 4.79974 2.58329 4.94922 2.58329ZM3.64714 10.6755V11.825L2.69089 11.3125L3.64714 10.6755ZM21.3555 10.6755L22.3117 11.3125L21.3555 11.825V10.6755ZM10.3846 16.6213L11.8857 17.427C12.075 17.5286 12.2865 17.5818 12.5013 17.5818C12.7161 17.5818 12.9276 17.5286 13.1169 17.427L14.618 16.6213L22.1159 23.4166H2.88724L10.3846 16.6213Z" fill="#262626"/>
<path d="M11.4596 3.625C10.3153 3.625 9.37628 4.56406 9.37628 5.70833C9.37628 6.8526 10.3153 7.79167 11.4596 7.79167C12.6039 7.79167 13.5429 6.8526 13.5429 5.70833C13.5429 4.56406 12.6039 3.625 11.4596 3.625ZM11.4596 4.66667C12.0409 4.66667 12.5013 5.12708 12.5013 5.70833C12.5013 6.28958 12.0409 6.75 11.4596 6.75C10.8784 6.75 10.4179 6.28958 10.4179 5.70833C10.4179 5.12708 10.8784 4.66667 11.4596 4.66667ZM11.4596 8.3125C10.5086 8.31325 9.58636 8.63895 8.84579 9.23563C8.10523 9.83231 7.59079 10.6641 7.38773 11.5932C7.30544 11.9714 7.41117 12.3276 7.58982 12.6141C7.76846 12.9005 8.02732 13.1375 8.36898 13.2563C10.4872 13.9932 12.5633 13.9146 14.5409 13.2484C14.8825 13.1328 15.145 12.8995 15.3263 12.6146C15.507 12.3297 15.6138 11.9719 15.5315 11.5932C15.3284 10.6641 14.814 9.83231 14.0734 9.23563C13.3329 8.63895 12.4106 8.31325 11.4596 8.3125ZM11.4596 9.35417C12.1731 9.35354 12.8652 9.5973 13.4208 10.0449C13.9764 10.4924 14.362 11.1168 14.5133 11.8141C14.5226 11.8557 14.5101 11.9552 14.4461 12.0562C14.3825 12.1568 14.2752 12.238 14.208 12.2604C12.4122 12.8656 10.6117 12.9339 8.71221 12.2724C8.64607 12.25 8.53826 12.1667 8.47419 12.063C8.40961 11.9599 8.39659 11.8562 8.40596 11.8141C8.55725 11.1168 8.94279 10.4924 9.49839 10.0449C10.054 9.5973 10.7462 9.35354 11.4596 9.35417ZM15.6263 6.22917C15.4881 6.22917 15.3557 6.28404 15.258 6.38172C15.1603 6.47939 15.1054 6.61187 15.1054 6.75V7.27083H14.5846C14.4465 7.27083 14.314 7.32571 14.2163 7.42338C14.1186 7.52106 14.0638 7.65353 14.0638 7.79167C14.0638 7.9298 14.1186 8.06228 14.2163 8.15995C14.314 8.25763 14.4465 8.3125 14.5846 8.3125H15.1054V8.83333C15.1054 8.97147 15.1603 9.10394 15.258 9.20162C15.3557 9.29929 15.4881 9.35417 15.6263 9.35417C15.7644 9.35417 15.8969 9.29929 15.9946 9.20162C16.0922 9.10394 16.1471 8.97147 16.1471 8.83333V8.3125H16.6679C16.8061 8.3125 16.9386 8.25763 17.0362 8.15995C17.1339 8.06228 17.1888 7.9298 17.1888 7.79167C17.1888 7.65353 17.1339 7.52106 17.0362 7.42338C16.9386 7.32571 16.8061 7.27083 16.6679 7.27083H16.1471V6.75C16.1471 6.61187 16.0922 6.47939 15.9946 6.38172C15.8969 6.28404 15.7644 6.22917 15.6263 6.22917Z" fill="#262626"/>
<path fill-rule="evenodd" clip-rule="evenodd" d="M2.08464 20.8125C2.08464 20.9506 2.02976 21.0831 1.93209 21.1807C1.83441 21.2784 1.70194 21.3333 1.5638 21.3333C1.42567 21.3333 1.29319 21.2784 1.19552 21.1807C1.09784 21.0831 1.04297 20.9506 1.04297 20.8125C1.04297 20.6743 1.09784 20.5418 1.19552 20.4442C1.29319 20.3465 1.42567 20.2916 1.5638 20.2916C1.70194 20.2916 1.83441 20.3465 1.93209 20.4442C2.02976 20.5418 2.08464 20.6743 2.08464 20.8125Z" fill="#262626"/>
</svg>
