<svg width="38" height="38" viewBox="0 0 38 38" fill="none" xmlns="http://www.w3.org/2000/svg">
<g clip-path="url(#clip0_1832_15073)">
<path d="M26.9616 12.3694C26.8504 12.3694 26.7416 12.3364 26.6491 12.2746C26.5874 12.2335 26.5343 12.1806 26.493 12.119C26.4517 12.0574 26.4229 11.9883 26.4083 11.9156C26.3937 11.8428 26.3935 11.7679 26.4079 11.6951C26.4222 11.6224 26.4508 11.5531 26.4919 11.4914L32.5929 2.32423C32.634 2.26246 32.6869 2.20939 32.7485 2.16805C32.8101 2.12671 32.8793 2.09792 32.952 2.08332C33.0248 2.06871 33.0997 2.06858 33.1725 2.08293C33.2452 2.09729 33.3145 2.12584 33.3763 2.16696C33.438 2.20806 33.4911 2.26092 33.5324 2.32252C33.5737 2.38412 33.6025 2.45327 33.6171 2.526C33.6317 2.59873 33.6319 2.67363 33.6175 2.74641C33.6032 2.8192 33.5746 2.88844 33.5335 2.95019L27.4324 12.1173C27.3809 12.1949 27.3109 12.2586 27.2287 12.3025C27.1466 12.3465 27.0548 12.3695 26.9616 12.3694ZM25.2975 12.807C25.2099 12.807 25.1234 12.7865 25.0451 12.7471L19.8046 10.1224C19.7383 10.0892 19.6791 10.0432 19.6306 9.98716C19.582 9.93108 19.5449 9.86599 19.5215 9.79559C19.4981 9.72519 19.4888 9.65087 19.4941 9.57688C19.4994 9.50288 19.5193 9.43065 19.5525 9.36433C19.5857 9.29798 19.6317 9.23882 19.6877 9.19024C19.7438 9.14166 19.8089 9.1046 19.8793 9.08119C19.9497 9.05778 20.0241 9.04846 20.0981 9.05379C20.1721 9.05911 20.2443 9.07896 20.3106 9.1122L25.5511 11.7369C25.6174 11.7701 25.6766 11.816 25.7251 11.8721C25.7737 11.9282 25.8108 11.9933 25.8342 12.0637C25.8576 12.1341 25.8669 12.2084 25.8616 12.2824C25.8563 12.3564 25.8364 12.4286 25.8032 12.4949C25.7562 12.5888 25.684 12.6677 25.5947 12.7228C25.5054 12.778 25.4025 12.8071 25.2975 12.807ZM12.5768 16.0862C12.4651 16.0862 12.3559 16.0531 12.263 15.9911C12.1701 15.929 12.0977 15.8409 12.0549 15.7377C12.0121 15.6345 12.0009 15.521 12.0226 15.4114C12.0444 15.3018 12.0981 15.2012 12.177 15.1221L17.624 9.6658C17.6764 9.61329 17.7386 9.57162 17.8071 9.54316C17.8757 9.51471 17.9491 9.50003 18.0233 9.49997C18.0975 9.49991 18.171 9.51446 18.2395 9.5428C18.3081 9.57114 18.3704 9.61271 18.4229 9.66513C18.4754 9.71754 18.517 9.77978 18.5455 9.8483C18.5739 9.91681 18.5886 9.99026 18.5887 10.0644C18.5887 10.1386 18.5742 10.2121 18.5459 10.2807C18.5175 10.3492 18.476 10.4115 18.4235 10.464L12.9766 15.9204C12.9242 15.973 12.8619 16.0148 12.7933 16.0432C12.7247 16.0717 12.6511 16.0863 12.5768 16.0862ZM5.66839 20.0191C5.56438 20.0192 5.46237 19.9906 5.3736 19.9363C5.28483 19.8821 5.21276 19.8045 5.16534 19.7119C5.13146 19.6459 5.11093 19.5739 5.1049 19.4999C5.09887 19.426 5.10746 19.3516 5.13019 19.2809C5.15292 19.2103 5.18934 19.1449 5.23737 19.0883C5.2854 19.0318 5.3441 18.9852 5.41011 18.9514L10.1083 16.5411C10.1743 16.5072 10.2463 16.4866 10.3203 16.4806C10.3942 16.4746 10.4686 16.4832 10.5392 16.5059C10.6098 16.5286 10.6753 16.565 10.7318 16.613C10.7884 16.6611 10.8349 16.7197 10.8687 16.7858C10.9026 16.8518 10.9232 16.9238 10.9292 16.9977C10.9352 17.0717 10.9266 17.1461 10.9039 17.2167C10.8812 17.2873 10.8447 17.3528 10.7967 17.4093C10.7487 17.4659 10.69 17.5124 10.624 17.5463L5.92578 19.9566C5.8462 19.9977 5.75794 20.0191 5.66839 20.0191Z" fill="#B1DBFC"/>
<path d="M4.34398 21.8442C5.30872 21.8442 6.09079 21.0621 6.09079 20.0974C6.09079 19.1327 5.30872 18.3506 4.34398 18.3506C3.37924 18.3506 2.59717 19.1327 2.59717 20.0974C2.59717 21.0621 3.37924 21.8442 4.34398 21.8442Z" fill="#FF656F"/>
<path d="M11.6716 18.1743C12.6364 18.1743 13.4184 17.3922 13.4184 16.4275C13.4184 15.4627 12.6364 14.6807 11.6716 14.6807C10.7069 14.6807 9.9248 15.4627 9.9248 16.4275C9.9248 17.3922 10.7069 18.1743 11.6716 18.1743Z" fill="#FFA85D"/>
<path d="M18.9997 10.8344C19.9645 10.8344 20.7466 10.0524 20.7466 9.08763C20.7466 8.1229 19.9645 7.34082 18.9997 7.34082C18.035 7.34082 17.2529 8.1229 17.2529 9.08763C17.2529 10.0524 18.035 10.8344 18.9997 10.8344Z" fill="#FEE55A"/>
<path d="M26.3279 14.5044C27.2926 14.5044 28.0747 13.7223 28.0747 12.7576C28.0747 11.7928 27.2926 11.0107 26.3279 11.0107C25.3631 11.0107 24.5811 11.7928 24.5811 12.7576C24.5811 13.7223 25.3631 14.5044 26.3279 14.5044Z" fill="#43CB8E"/>
<path d="M33.6555 3.49362C34.6202 3.49362 35.4023 2.71155 35.4023 1.74681C35.4023 0.782075 34.6202 0 33.6555 0C32.6908 0 31.9087 0.782075 31.9087 1.74681C31.9087 2.71155 32.6908 3.49362 33.6555 3.49362Z" fill="#23A8FE"/>
<path d="M4.50533 20.0975C4.50533 19.4849 4.82091 18.9463 5.29806 18.6345C5.01452 18.4488 4.68289 18.3502 4.34398 18.3506C3.37921 18.3506 2.59717 19.1326 2.59717 20.0974C2.59717 21.0622 3.37929 21.8442 4.34398 21.8442C4.69615 21.8442 5.02375 21.7396 5.29806 21.5603C4.82084 21.2486 4.50533 20.7101 4.50533 20.0975Z" fill="#FF4756"/>
<path d="M11.833 16.4276C11.833 15.815 12.1485 15.2764 12.6257 14.9646C12.3422 14.7789 12.0105 14.6802 11.6716 14.6807C10.7068 14.6807 9.9248 15.4627 9.9248 16.4275C9.9248 17.3922 10.7068 18.1743 11.6716 18.1743C12.0238 18.1743 12.3514 18.0697 12.6257 17.8904C12.1485 17.5787 11.833 17.0402 11.833 16.4276Z" fill="#FF9839"/>
<path d="M19.1611 9.08771C19.1611 8.47511 19.4767 7.93658 19.9538 7.62471C19.6703 7.43907 19.3386 7.34039 18.9997 7.34082C18.035 7.34082 17.2529 8.12286 17.2529 9.08763C17.2529 10.0524 18.035 10.8344 18.9997 10.8344C19.3519 10.8344 19.6795 10.7299 19.9538 10.5506C19.4767 10.2388 19.1611 9.70024 19.1611 9.08771Z" fill="#FFD301"/>
<path d="M26.4892 12.7576C26.4892 12.145 26.8048 11.6065 27.2819 11.2946C26.9984 11.109 26.6668 11.0103 26.3279 11.0107C25.3631 11.0107 24.5811 11.7928 24.5811 12.7576C24.5811 13.7223 25.3632 14.5044 26.3279 14.5044C26.68 14.5044 27.0076 14.3998 27.2819 14.2205C26.8047 13.9088 26.4892 13.3702 26.4892 12.7576Z" fill="#00BA66"/>
<path d="M33.8169 1.74681C33.8169 1.13421 34.1324 0.595681 34.6096 0.283814C34.326 0.0982325 33.9944 -0.000416642 33.6555 1.32266e-06C32.6907 1.32266e-06 31.9087 0.782044 31.9087 1.74681C31.9087 2.71158 32.6908 3.49363 33.6555 3.49363C34.0077 3.49363 34.3353 3.38905 34.6096 3.20974C34.1324 2.89795 33.8169 2.35942 33.8169 1.74681Z" fill="#0193FA"/>
<path d="M6.2333 26.5635H2.45482C2.32954 26.5635 2.20938 26.6132 2.12079 26.7018C2.03219 26.7904 1.98242 26.9106 1.98242 27.0359V37.4349H6.70578V27.036C6.70574 26.9107 6.65595 26.7905 6.56735 26.7019C6.47875 26.6133 6.3586 26.5635 6.2333 26.5635Z" fill="#FF656F"/>
<path d="M13.5609 22.8936H9.78246C9.65717 22.8936 9.53701 22.9433 9.44842 23.0319C9.35983 23.1205 9.31006 23.2407 9.31006 23.366V37.4352H14.0334V23.366C14.0334 23.2407 13.9836 23.1205 13.895 23.0319C13.8064 22.9433 13.6862 22.8936 13.5609 22.8936Z" fill="#FFA85D"/>
<path d="M20.8891 15.5215H17.1106C17.0485 15.5215 16.9871 15.5337 16.9298 15.5574C16.8725 15.5812 16.8204 15.616 16.7765 15.6598C16.7327 15.7037 16.6979 15.7558 16.6741 15.8131C16.6504 15.8704 16.6382 15.9318 16.6382 15.9939V37.4355H21.3615V15.9939C21.3615 15.8686 21.3117 15.7485 21.2231 15.6599C21.1345 15.5713 21.0144 15.5215 20.8891 15.5215Z" fill="#FEE55A"/>
<path d="M28.2172 19.2236H24.4387C24.3134 19.2236 24.1933 19.2734 24.1047 19.362C24.0161 19.4506 23.9663 19.5707 23.9663 19.696V37.4354H28.6897V19.696C28.6896 19.5707 28.6398 19.4506 28.5512 19.362C28.4626 19.2734 28.3425 19.2237 28.2172 19.2236Z" fill="#43CB8E"/>
<path d="M35.5448 8.16113H31.7663C31.6411 8.16113 31.5209 8.2109 31.4323 8.2995C31.3437 8.38809 31.2939 8.50825 31.2939 8.63353V37.4352H36.0173V8.63361C36.0173 8.5083 35.9675 8.38812 35.8789 8.29952C35.7903 8.21091 35.6701 8.16113 35.5448 8.16113Z" fill="#23A8FE"/>
<path d="M5.35759 26.5635H2.45482C2.39279 26.5635 2.33136 26.5757 2.27404 26.5994C2.21673 26.6232 2.16465 26.658 2.12079 26.7018C2.07692 26.7457 2.04212 26.7978 2.01838 26.8551C1.99464 26.9124 1.98242 26.9738 1.98242 27.0359V37.4349H4.88527V27.036C4.88526 26.9739 4.89747 26.9125 4.9212 26.8552C4.94493 26.7978 4.97972 26.7458 5.02358 26.7019C5.06744 26.658 5.11951 26.6232 5.17682 26.5995C5.23413 26.5757 5.29556 26.5635 5.35759 26.5635Z" fill="#FF4756"/>
<path d="M12.6853 22.8936H9.78246C9.65717 22.8936 9.53701 22.9433 9.44842 23.0319C9.35983 23.1205 9.31006 23.2407 9.31006 23.366V37.4352H12.2129V23.366C12.2129 23.304 12.2251 23.2426 12.2488 23.1852C12.2726 23.1279 12.3074 23.0758 12.3512 23.0319C12.3951 22.9881 12.4472 22.9533 12.5045 22.9295C12.5618 22.9058 12.6233 22.8936 12.6853 22.8936Z" fill="#FF9839"/>
<path d="M20.0134 15.5215H17.1106C17.0485 15.5215 16.9871 15.5337 16.9298 15.5574C16.8725 15.5812 16.8204 15.616 16.7765 15.6598C16.7327 15.7037 16.6979 15.7558 16.6741 15.8131C16.6504 15.8704 16.6382 15.9318 16.6382 15.9939V37.4355H19.541V15.9939C19.541 15.9318 19.5532 15.8704 19.577 15.8131C19.6007 15.7558 19.6355 15.7037 19.6794 15.6598C19.7232 15.616 19.7753 15.5812 19.8326 15.5574C19.89 15.5337 19.9514 15.5215 20.0134 15.5215Z" fill="#FFD301"/>
<path d="M27.3415 19.2236H24.4387C24.3134 19.2236 24.1933 19.2734 24.1047 19.362C24.0161 19.4506 23.9663 19.5707 23.9663 19.696V37.4354H26.8692V19.696C26.8691 19.634 26.8814 19.5726 26.9051 19.5153C26.9288 19.4579 26.9636 19.4059 27.0075 19.362C27.0513 19.3181 27.1034 19.2833 27.1607 19.2596C27.218 19.2359 27.2794 19.2236 27.3415 19.2236Z" fill="#00BA66"/>
<path d="M34.6692 8.16113H31.7663C31.6411 8.16113 31.5209 8.2109 31.4323 8.2995C31.3437 8.38809 31.2939 8.50825 31.2939 8.63353V37.4352H34.1968V8.63361C34.1968 8.50831 34.2466 8.38815 34.3351 8.29954C34.4237 8.21094 34.5439 8.16115 34.6692 8.16113Z" fill="#0193FA"/>
<path d="M37.2815 37.9999H0.718199C0.406184 37.9999 0.15332 37.7471 0.15332 37.435C0.15332 37.1229 0.406258 36.8701 0.718199 36.8701H37.2815C37.5935 36.8701 37.8464 37.123 37.8464 37.435C37.8464 37.747 37.5935 37.9999 37.2815 37.9999Z" fill="#23A8FE"/>
</g>
<defs>
<clipPath id="clip0_1832_15073">
<rect width="38" height="38" fill="white"/>
</clipPath>
</defs>
</svg>
