<svg width="24" height="24" viewBox="0 0 24 24" fill="none" xmlns="http://www.w3.org/2000/svg">
<path d="M2.98861 22.8563C3.06736 22.8675 3.14611 22.8713 3.22486 22.8713H20.5311C20.9099 22.8713 21.2924 22.7925 21.6224 22.6087C22.4211 22.17 22.8749 21.3825 22.8749 20.5238V3.1425C22.8749 2.02875 21.9711 1.125 20.8574 1.125H6.40486C5.29111 1.125 4.38736 2.02875 4.38736 3.1425V5.25H3.16111C2.03611 5.25 1.12111 6.16125 1.12111 7.29V20.79C1.12111 20.79 1.09486 22.5562 2.98861 22.8563ZM1.87111 20.79V7.29C1.87111 6.58125 2.44861 6 3.16111 6H4.38736V20.7413C4.38611 21.0856 4.25683 21.4173 4.02464 21.6716C3.79246 21.926 3.47397 22.0849 3.13111 22.1175C2.79163 22.099 2.47216 21.951 2.23847 21.7041C2.00478 21.4571 1.87465 21.13 1.87486 20.79H1.87111ZM21.6599 21.6562C21.3599 21.9562 20.9586 22.125 20.5311 22.125H4.61611C4.93861 21.75 5.13736 21.2663 5.13736 20.7413V3.1425C5.13736 2.445 5.70361 1.875 6.40486 1.875H20.8611C21.5586 1.875 22.1286 2.44125 22.1286 3.1425V20.5275C22.1286 20.955 21.9636 21.3563 21.6599 21.6562ZM13.8974 9.96375H18.2399C18.4461 9.96375 18.6149 10.1325 18.6149 10.3387C18.6149 10.545 18.4461 10.7137 18.2399 10.7137H13.8974C13.6911 10.7137 13.5224 10.545 13.5224 10.3387C13.5224 10.1325 13.6911 9.96375 13.8974 9.96375ZM20.4861 12.5438C20.4861 12.75 20.3174 12.9188 20.1111 12.9188H13.8936C13.6874 12.9188 13.5186 12.75 13.5186 12.5438C13.5186 12.3375 13.6874 12.1688 13.8936 12.1688H20.1111C20.3174 12.1688 20.4861 12.3375 20.4861 12.5438ZM20.5536 3.85125L18.7836 6.88125H20.2311C20.4374 6.88125 20.6061 7.05 20.6061 7.25625C20.6061 7.4625 20.4374 7.63125 20.2311 7.63125H18.1311C17.9961 7.63125 17.8724 7.56 17.8049 7.44375C17.7374 7.3275 17.7374 7.185 17.8049 7.06875L19.5749 4.03875H18.1274C17.9211 4.03875 17.7524 3.87 17.7524 3.66375C17.7524 3.4575 17.9211 3.28875 18.1274 3.28875H20.2274C20.3624 3.28875 20.4861 3.36 20.5536 3.47625C20.6211 3.5925 20.6211 3.735 20.5536 3.85125ZM13.5486 7.63125C12.7086 7.63125 12.0261 6.94875 12.0261 6.10875V3.66375C12.0261 3.4575 12.1949 3.28875 12.4011 3.28875C12.6074 3.28875 12.7761 3.4575 12.7761 3.66375V6.10875C12.7761 6.53625 13.1211 6.88125 13.5486 6.88125C13.9761 6.88125 14.3211 6.53625 14.3211 6.10875V3.66375C14.3211 3.4575 14.4899 3.28875 14.6961 3.28875C14.9024 3.28875 15.0711 3.4575 15.0711 3.66375V6.10875C15.0711 6.94875 14.3886 7.63125 13.5486 7.63125ZM16.0799 7.25625V3.66375C16.0799 3.4575 16.2486 3.28875 16.4549 3.28875C16.6611 3.28875 16.8299 3.4575 16.8299 3.66375V7.25625C16.8299 7.4625 16.6611 7.63125 16.4549 7.63125C16.2486 7.63125 16.0799 7.4625 16.0799 7.25625ZM9.11236 7.63125C9.57736 7.63125 10.0049 7.485 10.3574 7.2375L10.6424 7.5225C10.7174 7.5975 10.8111 7.63125 10.9086 7.63125C11.0061 7.63125 11.0999 7.59375 11.1749 7.5225C11.2096 7.48781 11.2372 7.4466 11.256 7.40123C11.2748 7.35587 11.2845 7.30724 11.2845 7.25812C11.2845 7.20901 11.2748 7.16038 11.256 7.11502C11.2372 7.06965 11.2096 7.02844 11.1749 6.99375L10.8899 6.70875C11.1374 6.35625 11.2836 5.925 11.2836 5.46375C11.2836 4.2675 10.3086 3.2925 9.11236 3.2925C7.91611 3.2925 6.94111 4.2675 6.94111 5.46375C6.94111 6.66 7.91611 7.635 9.11236 7.635V7.63125ZM9.11236 4.03875C9.89611 4.03875 10.5336 4.67625 10.5336 5.46C10.5336 5.715 10.4586 5.95125 10.3424 6.16125L9.85111 5.67C9.81639 5.63528 9.77518 5.60774 9.72982 5.58895C9.68445 5.57016 9.63584 5.56049 9.58674 5.56049C9.53764 5.56049 9.48902 5.57016 9.44366 5.58895C9.3983 5.60774 9.35708 5.63528 9.32236 5.67C9.28765 5.70472 9.26011 5.74593 9.24132 5.7913C9.22253 5.83666 9.21286 5.88528 9.21286 5.93437C9.21286 5.98347 9.22253 6.03209 9.24132 6.07745C9.26011 6.12282 9.28765 6.16403 9.32236 6.19875L9.81361 6.69C9.60736 6.81 9.37111 6.88125 9.11236 6.88125C8.32861 6.88125 7.69111 6.24375 7.69111 5.46C7.69111 4.67625 8.32861 4.03875 9.11236 4.03875ZM10.6124 15.3713H8.15236C7.54486 15.3713 7.04986 15.8663 7.04986 16.4738V18.9338C7.04986 19.5413 7.54486 20.0363 8.15236 20.0363H10.6124C11.2199 20.0363 11.7149 19.5413 11.7149 18.9338V16.4738C11.7149 15.8663 11.2199 15.3713 10.6124 15.3713ZM10.9649 18.9338C10.9649 19.1287 10.8074 19.2863 10.6124 19.2863H8.15236C7.95736 19.2863 7.79986 19.1287 7.79986 18.9338V16.4738C7.79986 16.2788 7.95736 16.1213 8.15236 16.1213H10.6124C10.8074 16.1213 10.9649 16.2788 10.9649 16.4738V18.9338ZM10.6124 9.525H8.15236C7.54486 9.525 7.04986 10.02 7.04986 10.6275V13.0875C7.04986 13.695 7.54486 14.19 8.15236 14.19H10.6124C11.2199 14.19 11.7149 13.695 11.7149 13.0875V10.6275C11.7149 10.02 11.2199 9.525 10.6124 9.525ZM10.9649 13.0875C10.9649 13.2825 10.8074 13.44 10.6124 13.44H8.15236C7.95736 13.44 7.79986 13.2825 7.79986 13.0875V10.6275C7.79986 10.4325 7.95736 10.275 8.15236 10.275H10.6124C10.8074 10.275 10.9649 10.4325 10.9649 10.6275V13.0875ZM13.5224 14.7488C13.5224 14.5425 13.6911 14.3738 13.8974 14.3738H18.2399C18.4461 14.3738 18.6149 14.5425 18.6149 14.7488C18.6149 14.955 18.4461 15.1238 18.2399 15.1238H13.8974C13.6911 15.1238 13.5224 14.955 13.5224 14.7488ZM20.4861 16.9537C20.4861 17.16 20.3174 17.3288 20.1111 17.3288H13.8936C13.6874 17.3288 13.5186 17.16 13.5186 16.9537C13.5186 16.7475 13.6874 16.5787 13.8936 16.5787H20.1111C20.3174 16.5787 20.4861 16.7475 20.4861 16.9537ZM18.6111 19.1588C18.6111 19.365 18.4424 19.5338 18.2361 19.5338H13.8936C13.6874 19.5338 13.5186 19.365 13.5186 19.1588C13.5186 18.9525 13.6874 18.7838 13.8936 18.7838H18.2361C18.4424 18.7838 18.6111 18.9525 18.6111 19.1588Z" fill="#404040"/>
</svg>
