<svg width="24" height="24" viewBox="0 0 24 24" fill="none" xmlns="http://www.w3.org/2000/svg">
<path d="M21.2557 3.43115L9.54703 8.25234C9.39023 8.3169 9.21621 8.32654 9.05324 8.27968C8.89027 8.23283 8.74794 8.13223 8.64937 7.99425L7.55386 6.46054C7.41875 6.27139 7.24044 6.11723 7.03375 6.01087C6.82707 5.9045 6.59798 5.84901 6.36553 5.84901M6.36553 5.84901C5.74294 5.84901 5.23828 6.35371 5.23828 6.97626V22.897C5.23828 23.312 5.57475 23.6485 5.98978 23.6485H21.02C21.435 23.6485 21.7715 23.312 21.7715 22.897V4.10939C21.7715 3.64378 21.3525 3.29024 20.8935 3.36857L6.36553 5.84901Z" stroke="#262626" stroke-width="0.703125" stroke-miterlimit="10" stroke-linecap="round" stroke-linejoin="round"/>
<path d="M16.5101 1.85449H4.48588C4.07084 1.85449 3.73438 2.19096 3.73438 2.60599V21.3938C3.73438 21.8088 4.07084 22.1453 4.48588 22.1453H5.23738M20.2677 3.36841V2.60599C20.2677 2.19096 19.9312 1.85449 19.5162 1.85449H18.0132" stroke="#262626" stroke-width="0.703125" stroke-miterlimit="10" stroke-linecap="round" stroke-linejoin="round"/>
<path d="M18.7637 1.85461V1.10306C18.7637 0.688031 18.4272 0.351562 18.0122 0.351562H2.98197C2.56694 0.351562 2.23047 0.688031 2.23047 1.10306V19.8908C2.23047 20.3059 2.56694 20.6423 2.98197 20.6423H3.73347M12.6227 14.8771L10.4971 12.7515L8.37147 14.8771" stroke="#262626" stroke-width="0.703125" stroke-miterlimit="10" stroke-linecap="round" stroke-linejoin="round"/>
<path d="M8.83281 10.2485C9.30958 9.93066 9.8823 9.74536 10.4983 9.74536C12.1585 9.74536 13.5043 11.0912 13.5043 12.7514C13.5043 14.4116 12.1585 15.7575 10.4983 15.7575C8.83811 15.7575 7.49223 14.4116 7.49223 12.7514C7.49223 12.2231 7.6285 11.7267 7.8678 11.2953M10.4982 12.7514H7.49219M19.1406 12.7514H15.3831M19.1406 14.2545H15.3831M19.1406 15.7575H15.3831M19.1406 17.6363H10.874M19.1406 19.1393H10.874M19.1406 20.6423H7.86798M18.3891 11.2484H16.1346C15.7195 11.2484 15.3831 10.9119 15.3831 10.4969C15.3831 10.0819 15.7195 9.74541 16.1346 9.74541H18.3891C18.8042 9.74541 19.1406 10.0819 19.1406 10.4969C19.1406 10.9119 18.8042 11.2484 18.3891 11.2484Z" stroke="#262626" stroke-width="0.703125" stroke-miterlimit="10" stroke-linecap="round" stroke-linejoin="round"/>
<path d="M8.61869 19.1392C9.03373 19.1392 9.37019 18.8028 9.37019 18.3877C9.37019 17.9727 9.03373 17.6362 8.61869 17.6362C8.20365 17.6362 7.86719 17.9727 7.86719 18.3877C7.86719 18.8028 8.20365 19.1392 8.61869 19.1392Z" stroke="#262626" stroke-width="0.703125" stroke-miterlimit="10" stroke-linecap="round" stroke-linejoin="round"/>
</svg>
