<svg width="25" height="26" viewBox="0 0 25 26" fill="none" xmlns="http://www.w3.org/2000/svg">
<path d="M22.2649 17.8281H21.4836V14.7031C21.4836 14.4959 21.4013 14.2972 21.2548 14.1507C21.1083 14.0042 20.9096 13.9219 20.7024 13.9219H19.9211C19.7139 13.9219 19.5152 14.0042 19.3687 14.1507C19.2222 14.2972 19.1399 14.4959 19.1399 14.7031V17.8281H18.7493V12.3594C18.7493 12.1522 18.667 11.9535 18.5204 11.8069C18.3739 11.6604 18.1752 11.5781 17.968 11.5781H17.1868C16.9796 11.5781 16.7809 11.6604 16.6343 11.8069C16.4878 11.9535 16.4055 12.1522 16.4055 12.3594V17.8281H16.0149V13.5312C16.0149 13.324 15.9326 13.1253 15.7861 12.9788C15.6396 12.8323 15.4408 12.75 15.2336 12.75H14.4524C14.2452 12.75 14.0465 12.8323 13.9 12.9788C13.7535 13.1253 13.6711 13.324 13.6711 13.5312V17.8281C13.5676 17.828 13.4683 17.7868 13.395 17.7136C13.3218 17.6404 13.2806 17.5411 13.2805 17.4375V11.1875C13.2805 11.0839 13.2394 10.9845 13.1661 10.9113C13.0929 10.838 12.9935 10.7969 12.8899 10.7969C12.7863 10.7969 12.6869 10.838 12.6137 10.9113C12.5404 10.9845 12.4993 11.0839 12.4993 11.1875V17.4375C12.4996 17.7482 12.6231 18.0461 12.8428 18.2658C13.0625 18.4855 13.3604 18.6091 13.6711 18.6094H22.2649C22.3685 18.6094 22.4679 18.5682 22.5411 18.495C22.6144 18.4217 22.6555 18.3224 22.6555 18.2188C22.6555 18.1151 22.6144 18.0158 22.5411 17.9425C22.4679 17.8693 22.3685 17.8281 22.2649 17.8281ZM14.4524 17.8281L14.452 13.5312H15.2336V17.8281H14.4524ZM17.1868 17.8281L17.1864 12.3594H17.968V17.8281H17.1868ZM19.9211 17.8281L19.9208 14.7031H20.7024V17.8281H19.9211ZM17.968 6.10938C17.968 6.00577 18.0092 5.90642 18.0824 5.83316C18.1557 5.75991 18.255 5.71875 18.3586 5.71875H21.8743C21.9779 5.71875 22.0772 5.75991 22.1505 5.83316C22.2237 5.90642 22.2649 6.00577 22.2649 6.10938C22.2649 6.21298 22.2237 6.31233 22.1505 6.38559C22.0772 6.45884 21.9779 6.5 21.8743 6.5H18.3586C18.255 6.5 18.1557 6.45884 18.0824 6.38559C18.0092 6.31233 17.968 6.21298 17.968 6.10938ZM16.7961 6.10938C16.7961 6.03212 16.8191 5.95659 16.862 5.89236C16.9049 5.82812 16.9659 5.77805 17.0373 5.74848C17.1087 5.71892 17.1872 5.71118 17.263 5.72626C17.3388 5.74133 17.4084 5.77853 17.463 5.83316C17.5176 5.88779 17.5548 5.95739 17.5699 6.03317C17.585 6.10894 17.5772 6.18748 17.5477 6.25886C17.5181 6.33024 17.468 6.39125 17.4038 6.43417C17.3396 6.47709 17.264 6.5 17.1868 6.5C17.0832 6.5 16.9838 6.45884 16.9106 6.38559C16.8373 6.31233 16.7961 6.21298 16.7961 6.10938ZM17.968 7.67188C17.968 7.56827 18.0092 7.46892 18.0824 7.39566C18.1557 7.3224 18.255 7.28125 18.3586 7.28125H21.8743C21.9779 7.28125 22.0772 7.3224 22.1505 7.39566C22.2237 7.46892 22.2649 7.56827 22.2649 7.67188C22.2649 7.77548 22.2237 7.87483 22.1505 7.94809C22.0772 8.02135 21.9779 8.0625 21.8743 8.0625H18.3586C18.255 8.0625 18.1557 8.02135 18.0824 7.94809C18.0092 7.87483 17.968 7.77548 17.968 7.67188ZM17.968 9.23438C17.968 9.13077 18.0092 9.03142 18.0824 8.95816C18.1557 8.8849 18.255 8.84375 18.3586 8.84375H21.8743C21.9779 8.84375 22.0772 8.8849 22.1505 8.95816C22.2237 9.03142 22.2649 9.13077 22.2649 9.23438C22.2649 9.33798 22.2237 9.43733 22.1505 9.51059C22.0772 9.58385 21.9779 9.625 21.8743 9.625H18.3586C18.255 9.625 18.1557 9.58385 18.0824 9.51059C18.0092 9.43733 17.968 9.33798 17.968 9.23438ZM16.7961 7.67188C16.7961 7.59462 16.8191 7.51909 16.862 7.45486C16.9049 7.39062 16.9659 7.34055 17.0373 7.31098C17.1087 7.28142 17.1872 7.27368 17.263 7.28876C17.3388 7.30383 17.4084 7.34103 17.463 7.39566C17.5176 7.45029 17.5548 7.51989 17.5699 7.59567C17.585 7.67144 17.5772 7.74998 17.5477 7.82136C17.5181 7.89274 17.468 7.95375 17.4038 7.99667C17.3396 8.03959 17.264 8.0625 17.1868 8.0625C17.0832 8.0625 16.9838 8.02135 16.9106 7.94809C16.8373 7.87483 16.7961 7.77548 16.7961 7.67188ZM16.7961 9.23438C16.7961 9.15712 16.8191 9.08159 16.862 9.01736C16.9049 8.95312 16.9659 8.90305 17.0373 8.87348C17.1087 8.84392 17.1872 8.83618 17.263 8.85126C17.3388 8.86633 17.4084 8.90353 17.463 8.95816C17.5176 9.01279 17.5548 9.08239 17.5699 9.15817C17.585 9.23394 17.5772 9.31248 17.5477 9.38386C17.5181 9.45524 17.468 9.51625 17.4038 9.55917C17.3396 9.60209 17.264 9.625 17.1868 9.625C17.0832 9.625 16.9838 9.58385 16.9106 9.51059C16.8373 9.43733 16.7961 9.33798 16.7961 9.23438ZM23.0461 3.375H3.51489C3.20419 3.37531 2.9063 3.49887 2.6866 3.71858C2.46689 3.93828 2.34333 4.23617 2.34302 4.54688V9.64453C2.01766 9.68964 1.7196 9.85093 1.50388 10.0986C1.28815 10.3463 1.16932 10.6637 1.16932 10.9922C1.16932 11.3207 1.28815 11.638 1.50388 11.8857C1.7196 12.1334 2.01766 12.2947 2.34302 12.3398V14.1719C1.81207 14.6816 1.3984 15.3008 1.13069 15.9865C0.862984 16.6721 0.74766 17.4078 0.79272 18.1425C0.83778 18.8771 1.04214 19.5932 1.39163 20.241C1.74112 20.8888 2.22737 21.4528 2.81663 21.8938C3.4059 22.3349 4.08407 22.6425 4.8041 22.7952C5.52412 22.948 6.26876 22.9422 6.98635 22.7784C7.70394 22.6146 8.37729 22.2966 8.95968 21.8465C9.54208 21.3964 10.0196 20.825 10.359 20.1719H23.0461C23.3568 20.1716 23.6547 20.048 23.8744 19.8283C24.0941 19.6086 24.2177 19.3107 24.218 19V4.54688C24.2177 4.23617 24.0941 3.93828 23.8744 3.71858C23.6547 3.49887 23.3568 3.37531 23.0461 3.375ZM1.95239 10.9922C1.95239 10.8763 1.98676 10.763 2.05114 10.6667C2.11553 10.5703 2.20704 10.4952 2.3141 10.4509C2.42117 10.4065 2.53898 10.3949 2.65264 10.4175C2.7663 10.4401 2.87071 10.4959 2.95265 10.5779C3.0346 10.6598 3.0904 10.7642 3.11301 10.8779C3.13562 10.9915 3.12402 11.1093 3.07967 11.2164C3.03532 11.3235 2.96022 11.415 2.86386 11.4794C2.7675 11.5438 2.65422 11.5781 2.53833 11.5781C2.383 11.5779 2.23408 11.5161 2.12424 11.4063C2.0144 11.2964 1.9526 11.1475 1.95239 10.9922ZM5.46802 13.5508V17.5945L1.9063 19.5125C1.64038 18.8897 1.52558 18.2128 1.57126 17.5371C1.61694 16.8614 1.82181 16.2061 2.16914 15.6247C2.51647 15.0434 2.99641 14.5524 3.56974 14.1919C4.14308 13.8315 4.79355 13.6118 5.46802 13.5508ZM6.24927 13.5508C7.24887 13.6432 8.18465 14.0824 8.89449 14.7923C9.60433 15.5021 10.0435 16.4379 10.136 17.4375H6.24927V13.5508ZM5.85864 22.125C5.14935 22.1246 4.4512 21.9484 3.82656 21.6124C3.20191 21.2764 2.67022 20.7908 2.27896 20.1992L5.95747 18.2188H10.1356C10.0372 19.2856 9.54428 20.2773 8.75323 20.9997C7.96218 21.7222 6.92997 22.1235 5.85864 22.125ZM23.4368 19C23.4367 19.1036 23.3955 19.2029 23.3222 19.2761C23.249 19.3493 23.1497 19.3905 23.0461 19.3906H10.6883C11.0125 18.3955 11.0208 17.3245 10.7121 16.3245C10.4035 15.3246 9.79291 14.4446 8.96425 13.8054C8.13559 13.1662 7.12943 12.799 6.08383 12.7544C5.03823 12.7097 4.00443 12.9897 3.12427 13.5559V12.2223C3.35738 12.112 3.55447 11.9379 3.69273 11.7202C3.831 11.5025 3.90477 11.2501 3.90552 10.9922C3.90438 10.7874 3.85669 10.5856 3.76607 10.402L5.74263 8.64492C5.92566 8.75502 6.1319 8.82077 6.34488 8.83691C6.55786 8.85305 6.77166 8.81914 6.96919 8.73789L8.69068 10.0973C8.60756 10.3058 8.57708 10.5315 8.60194 10.7546C8.6268 10.9777 8.70622 11.1912 8.83319 11.3762C8.96017 11.5613 9.13078 11.7123 9.32995 11.8158C9.52912 11.9193 9.75071 11.9721 9.97515 11.9696C10.1996 11.9671 10.4199 11.9093 10.6168 11.8014C10.8136 11.6936 10.9808 11.5388 11.1036 11.351C11.2264 11.1631 11.3011 10.9479 11.321 10.7243C11.3409 10.5008 11.3054 10.2757 11.2176 10.0691L13.4754 8.20391C13.7443 8.39052 14.0713 8.47416 14.3967 8.43954C14.7222 8.40492 15.0243 8.25436 15.2479 8.01536C15.4714 7.77637 15.6016 7.4649 15.6144 7.13789C15.6273 6.81087 15.5221 6.49014 15.3179 6.23432C15.1138 5.9785 14.8245 5.80466 14.5028 5.74457C14.1811 5.68449 13.8485 5.74217 13.5658 5.90708C13.2831 6.07199 13.0692 6.33312 12.9632 6.64273C12.8572 6.95235 12.8661 7.28978 12.9883 7.59336L10.7208 9.4668C10.4915 9.31399 10.2214 9.23398 9.94585 9.23726C9.67032 9.24053 9.4022 9.32694 9.17661 9.48516L7.58599 8.2293C7.71865 8.03006 7.79666 7.79948 7.81221 7.56062C7.82777 7.32177 7.78033 7.08301 7.67463 6.86825C7.56894 6.65349 7.40869 6.47025 7.20994 6.33687C7.01119 6.20349 6.78089 6.12464 6.54209 6.10822C6.30329 6.09179 6.06437 6.13837 5.84923 6.24328C5.63408 6.3482 5.45026 6.50777 5.31616 6.70604C5.18206 6.90431 5.10237 7.13432 5.08508 7.37306C5.06779 7.61179 5.1135 7.85088 5.21763 8.06641L3.2395 9.82461C3.20212 9.80193 3.16367 9.78107 3.12427 9.76211V4.54688C3.12437 4.44331 3.16556 4.34401 3.2388 4.27078C3.31203 4.19754 3.41133 4.15635 3.51489 4.15625H23.0461C23.1497 4.15635 23.249 4.19754 23.3222 4.27078C23.3955 4.34401 23.4367 4.44331 23.4368 4.54688V19ZM6.85864 7.89062C6.77673 7.97264 6.67233 8.02852 6.55865 8.05119C6.44496 8.07386 6.32712 8.06229 6.22001 8.01797C6.1129 7.97364 6.02134 7.89854 5.95693 7.80217C5.89251 7.70579 5.85813 7.59248 5.85813 7.47656C5.85813 7.36064 5.89251 7.24733 5.95693 7.15096C6.02134 7.05458 6.1129 6.97948 6.22001 6.93516C6.32712 6.89083 6.44496 6.87927 6.55865 6.90194C6.67233 6.9246 6.77673 6.98048 6.85864 7.0625C6.96818 7.17246 7.02968 7.32135 7.02968 7.47656C7.02968 7.63177 6.96818 7.78066 6.85864 7.89062ZM10.3743 11.0156C10.2924 11.0976 10.188 11.1535 10.0743 11.1762C9.96059 11.1989 9.84274 11.1873 9.73563 11.143C9.62852 11.0986 9.53697 11.0235 9.47255 10.9272C9.40814 10.8308 9.37375 10.7175 9.37375 10.6016C9.37375 10.4856 9.40814 10.3723 9.47255 10.276C9.53697 10.1796 9.62852 10.1045 9.73563 10.0602C9.84274 10.0158 9.96059 10.0043 10.0743 10.0269C10.188 10.0496 10.2924 10.1055 10.3743 10.1875C10.4838 10.2975 10.5453 10.4464 10.5453 10.6016C10.5453 10.7568 10.4838 10.9057 10.3743 11.0156ZM13.843 6.67187C13.9249 6.58986 14.0293 6.53398 14.143 6.51131C14.2567 6.48864 14.3745 6.50021 14.4817 6.54453C14.5888 6.58886 14.6803 6.66396 14.7447 6.76033C14.8092 6.8567 14.8435 6.97002 14.8435 7.08594C14.8435 7.20186 14.8092 7.31517 14.7447 7.41154C14.6803 7.50792 14.5888 7.58302 14.4817 7.62734C14.3745 7.67167 14.2567 7.68323 14.143 7.66056C14.0293 7.6379 13.9249 7.58202 13.843 7.5C13.7335 7.39004 13.672 7.24115 13.672 7.08594C13.672 6.93073 13.7335 6.78184 13.843 6.67187Z" fill="#262626"/>
</svg>
