<svg width="24" height="25" viewBox="0 0 24 25" fill="none" xmlns="http://www.w3.org/2000/svg">
<g clip-path="url(#clip0_1742_12926)">
<path d="M20.1396 17.134L19.3995 16.579C19.2814 16.4764 18.736 16.0988 17.5013 16.5266L15.2684 17.1797C15.1615 16.5246 14.4807 16.2463 14.1062 16.1903C14.0924 16.1882 14.0784 16.1871 14.0644 16.1871H11.7687C10.9654 15.5886 10.1309 15.3709 9.28748 15.5411C7.87392 15.826 6.83835 17.1233 6.4056 17.7598L6.31354 17.62C6.23653 17.5032 6.13166 17.4074 6.00839 17.3412C5.88512 17.2751 5.74732 17.2406 5.60742 17.241C5.44242 17.241 5.28229 17.289 5.14467 17.3798L4.12692 18.0503C3.93923 18.174 3.81079 18.3638 3.76542 18.585C3.72004 18.8063 3.76298 19.0313 3.88673 19.219L6.54323 23.2506C6.62024 23.3674 6.72511 23.4632 6.84838 23.5293C6.97166 23.5955 7.10945 23.6299 7.24935 23.6295C7.41435 23.6295 7.57448 23.5815 7.7121 23.4908L8.72985 22.8203C8.91754 22.6965 9.04598 22.5068 9.09135 22.2855C9.13673 22.0643 9.09379 21.8393 8.97004 21.6516L8.87292 21.5042L9.78173 20.9681H15.0164C15.0722 20.9681 15.1268 20.9515 15.1731 20.9203L20.1276 17.5922C20.1648 17.5671 20.1955 17.5336 20.2171 17.4942C20.2386 17.4549 20.2505 17.411 20.2517 17.3662C20.2529 17.3213 20.2433 17.2769 20.2238 17.2365C20.2043 17.1961 20.1754 17.1609 20.1396 17.134ZM8.54048 22.1723C8.53324 22.2084 8.51891 22.2428 8.49831 22.2734C8.47772 22.304 8.45126 22.3303 8.42048 22.3506L7.40273 23.0211C7.27748 23.1034 7.09467 23.0646 7.0131 22.941L4.3566 18.9094C4.31554 18.8471 4.30148 18.7723 4.31667 18.6983C4.33185 18.6242 4.3746 18.561 4.43667 18.52L5.45442 17.8495C5.51674 17.8085 5.59274 17.794 5.66577 17.809C5.73879 17.824 5.80289 17.8673 5.84404 17.9295L8.50054 21.9611C8.54142 22.0234 8.55567 22.0984 8.54048 22.1723ZM14.9307 20.4058H9.70504C9.65479 20.4058 9.60548 20.4193 9.56217 20.4448L8.56317 21.0341L6.74348 18.2725C7.00992 17.8476 8.02467 16.3695 9.39867 16.0928C10.1018 15.9516 10.8092 16.1522 11.5013 16.6905C11.5506 16.729 11.6114 16.7498 11.674 16.7498H14.0404C14.1535 16.7713 14.721 16.9026 14.721 17.3591C14.721 17.3762 14.7231 17.3955 14.7261 17.4122C14.7299 17.4325 14.7351 17.4681 14.7374 17.5131C14.7347 17.5345 14.7353 17.5564 14.7379 17.5785C14.7325 17.7906 14.6442 18.1241 14.1707 18.2498H12.0957C12.0211 18.2498 11.9495 18.2794 11.8968 18.3321C11.844 18.3849 11.8144 18.4564 11.8144 18.531C11.8144 18.6056 11.844 18.6771 11.8968 18.7299C11.9495 18.7826 12.0211 18.8123 12.0957 18.8123H14.2052C14.2272 18.8123 14.2489 18.8096 14.2705 18.8046C14.965 18.6392 15.2211 18.1703 15.2835 17.7615L17.6723 17.0623C18.6627 16.7196 19.0206 16.9956 19.0221 16.9956C19.0315 17.005 19.0416 17.0138 19.0523 17.0218L19.4854 17.3466L14.9307 20.4058ZM6.89929 14.9683H16.8837C17.6592 14.9683 18.2899 14.3376 18.2899 13.5621V7.37458C18.2899 6.59908 17.6592 5.96833 16.8837 5.96833H6.89929C6.12379 5.96833 5.49304 6.59908 5.49304 7.37458V13.5621C5.49304 14.3376 6.12398 14.9683 6.89929 14.9683ZM16.8837 14.4058H6.89929C6.67559 14.4056 6.46113 14.3166 6.30295 14.1584C6.14477 14.0002 6.05579 13.7858 6.05554 13.5621V8.35895H17.7274V13.5621C17.7274 14.0273 17.349 14.4058 16.8837 14.4058ZM6.89929 6.53083H16.8837C17.3489 6.53083 17.7274 6.90939 17.7274 7.37458V7.79645H6.05554V7.37458C6.05554 6.90939 6.4341 6.53083 6.89929 6.53083ZM9.61729 4.84933C9.63037 4.91272 9.66491 4.96966 9.71508 5.01055C9.76526 5.05144 9.828 5.07376 9.89273 5.07377H13.8902C13.955 5.07376 14.0177 5.05144 14.0679 5.01055C14.1181 4.96966 14.1526 4.91272 14.1657 4.84933L14.8204 1.67889C14.833 1.61806 14.8251 1.55477 14.7979 1.49893C14.7707 1.44309 14.7257 1.39784 14.67 1.37027C14.6145 1.34242 14.5513 1.33385 14.4904 1.3459C14.4294 1.35795 14.3742 1.38994 14.3335 1.43683L13.1586 2.7797L12.1416 0.80383C12.1181 0.757788 12.0823 0.71914 12.0382 0.692151C11.9941 0.665161 11.9434 0.650879 11.8917 0.650879C11.84 0.650879 11.7893 0.665161 11.7452 0.692151C11.7011 0.71914 11.6653 0.757788 11.6417 0.80383L10.6247 2.77952L9.44985 1.43664C9.40896 1.38989 9.35373 1.35799 9.29279 1.34592C9.23185 1.33386 9.16864 1.34231 9.11301 1.36995C9.05738 1.39759 9.01247 1.44288 8.98528 1.49873C8.95809 1.55459 8.95016 1.61787 8.96273 1.6787L9.61729 4.84933ZM10.4736 3.46127C10.5038 3.49581 10.542 3.52244 10.5848 3.53883C10.6276 3.55523 10.6738 3.56089 10.7194 3.55532C10.7649 3.54976 10.8084 3.53313 10.846 3.5069C10.8836 3.48067 10.9143 3.44562 10.9352 3.40483L11.8915 1.54708L12.8477 3.40483C12.8903 3.48752 12.9711 3.54395 13.0635 3.5552C13.1091 3.56111 13.1554 3.55562 13.1983 3.53923C13.2412 3.52283 13.2794 3.49604 13.3094 3.46127L14.0535 2.61058L13.6613 4.51127H10.1219L9.72942 2.61077L10.4736 3.46127Z" fill="black"/>
<path d="M6.80029 7.42139H7.03467C7.10926 7.42139 7.1808 7.39176 7.23354 7.33901C7.28629 7.28627 7.31592 7.21473 7.31592 7.14014C7.31592 7.06554 7.28629 6.99401 7.23354 6.94126C7.1808 6.88852 7.10926 6.85889 7.03467 6.85889H6.80029C6.7257 6.85889 6.65416 6.88852 6.60142 6.94126C6.54867 6.99401 6.51904 7.06554 6.51904 7.14014C6.51904 7.21473 6.54867 7.28627 6.60142 7.33901C6.65416 7.39176 6.7257 7.42139 6.80029 7.42139ZM8.97098 7.42139H9.20536C9.27995 7.42139 9.35148 7.39176 9.40423 7.33901C9.45697 7.28627 9.48661 7.21473 9.48661 7.14014C9.48661 7.06554 9.45697 6.99401 9.40423 6.94126C9.35148 6.88852 9.27995 6.85889 9.20536 6.85889H8.97098C8.89639 6.85889 8.82485 6.88852 8.77211 6.94126C8.71936 6.99401 8.68973 7.06554 8.68973 7.14014C8.68973 7.21473 8.71936 7.28627 8.77211 7.33901C8.82485 7.39176 8.89639 7.42139 8.97098 7.42139ZM7.88554 7.42139H8.11992C8.19451 7.42139 8.26605 7.39176 8.31879 7.33901C8.37154 7.28627 8.40117 7.21473 8.40117 7.14014C8.40117 7.06554 8.37154 6.99401 8.31879 6.94126C8.26605 6.88852 8.19451 6.85889 8.11992 6.85889H7.88554C7.81095 6.85889 7.73941 6.88852 7.68667 6.94126C7.63392 6.99401 7.60429 7.06554 7.60429 7.14014C7.60429 7.21473 7.63392 7.28627 7.68667 7.33901C7.73941 7.39176 7.81095 7.42139 7.88554 7.42139ZM11.8064 9.12876H7.60748C7.53289 9.12876 7.46135 9.15839 7.40861 9.21114C7.35586 9.26388 7.32623 9.33542 7.32623 9.41001V13.2538C7.32623 13.3284 7.35586 13.3999 7.40861 13.4526C7.46135 13.5054 7.53289 13.535 7.60748 13.535H11.8065C11.8811 13.535 11.9527 13.5054 12.0054 13.4526C12.0582 13.3999 12.0878 13.3284 12.0878 13.2538V9.41001C12.0878 9.37306 12.0805 9.33647 12.0664 9.30234C12.0522 9.2682 12.0315 9.23719 12.0054 9.21107C11.9792 9.18495 11.9482 9.16424 11.914 9.15012C11.8799 9.13599 11.8433 9.12874 11.8064 9.12876ZM11.5251 12.9725H7.88873V9.69126H11.5253L11.5251 12.9725ZM16.1755 11.0506H13.3146C13.24 11.0506 13.1685 11.0803 13.1157 11.133C13.063 11.1858 13.0334 11.2573 13.0334 11.3319C13.0334 11.4065 13.063 11.478 13.1157 11.5308C13.1685 11.5835 13.24 11.6131 13.3146 11.6131H16.1755C16.2501 11.6131 16.3216 11.5835 16.3744 11.5308C16.4271 11.478 16.4567 11.4065 16.4567 11.3319C16.4567 11.2573 16.4271 11.1858 16.3744 11.133C16.3216 11.0803 16.2501 11.0506 16.1755 11.0506ZM16.1755 9.62751H13.3146C13.24 9.62751 13.1685 9.65714 13.1157 9.70989C13.063 9.76263 13.0334 9.83417 13.0334 9.90876C13.0334 9.98335 13.063 10.0549 13.1157 10.1076C13.1685 10.1604 13.24 10.19 13.3146 10.19H16.1755C16.2501 10.19 16.3216 10.1604 16.3744 10.1076C16.4271 10.0549 16.4567 9.98335 16.4567 9.90876C16.4567 9.83417 16.4271 9.76263 16.3744 9.70989C16.3216 9.65714 16.2501 9.62751 16.1755 9.62751ZM16.1755 12.4739H13.3146C13.24 12.4739 13.1685 12.5036 13.1157 12.5563C13.063 12.6091 13.0334 12.6806 13.0334 12.7552C13.0334 12.8298 13.063 12.9013 13.1157 12.9541C13.1685 13.0068 13.24 13.0364 13.3146 13.0364H16.1755C16.2501 13.0364 16.3216 13.0068 16.3744 12.9541C16.4271 12.9013 16.4567 12.8298 16.4567 12.7552C16.4567 12.6806 16.4271 12.6091 16.3744 12.5563C16.3216 12.5036 16.2501 12.4739 16.1755 12.4739Z" fill="black"/>
</g>
<defs>
<clipPath id="clip0_1742_12926">
<rect width="24" height="24" fill="white" transform="translate(0 0.140625)"/>
</clipPath>
</defs>
</svg>
