<svg width="38" height="38" viewBox="0 0 38 38" fill="none" xmlns="http://www.w3.org/2000/svg">
<path d="M26.704 31.8623L19 29.6357L11.296 31.8623C11.2293 31.9959 11.207 32.1295 11.207 32.2854V36.8869H26.793V32.2854C26.793 32.1295 26.7707 31.9959 26.704 31.8623Z" fill="#646D73"/>
<path d="M26.793 36.8869V32.2854C26.793 32.1295 26.7707 31.9959 26.704 31.8623L19 29.6357V36.8869H26.793Z" fill="#474F54"/>
<path d="M36.8867 2.22656H31.1982C31.208 1.8505 31.2461 1.49625 31.2461 1.11328C31.2461 0.48977 30.7563 0 30.1328 0H7.86719C7.24368 0 6.75391 0.48977 6.75391 1.11328C6.75391 1.49625 6.79198 1.8505 6.80163 2.22656H1.11328C0.497934 2.22656 0 2.7245 0 3.33984V6.16001C0 12.3761 4.97948 17.4257 11.116 17.7508C12.3944 19.511 13.9116 20.8172 15.6379 21.5531C15.3707 26.9637 12.2758 30.7266 11.5411 31.5059C11.4297 31.5949 11.3406 31.7285 11.2961 31.8621H26.704C26.6594 31.7285 26.5704 31.5949 26.459 31.5059C25.702 30.7266 22.6293 26.9859 22.3621 21.5531C24.0887 20.8171 25.6151 19.5106 26.8946 17.7497C33.0258 17.4194 38 12.3726 38 6.16001V3.33984C38 2.7245 37.5021 2.22656 36.8867 2.22656ZM2.22656 6.16001V4.45312H6.89715C7.18608 8.13274 7.98401 12.0298 9.66105 15.3416C5.4573 14.3949 2.22656 10.6462 2.22656 6.16001ZM35.7734 6.16001C35.7734 10.6439 32.5456 14.3909 28.345 15.3397C30.0087 12.028 30.8111 8.16859 31.1029 4.45312H35.7734V6.16001Z" fill="#FED843"/>
<path d="M36.8867 2.22656H31.1982C31.208 1.8505 31.2461 1.49625 31.2461 1.11328C31.2461 0.48977 30.7563 0 30.1328 0H19V31.8621H26.704C26.6594 31.7285 26.5704 31.5949 26.459 31.5059C25.702 30.7266 22.6293 26.9859 22.3621 21.5531C24.0887 20.8171 25.6151 19.5106 26.8946 17.7497C33.0258 17.4194 38 12.3726 38 6.16001V3.33984C38 2.7245 37.5021 2.22656 36.8867 2.22656ZM35.7734 6.16001C35.7734 10.6439 32.5456 14.3909 28.345 15.3397C30.0089 12.028 30.8112 8.16859 31.1029 4.45312H35.7734V6.16001Z" fill="#FABE2C"/>
<path d="M20.7765 14.161L19 13.2379L17.2235 14.161C16.8517 14.3523 16.3973 14.3208 16.0559 14.074C15.8886 13.9526 15.7585 13.7869 15.6801 13.5957C15.6018 13.4044 15.5783 13.195 15.6123 12.9911L15.9385 11.0135L14.5143 9.60781C14.2043 9.30559 14.1095 8.85753 14.236 8.47063C14.3002 8.27406 14.4177 8.0992 14.5756 7.96559C14.7334 7.83197 14.9252 7.74485 15.1297 7.71397L17.1083 7.41605L18.0042 5.62545C18.3825 4.87094 19.6175 4.87094 19.9959 5.62545L20.8917 7.41605L22.8704 7.71397C23.0748 7.74489 23.2667 7.83202 23.4245 7.96563C23.5823 8.09924 23.6998 8.27408 23.7641 8.47063C23.8283 8.66727 23.8363 8.87797 23.7871 9.07892C23.7379 9.27987 23.6335 9.46306 23.4857 9.60781L22.0616 11.0135L22.3877 12.9911C22.4218 13.195 22.3983 13.4044 22.32 13.5957C22.2416 13.7869 22.1114 13.9526 21.9441 14.074C21.605 14.3197 21.1514 14.356 20.7765 14.161Z" fill="#FABE2C"/>
<path d="M20.7765 14.161C21.1515 14.3561 21.6051 14.3198 21.9441 14.074C22.1114 13.9526 22.2415 13.787 22.3199 13.5957C22.3983 13.4044 22.4217 13.1951 22.3877 12.9912L22.0615 11.0135L23.4857 9.60784C23.6335 9.4631 23.7379 9.27991 23.7871 9.07896C23.8363 8.87801 23.8283 8.66731 23.764 8.47066C23.6998 8.2741 23.5823 8.09924 23.4245 7.96562C23.2667 7.83201 23.0748 7.74489 22.8704 7.714L20.8917 7.41609L19.9959 5.62549C19.8067 5.24823 19.4034 5.05957 19 5.05957V13.238L20.7765 14.161Z" fill="#FF9100"/>
<path d="M27.9062 38H10.0938C9.4784 38 8.98047 37.5021 8.98047 36.8867C8.98047 36.2714 9.4784 35.7734 10.0938 35.7734H27.9062C28.5216 35.7734 29.0195 36.2714 29.0195 36.8867C29.0195 37.5021 28.5216 38 27.9062 38Z" fill="#474F54"/>
<path d="M27.9062 35.7734H19V38H27.9062C28.5216 38 29.0195 37.5021 29.0195 36.8867C29.0195 36.2714 28.5216 35.7734 27.9062 35.7734Z" fill="#32393F"/>
</svg>
